<?xml version="1.0" encoding="UTF-8" standalone="no"?>
<!-- Generator: Adobe Illustrator 16.0.0, SVG Export Plug-In . SVG Version: 6.00 Build 0)  -->

<svg
   xmlns:dc="http://purl.org/dc/elements/1.1/"
   xmlns:cc="http://creativecommons.org/ns#"
   xmlns:rdf="http://www.w3.org/1999/02/22-rdf-syntax-ns#"
   xmlns:svg="http://www.w3.org/2000/svg"
   xmlns="http://www.w3.org/2000/svg"
   xmlns:xlink="http://www.w3.org/1999/xlink"
   xmlns:sodipodi="http://sodipodi.sourceforge.net/DTD/sodipodi-0.dtd"
   xmlns:inkscape="http://www.inkscape.org/namespaces/inkscape"
   version="1.1"
   id="Layer_1"
   x="0px"
   y="0px"
   width="384.31348"
   height="247.215"
   viewBox="0 0 384.31347 247.215"
   enable-background="new 0 0 413.979 371.981"
   xml:space="preserve"
   sodipodi:docname="logo_branco.svg"
   inkscape:version="0.92.1 r15371"><metadata
     id="metadata103"><rdf:RDF><cc:Work
         rdf:about=""><dc:format>image/svg+xml</dc:format><dc:type
           rdf:resource="http://purl.org/dc/dcmitype/StillImage" /><dc:title /></cc:Work></rdf:RDF></metadata><defs
     id="defs101" /><sodipodi:namedview
     pagecolor="#ffffff"
     bordercolor="#666666"
     borderopacity="1"
     objecttolerance="10"
     gridtolerance="10"
     guidetolerance="10"
     inkscape:pageopacity="0"
     inkscape:pageshadow="2"
     inkscape:window-width="1680"
     inkscape:window-height="987"
     id="namedview99"
     showgrid="false"
     fit-margin-top="0"
     fit-margin-left="0"
     fit-margin-right="0"
     fit-margin-bottom="0"
     inkscape:zoom="1.7944702"
     inkscape:cx="325.0428"
     inkscape:cy="27.233908"
     inkscape:window-x="-8"
     inkscape:window-y="-8"
     inkscape:window-maximized="1"
     inkscape:current-layer="Layer_1" /><path
     d="m 279.60422,65.106 h -23.591 V 33.968 C 256.01322,15.207 240.80522,0 222.04522,0 h -56.614 c -18.76,0 -33.968,15.208 -33.968,33.968 v 31.139 h -31.139 c -18.759,0 -33.968,15.207 -33.968,33.969 v 56.613 c 0,18.76 15.209,33.969 33.968,33.969 h 31.139 v 23.588 c 0,18.76 15.208,33.969 33.968,33.969 h 56.614 c 18.76,0 33.968,-15.209 33.968,-33.969 v -23.588 h 23.591 c 18.758,0 33.967,-15.209 33.967,-33.969 V 99.076 c 0,-18.763 -15.209,-33.97 -33.967,-33.97 z"
     id="path2"
     inkscape:connector-curvature="0"
     style="fill:#ffffff" /><g
     id="g6"
     style="opacity:0.8"
     transform="translate(-14.00878,-25.969)"><path
       d="m 14.01,66.637 c -0.111,32.551 7.354,66.605 21.927,100 0.332,0.135 0.661,0.272 0.99,0.401 10e-4,0 0.004,0 0.008,0.002 60.604,22.544 82.923,-60.05 144.061,-34.427 0.334,0.147 0.67,0.299 1.009,0.458 -14.581,-33.439 -22.046,-67.491 -21.923,-100 -0.283,-0.15 -0.561,-0.297 -0.84,-0.441 -51.694,-28.135 -93.217,59.555 -144.4,34.406 0,-0.002 0,-0.002 -0.004,-0.002 -0.273,-0.126 -0.552,-0.259 -0.828,-0.397 z m 33.842,3.957 c 0.284,6.73 0.834,13.416 1.655,20.058 -5.331,1.373 -10.79,1.967 -16.409,1.479 C 32.329,85.57 31.835,79 31.62,72.406 37.128,72.763 42.53,72.07 47.852,70.594 Z m 5.091,40.121 c -1.362,-6.592 -2.457,-13.24 -3.286,-19.936 5.246,-1.367 10.36,-3.494 15.414,-6.096 0.795,6.761 1.851,13.452 3.176,20.065 -4.986,2.553 -10.068,4.637 -15.304,5.967 z M 83.481,95.644 c -1.233,-6.646 -2.205,-13.388 -2.917,-20.206 4.964,-3.259 9.911,-6.682 14.893,-9.957 0.612,6.848 1.484,13.625 2.614,20.314 -4.877,3.254 -9.718,6.635 -14.59,9.849 z M 113.368,76.45 c -1.039,-6.702 -1.821,-13.48 -2.329,-20.314 5.081,-2.643 10.228,-4.821 15.471,-6.236 0.445,6.757 1.165,13.49 2.152,20.168 -5.208,1.488 -10.296,3.716 -15.294,6.382 z m 15.451,-6.255 c 5.305,-1.503 10.734,-2.245 16.355,-1.931 0.997,6.51 2.267,12.996 3.788,19.447 -5.696,-0.279 -11.149,0.497 -16.435,2.014 -1.492,-6.448 -2.732,-12.963 -3.708,-19.53 z M 79.091,54.847 c 0.185,6.904 0.629,13.74 1.333,20.501 -5.047,3.313 -10.113,6.451 -15.246,9.104 C 64.387,77.745 63.866,70.974 63.6,64.14 68.796,61.413 73.942,58.207 79.091,54.847 Z m 31.098,-19.273 c -0.029,6.854 0.21,13.685 0.71,20.46 -5.169,2.694 -10.265,5.868 -15.329,9.196 -0.601,-6.796 -0.941,-13.659 -1.018,-20.573 5.175,-3.322 10.382,-6.463 15.637,-9.083 z m 32.238,-7.192 c -0.115,6.516 0.055,13.084 0.503,19.659 -5.554,-0.419 -10.973,0.227 -16.302,1.656 -0.437,-6.698 -0.61,-13.428 -0.501,-20.142 5.366,-1.291 10.791,-1.765 16.3,-1.173 z m 20.255,44.097 c -6.05,-2.685 -11.813,-4.046 -17.392,-4.372 -1.007,-6.62 -1.753,-13.261 -2.213,-19.895 5.52,0.428 11.163,1.899 17.013,4.66 0.577,6.502 1.443,13.048 2.592,19.607 z m 10.254,39.441 c -6.502,-2.779 -12.557,-4.164 -18.311,-4.499 -2.096,-6.467 -3.925,-12.983 -5.479,-19.54 5.661,0.296 11.559,1.629 17.823,4.312 1.711,6.578 3.703,13.157 5.967,19.727 z m -28.119,16.335 c -2.545,-6.178 -4.829,-12.438 -6.863,-18.782 5.289,-1.481 10.777,-2.219 16.576,-1.899 2.079,6.41 4.427,12.773 7.036,19.095 -5.911,-0.441 -11.454,0.2 -16.749,1.586 z m -36.747,-3.626 c 4.764,-3.219 9.579,-6.302 14.529,-8.956 -2.08,-6.329 -3.894,-12.767 -5.455,-19.297 -5.011,2.702 -9.915,5.845 -14.776,9.111 -1.633,-6.438 -3.019,-12.98 -4.144,-19.61 4.958,-3.306 9.957,-6.475 15.042,-9.194 1.036,6.646 2.326,13.214 3.877,19.693 4.971,-2.684 10.046,-4.931 15.287,-6.451 1.519,6.552 3.3,13.032 5.345,19.428 -5.238,1.482 -10.273,3.692 -15.176,6.32 2.074,6.33 4.402,12.555 6.987,18.663 -4.893,2.562 -9.625,5.56 -14.295,8.707 -2.662,-6.014 -5.065,-12.154 -7.221,-18.414 z M 79.4,143.237 c 4.917,-2.605 9.697,-5.65 14.444,-8.847 0,0 0,0 0.002,0 -2.255,-6.217 -4.26,-12.558 -6.006,-19.011 -0.005,10e-4 -0.005,10e-4 -0.005,10e-4 -4.847,3.228 -9.727,6.286 -14.72,8.875 -1.826,-6.378 -3.395,-12.854 -4.712,-19.409 5.069,-2.606 10.045,-5.692 14.989,-8.957 1.229,6.591 2.711,13.094 4.449,19.49 4.845,-3.227 9.661,-6.624 14.527,-9.893 1.645,6.49 3.546,12.876 5.702,19.142 -4.764,3.218 -9.473,6.566 -14.223,9.762 2.256,6.217 4.765,12.306 7.514,18.253 -4.643,3.161 -9.326,6.2 -14.164,8.844 -2.842,-5.947 -5.447,-12.041 -7.797,-18.25 z m -31.927,7.948 c 5.855,0.378 11.39,-0.312 16.674,-1.739 10e-4,-0.002 10e-4,-0.002 10e-4,-0.002 -2.412,-6.277 -4.562,-12.658 -6.452,-19.115 -0.005,-0.001 0,0 -0.005,-0.001 -5.313,1.355 -10.831,1.943 -16.633,1.434 -1.853,-6.465 -3.446,-12.975 -4.759,-19.505 5.72,0.539 11.219,-0.009 16.55,-1.346 1.353,6.536 2.972,13.013 4.848,19.418 5.314,-1.354 10.423,-3.48 15.419,-6.072 1.836,6.437 3.936,12.769 6.285,18.982 -4.917,2.604 -9.968,4.772 -15.252,6.205 2.407,6.273 5.072,12.448 7.988,18.48 -5.254,1.552 -10.771,2.41 -16.676,2.236 -2.922,-6.229 -5.589,-12.566 -7.988,-18.975 z M 22.782,126.64 c 6.394,3.014 12.479,4.616 18.271,5.121 1.876,6.527 4.01,13.006 6.417,19.422 -5.863,-0.385 -12.058,-1.85 -18.645,-4.762 -2.29,-6.587 -4.311,-13.192 -6.043,-19.781 z M 15.781,87.365 c 5.879,2.859 11.616,4.418 17.189,4.915 0.776,6.615 1.824,13.221 3.149,19.801 -5.679,-0.548 -11.572,-2.18 -17.694,-5.163 -1.168,-6.55 -2.052,-13.066 -2.644,-19.553 z"
       id="path4"
       inkscape:connector-curvature="0"
       style="fill:#ffffff" /></g><g
     id="g10"
     style="opacity:0.8"
     transform="translate(-14.00878,-25.969)"><path
       d="m 397.494,67.034 c -0.004,0 -0.004,0 -0.004,0.003 -51.184,25.148 -92.706,-62.542 -144.4,-34.406 -0.278,0.144 -0.558,0.291 -0.84,0.44 0.124,32.51 -7.342,66.562 -21.922,100.001 0.338,-0.159 0.673,-0.311 1.009,-0.458 61.138,-25.622 83.456,56.971 144.061,34.429 0.004,-0.004 0.006,-0.004 0.008,-0.004 0.328,-0.129 0.658,-0.267 0.99,-0.401 14.572,-33.395 22.037,-67.449 21.925,-100 -0.274,0.137 -0.554,0.271 -0.827,0.396 z m -16.784,5.372 c -0.214,6.593 -0.708,13.164 -1.476,19.725 -5.619,0.488 -11.079,-0.106 -16.409,-1.479 0.822,-6.643 1.37,-13.328 1.655,-20.058 5.321,1.476 10.724,2.17 16.23,1.812 z m -36.625,32.343 c 1.325,-6.613 2.381,-13.305 3.177,-20.065 5.054,2.602 10.167,4.729 15.412,6.096 -0.828,6.697 -1.924,13.344 -3.285,19.937 -5.236,-1.332 -10.318,-3.415 -15.304,-5.968 z M 314.26,85.796 c 1.132,-6.69 2.004,-13.466 2.615,-20.315 4.98,3.275 9.929,6.699 14.893,9.957 -0.713,6.818 -1.684,13.562 -2.917,20.207 -4.871,-3.214 -9.713,-6.596 -14.591,-9.849 z M 283.67,70.069 c 0.986,-6.678 1.706,-13.411 2.152,-20.168 5.242,1.416 10.391,3.594 15.471,6.236 -0.508,6.833 -1.29,13.612 -2.329,20.314 -4.998,-2.666 -10.087,-4.895 -15.294,-6.382 z m -3.863,19.657 c -5.288,-1.518 -10.74,-2.294 -16.438,-2.015 1.523,-6.451 2.793,-12.937 3.79,-19.447 5.62,-0.313 11.05,0.429 16.354,1.931 -0.976,6.567 -2.217,13.082 -3.706,19.531 z M 348.731,64.14 c -0.266,6.834 -0.786,13.605 -1.578,20.312 -5.132,-2.652 -10.197,-5.791 -15.246,-9.104 0.706,-6.762 1.149,-13.598 1.334,-20.501 5.151,3.361 10.294,6.567 15.49,9.293 z M 317.78,44.659 c -0.077,6.914 -0.418,13.777 -1.021,20.573 -5.062,-3.329 -10.156,-6.503 -15.326,-9.196 0.501,-6.775 0.738,-13.606 0.709,-20.46 5.257,2.618 10.462,5.76 15.638,9.083 z M 286.205,29.555 c 0.108,6.714 -0.064,13.444 -0.501,20.142 -5.329,-1.429 -10.748,-2.075 -16.303,-1.656 0.448,-6.576 0.619,-13.143 0.505,-19.659 5.509,-0.592 10.932,-0.118 16.299,1.173 z m -33.963,23.318 c 5.85,-2.76 11.491,-4.231 17.011,-4.66 -0.459,6.634 -1.205,13.275 -2.213,19.896 -5.578,0.326 -11.34,1.687 -17.39,4.371 1.149,-6.559 2.015,-13.105 2.592,-19.607 z m -6.879,39.321 c 6.265,-2.683 12.163,-4.016 17.823,-4.312 -1.554,6.557 -3.384,13.073 -5.478,19.541 -5.755,0.335 -11.811,1.719 -18.313,4.499 2.266,-6.572 4.256,-13.15 5.968,-19.728 z m 5.405,34.475 c 2.608,-6.321 4.956,-12.685 7.034,-19.095 5.799,-0.32 11.288,0.417 16.576,1.899 -2.035,6.344 -4.319,12.604 -6.862,18.783 -5.297,-1.386 -10.838,-2.027 -16.748,-1.587 z m 46.274,16.375 c -4.671,-3.147 -9.402,-6.144 -14.296,-8.708 2.584,-6.107 4.913,-12.333 6.987,-18.663 -4.902,-2.627 -9.939,-4.837 -15.178,-6.32 2.046,-6.396 3.827,-12.876 5.346,-19.428 5.239,1.519 10.316,3.767 15.286,6.451 1.551,-6.479 2.842,-13.047 3.878,-19.693 5.086,2.719 10.083,5.888 15.042,9.194 -1.127,6.63 -2.51,13.173 -4.145,19.61 -4.861,-3.266 -9.765,-6.41 -14.775,-9.111 -1.561,6.531 -3.375,12.968 -5.454,19.297 4.949,2.653 9.765,5.737 14.528,8.956 -2.156,6.26 -4.559,12.401 -7.219,18.415 z m 28.093,18.443 c -4.835,-2.644 -9.52,-5.683 -14.163,-8.844 2.75,-5.946 5.259,-12.036 7.515,-18.253 -4.75,-3.196 -9.46,-6.543 -14.225,-9.761 2.156,-6.266 4.058,-12.653 5.701,-19.142 4.867,3.269 9.684,6.666 14.527,9.893 1.738,-6.396 3.222,-12.898 4.45,-19.49 4.943,3.264 9.92,6.351 14.989,8.957 -1.318,6.555 -2.888,13.031 -4.713,19.41 -4.993,-2.59 -9.873,-5.647 -14.721,-8.875 0,0 0,0 -0.006,-0.001 -1.745,6.453 -3.749,12.793 -6.004,19.01 0.002,0 0.002,0 0.002,0 4.745,3.197 9.527,6.241 14.443,8.848 -2.348,6.208 -4.954,12.301 -7.795,18.248 z m 31.736,8.675 c -5.905,0.174 -11.422,-0.686 -16.677,-2.237 2.918,-6.033 5.582,-12.207 7.99,-18.48 -5.285,-1.433 -10.336,-3.601 -15.253,-6.206 2.35,-6.212 4.449,-12.544 6.285,-18.981 4.996,2.591 10.104,4.718 15.418,6.072 1.878,-6.406 3.495,-12.883 4.849,-19.419 5.33,1.338 10.83,1.885 16.55,1.346 -1.312,6.53 -2.906,13.041 -4.76,19.506 -5.802,0.509 -11.319,-0.078 -16.633,-1.434 -0.006,0.001 0,0 -0.006,0.001 -1.889,6.456 -4.04,12.837 -6.45,19.115 0,0 0,0 10e-4,0.001 5.283,1.428 10.818,2.117 16.674,1.739 -2.398,6.409 -5.067,12.746 -7.988,18.977 z m 26.637,-23.741 c -6.589,2.913 -12.782,4.378 -18.645,4.763 2.405,-6.416 4.541,-12.894 6.415,-19.422 5.793,-0.505 11.879,-2.106 18.271,-5.121 -1.732,6.588 -3.75,13.194 -6.041,19.78 z m 10.398,-39.503 c -6.121,2.982 -12.017,4.615 -17.691,5.163 1.322,-6.58 2.372,-13.187 3.147,-19.801 5.572,-0.497 11.308,-2.055 17.188,-4.915 -0.592,6.487 -1.475,13.003 -2.644,19.553 z"
       id="path8"
       inkscape:connector-curvature="0"
       style="fill:#ffffff" /></g><text
     font-size="49.8566"
     id="text12"
     style="font-size:49.85660172px;font-family:ArialRoundedMTBold;fill:#bf1e60;stroke:#bf1e60;stroke-width:3"
     x="138.66362"
     y="96.496803">PITS</text>
<g
     id="g92"
     transform="translate(-14.00878,-25.969)"><g
       id="g38"><g
         id="g24"><defs
           id="defs15"><path
             id="SVGID_1_"
             d="m 214.125,141.679 24.969,27.987 c 2.185,2.866 4.131,8.156 4.364,11.747 l -1.573,34.775 c 0.219,3.596 1.573,3.824 3.01,0.525 l 9.405,-22.466 c 1.436,-3.306 5.188,-4.578 8.341,-2.842 l 22.771,18.663 c 3.153,1.74 4.317,0.587 2.586,-2.566 l -18.641,-25.541 c -1.74,-3.157 -1.268,-8.004 1.04,-10.77 l 25.427,-24.982 c 2.304,-2.768 1.531,-3.759 -1.727,-2.219 l -19.364,9.182 c -3.248,1.546 -8.833,3.195 -12.405,3.673 l -0.744,0.095 c -3.573,0.477 -9.001,-0.071 -12.058,-1.216 -3.072,-1.141 -8.194,-3.411 -11.414,-5.042 l -22.116,-11.256 c -1.04,-0.524 -1.832,-0.772 -2.356,-0.772 -1.089,0 -0.989,1.087 0.485,3.025"
             inkscape:connector-curvature="0" /></defs><use
           xlink:href="#SVGID_1_"
           overflow="visible"
           id="use17"
           style="overflow:visible;fill:#77cccd"
           x="0"
           y="0"
           width="100%"
           height="100%" /><clipPath
           id="SVGID_2_"><use
             xlink:href="#SVGID_1_"
             overflow="visible"
             id="use19"
             style="overflow:visible"
             x="0"
             y="0"
             width="100%"
             height="100%" /></clipPath><rect
           x="212.55099"
           y="138.65401"
           clip-path="url(#SVGID_2_)"
           width="85.575996"
           height="81.358002"
           id="rect22"
           style="fill:#77cccd" /></g><g
         id="g36"><defs
           id="defs27"><path
             id="SVGID_3_"
             d="m 239.915,141.539 c 0,6.039 4.86,10.928 10.854,10.928 5.996,0 10.855,-4.889 10.855,-10.928 0,-6.033 -4.859,-10.931 -10.855,-10.931 -5.994,0 -10.854,4.898 -10.854,10.931"
             inkscape:connector-curvature="0" /></defs><use
           xlink:href="#SVGID_3_"
           overflow="visible"
           id="use29"
           style="overflow:visible;fill:#77cccd"
           x="0"
           y="0"
           width="100%"
           height="100%" /><clipPath
           id="SVGID_4_"><use
             xlink:href="#SVGID_3_"
             overflow="visible"
             id="use31"
             style="overflow:visible"
             x="0"
             y="0"
             width="100%"
             height="100%" /></clipPath><rect
           x="239.91499"
           y="130.608"
           clip-path="url(#SVGID_4_)"
           width="21.709999"
           height="21.858999"
           id="rect34"
           style="fill:#77cccd" /></g></g><g
       id="g64"
       style="opacity:0.51999996"><g
         id="g50"><defs
           id="defs41"><path
             id="SVGID_5_"
             d="m 235.855,157.093 -11.018,21.326 c -0.896,2.126 -1.26,5.713 -0.83,7.979 l 6.506,21.306 c 0.438,2.261 -0.367,2.618 -1.784,0.807 l -9.41,-12.43 c -1.416,-1.822 -3.944,-2.013 -5.619,-0.43 l -11.141,15.196 c -1.685,1.583 -2.581,1.049 -2.014,-1.184 l 7.489,-18.801 c 0.567,-2.232 -0.491,-5.161 -2.361,-6.506 l -19.741,-11.438 c -1.875,-1.345 -1.551,-2.095 0.716,-1.655 l 13.464,2.609 c 2.261,0.442 5.981,0.572 8.275,0.295 l 0.481,-0.057 c 2.289,-0.272 5.562,-1.474 7.288,-2.671 1.707,-1.197 4.531,-3.42 6.258,-4.941 l 11.924,-10.503 c 0.567,-0.491 1.016,-0.772 1.33,-0.858 0.674,-0.171 0.788,0.52 0.187,1.956"
             inkscape:connector-curvature="0" /></defs><use
           xlink:href="#SVGID_5_"
           overflow="visible"
           id="use43"
           style="overflow:visible;fill:#77cccd"
           x="0"
           y="0"
           width="100%"
           height="100%" /><clipPath
           id="SVGID_6_"><use
             xlink:href="#SVGID_5_"
             overflow="visible"
             id="use45"
             style="overflow:visible"
             x="0"
             y="0"
             width="100%"
             height="100%" /></clipPath><polygon
           clip-path="url(#SVGID_6_)"
           points="196.258,219.041 249.301,205.409 236.342,154.966 183.299,168.598 "
           id="polygon48"
           style="fill:#77cccd" /></g><g
         id="g62"><defs
           id="defs53"><path
             id="SVGID_7_"
             d="m 219.858,161.114 c 0.963,3.744 -1.283,7.55 -5.003,8.504 -3.711,0.954 -7.503,-1.303 -8.466,-5.046 -0.964,-3.739 1.268,-7.551 4.983,-8.504 3.717,-0.959 7.518,1.302 8.486,5.046"
             inkscape:connector-curvature="0" /></defs><use
           xlink:href="#SVGID_7_"
           overflow="visible"
           id="use55"
           style="overflow:visible;fill:#77cccd"
           x="0"
           y="0"
           width="100%"
           height="100%" /><clipPath
           id="SVGID_8_"><use
             xlink:href="#SVGID_7_"
             overflow="visible"
             id="use57"
             style="overflow:visible"
             x="0"
             y="0"
             width="100%"
             height="100%" /></clipPath><polygon
           clip-path="url(#SVGID_8_)"
           points="208.125,171.345 221.595,167.887 218.107,154.337 204.648,157.795 "
           id="polygon60"
           style="fill:#77cccd" /></g></g><g
       id="g90"><g
         id="g76"><defs
           id="defs67"><path
             id="SVGID_9_"
             d="m 212.494,139.865 -24.964,27.988 c -2.185,2.867 -4.141,8.156 -4.364,11.747 l 1.568,34.775 c -0.219,3.597 -1.573,3.825 -3.004,0.524 l -9.41,-22.465 c -1.437,-3.3 -5.195,-4.578 -8.342,-2.843 l -22.77,18.664 c -3.158,1.741 -4.312,0.586 -2.581,-2.566 l 18.644,-25.541 c 1.727,-3.157 1.264,-8.004 -1.044,-10.77 l -25.426,-24.983 c -2.309,-2.767 -1.536,-3.758 1.722,-2.217 l 19.365,9.186 c 3.248,1.54 8.833,3.19 12.406,3.667 l 0.749,0.096 c 3.572,0.478 8.996,-0.071 12.062,-1.211 3.062,-1.145 8.194,-3.415 11.399,-5.046 l 22.121,-11.252 c 1.04,-0.529 1.832,-0.777 2.356,-0.777 1.078,0.001 0.987,1.088 -0.487,3.024"
             inkscape:connector-curvature="0" /></defs><use
           xlink:href="#SVGID_9_"
           overflow="visible"
           id="use69"
           style="overflow:visible;fill:#77cccd"
           x="0"
           y="0"
           width="100%"
           height="100%" /><clipPath
           id="SVGID_10_"><use
             xlink:href="#SVGID_9_"
             overflow="visible"
             id="use71"
             style="overflow:visible"
             x="0"
             y="0"
             width="100%"
             height="100%" /></clipPath><rect
           x="128.492"
           y="136.842"
           clip-path="url(#SVGID_10_)"
           width="85.566002"
           height="81.359001"
           id="rect74"
           style="fill:#77cccd" /></g><g
         id="g88"><defs
           id="defs79"><path
             id="SVGID_11_"
             d="m 186.71,139.732 c 0,6.033 -4.865,10.927 -10.861,10.927 -5.996,0 -10.851,-4.894 -10.851,-10.927 0,-6.039 4.855,-10.932 10.851,-10.932 5.996,0 10.861,4.893 10.861,10.932"
             inkscape:connector-curvature="0" /></defs><use
           xlink:href="#SVGID_11_"
           overflow="visible"
           id="use81"
           style="overflow:visible;fill:#77cccd"
           x="0"
           y="0"
           width="100%"
           height="100%" /><clipPath
           id="SVGID_12_"><use
             xlink:href="#SVGID_11_"
             overflow="visible"
             id="use83"
             style="overflow:visible"
             x="0"
             y="0"
             width="100%"
             height="100%" /></clipPath><rect
           x="164.99899"
           y="128.8"
           clip-path="url(#SVGID_12_)"
           width="21.711"
           height="21.858999"
           id="rect86"
           style="fill:#77cccd" /></g></g></g><g
     id="g96"
     transform="translate(-14.00878,-25.969)"><path
       d="m 212.517,186.769 c -1.799,-1.798 -6.295,-5.096 -4.797,-7.793 1.5,-2.998 4.797,-2.098 4.797,0.898 1.499,-2.996 5.995,-4.496 6.295,0 0.3,3.298 -3.596,4.197 -5.995,6.296"
       id="path94"
       inkscape:connector-curvature="0"
       style="fill:#bf1e60" /></g></svg>