<?xml version="1.0" encoding="UTF-8" standalone="no"?>
<!-- Generator: Adobe Illustrator 16.0.0, SVG Export Plug-In . SVG Version: 6.00 Build 0)  -->

<svg
   xmlns:dc="http://purl.org/dc/elements/1.1/"
   xmlns:cc="http://creativecommons.org/ns#"
   xmlns:rdf="http://www.w3.org/1999/02/22-rdf-syntax-ns#"
   xmlns:svg="http://www.w3.org/2000/svg"
   xmlns="http://www.w3.org/2000/svg"
   xmlns:sodipodi="http://sodipodi.sourceforge.net/DTD/sodipodi-0.dtd"
   xmlns:inkscape="http://www.inkscape.org/namespaces/inkscape"
   version="1.1"
   id="Layer_1"
   x="0px"
   y="0px"
   width="24.824125"
   height="21.627001"
   viewBox="0 0 24.824125 21.627001"
   enable-background="new 0 0 100 100"
   xml:space="preserve"
   sodipodi:docname="banho.svg"
   inkscape:version="0.92.1 r15371"><metadata
     id="metadata61"><rdf:RDF><cc:Work
         rdf:about=""><dc:format>image/svg+xml</dc:format><dc:type
           rdf:resource="http://purl.org/dc/dcmitype/StillImage" /><dc:title></dc:title></cc:Work></rdf:RDF></metadata><defs
     id="defs59" /><sodipodi:namedview
     pagecolor="#ffffff"
     bordercolor="#666666"
     borderopacity="1"
     objecttolerance="10"
     gridtolerance="10"
     guidetolerance="10"
     inkscape:pageopacity="0"
     inkscape:pageshadow="2"
     inkscape:window-width="1680"
     inkscape:window-height="987"
     id="namedview57"
     showgrid="false"
     fit-margin-top="0"
     fit-margin-left="0"
     fit-margin-right="0"
     fit-margin-bottom="0"
     inkscape:zoom="2.36"
     inkscape:cx="12.824125"
     inkscape:cy="10.447"
     inkscape:window-x="-8"
     inkscape:window-y="-8"
     inkscape:window-maximized="1"
     inkscape:current-layer="Layer_1" /><g
     id="g54"
     transform="translate(-37.175875,-38.82)"><g
       id="g52"><g
         id="g50"><path
           d="m 39.341,55.4 c 0.198,0 0.359,-0.161 0.359,-0.36 v -1.081 c 0,-0.199 -0.161,-0.36 -0.359,-0.36 -0.2,0 -0.361,0.161 -0.361,0.36 v 1.081 c -10e-4,0.199 0.161,0.36 0.361,0.36 z"
           id="path2"
           inkscape:connector-curvature="0"
           style="fill:#77cbcd" /><path
           d="m 40.782,55.4 c 0.199,0 0.36,-0.161 0.36,-0.36 v -1.081 c 0,-0.199 -0.161,-0.36 -0.36,-0.36 -0.199,0 -0.36,0.161 -0.36,0.36 v 1.081 c 0,0.199 0.161,0.36 0.36,0.36 z"
           id="path4"
           inkscape:connector-curvature="0"
           style="fill:#77cbcd" /><path
           d="m 42.224,55.4 c 0.199,0 0.36,-0.161 0.36,-0.36 v -1.081 c 0,-0.199 -0.161,-0.36 -0.36,-0.36 -0.199,0 -0.36,0.161 -0.36,0.36 v 1.081 c -10e-4,0.199 0.16,0.36 0.36,0.36 z"
           id="path6"
           inkscape:connector-curvature="0"
           style="fill:#77cbcd" /><path
           d="m 43.665,55.4 c 0.2,0 0.361,-0.161 0.361,-0.36 v -1.081 c 0,-0.199 -0.161,-0.36 -0.361,-0.36 -0.199,0 -0.36,0.161 -0.36,0.36 v 1.081 c 0,0.199 0.161,0.36 0.36,0.36 z"
           id="path8"
           inkscape:connector-curvature="0"
           style="fill:#77cbcd" /><path
           d="m 45.107,55.4 c 0.198,0 0.36,-0.161 0.36,-0.36 v -1.081 c 0,-0.199 -0.162,-0.36 -0.36,-0.36 -0.199,0 -0.36,0.161 -0.36,0.36 v 1.081 c 0,0.199 0.161,0.36 0.36,0.36 z"
           id="path10"
           inkscape:connector-curvature="0"
           style="fill:#77cbcd" /><path
           d="m 46.549,55.4 c 0.199,0 0.36,-0.161 0.36,-0.36 v -1.081 c 0,-0.199 -0.161,-0.36 -0.36,-0.36 -0.198,0 -0.359,0.161 -0.359,0.36 v 1.081 c -10e-4,0.199 0.161,0.36 0.359,0.36 z"
           id="path12"
           inkscape:connector-curvature="0"
           style="fill:#77cbcd" /><path
           d="m 38.979,56.482 c 0,-0.199 -0.161,-0.361 -0.36,-0.361 -0.199,0 -0.36,0.162 -0.36,0.361 v 1.081 c 0,0.199 0.161,0.36 0.36,0.36 0.199,0 0.36,-0.161 0.36,-0.36 z"
           id="path14"
           inkscape:connector-curvature="0"
           style="fill:#77cbcd" /><path
           d="m 40.422,56.482 c 0,-0.199 -0.162,-0.361 -0.361,-0.361 -0.198,0 -0.36,0.162 -0.36,0.361 v 1.081 c 0,0.199 0.162,0.36 0.36,0.36 0.199,0 0.361,-0.161 0.361,-0.36 z"
           id="path16"
           inkscape:connector-curvature="0"
           style="fill:#77cbcd" /><path
           d="m 41.863,56.482 c 0,-0.199 -0.161,-0.361 -0.36,-0.361 -0.199,0 -0.36,0.162 -0.36,0.361 v 1.081 c 0,0.199 0.161,0.36 0.36,0.36 0.199,0 0.36,-0.161 0.36,-0.36 z"
           id="path18"
           inkscape:connector-curvature="0"
           style="fill:#77cbcd" /><path
           d="m 43.305,56.482 c 0,-0.199 -0.161,-0.361 -0.36,-0.361 -0.198,0 -0.36,0.162 -0.36,0.361 v 1.081 c 0,0.199 0.162,0.36 0.36,0.36 0.199,0 0.36,-0.161 0.36,-0.36 z"
           id="path20"
           inkscape:connector-curvature="0"
           style="fill:#77cbcd" /><path
           d="m 44.747,56.482 c 0,-0.199 -0.161,-0.361 -0.36,-0.361 -0.199,0 -0.36,0.162 -0.36,0.361 v 1.081 c 0,0.199 0.161,0.36 0.36,0.36 0.199,0 0.36,-0.161 0.36,-0.36 z"
           id="path22"
           inkscape:connector-curvature="0"
           style="fill:#77cbcd" /><path
           d="m 46.189,56.482 c 0,-0.199 -0.162,-0.361 -0.361,-0.361 -0.199,0 -0.36,0.162 -0.36,0.361 v 1.081 c 0,0.199 0.161,0.36 0.36,0.36 0.199,0 0.361,-0.161 0.361,-0.36 z"
           id="path24"
           inkscape:connector-curvature="0"
           style="fill:#77cbcd" /><path
           d="m 47.63,56.482 c 0,-0.199 -0.161,-0.361 -0.359,-0.361 -0.2,0 -0.361,0.162 -0.361,0.361 v 1.081 c 0,0.199 0.161,0.36 0.361,0.36 0.198,0 0.359,-0.161 0.359,-0.36 z"
           id="path26"
           inkscape:connector-curvature="0"
           style="fill:#77cbcd" /><path
           d="m 37.898,58.645 c -0.199,0 -0.36,0.161 -0.36,0.36 v 1.081 c 0,0.2 0.161,0.361 0.36,0.361 0.199,0 0.36,-0.161 0.36,-0.361 v -1.081 c 10e-4,-0.198 -0.16,-0.36 -0.36,-0.36 z"
           id="path28"
           inkscape:connector-curvature="0"
           style="fill:#77cbcd" /><path
           d="m 39.341,58.645 c -0.2,0 -0.361,0.161 -0.361,0.36 v 1.081 c 0,0.2 0.161,0.361 0.361,0.361 0.198,0 0.359,-0.161 0.359,-0.361 v -1.081 c 0,-0.198 -0.161,-0.36 -0.359,-0.36 z"
           id="path30"
           inkscape:connector-curvature="0"
           style="fill:#77cbcd" /><path
           d="m 40.782,58.645 c -0.199,0 -0.36,0.161 -0.36,0.36 v 1.081 c 0,0.2 0.161,0.361 0.36,0.361 0.199,0 0.36,-0.161 0.36,-0.361 v -1.081 c 10e-4,-0.198 -0.161,-0.36 -0.36,-0.36 z"
           id="path32"
           inkscape:connector-curvature="0"
           style="fill:#77cbcd" /><path
           d="m 42.224,58.645 c -0.199,0 -0.36,0.161 -0.36,0.36 v 1.081 c 0,0.2 0.161,0.361 0.36,0.361 0.199,0 0.36,-0.161 0.36,-0.361 v -1.081 c 0,-0.198 -0.161,-0.36 -0.36,-0.36 z"
           id="path34"
           inkscape:connector-curvature="0"
           style="fill:#77cbcd" /><path
           d="m 43.665,58.645 c -0.199,0 -0.36,0.161 -0.36,0.36 v 1.081 c 0,0.2 0.161,0.361 0.36,0.361 0.2,0 0.361,-0.161 0.361,-0.361 v -1.081 c 0,-0.198 -0.161,-0.36 -0.361,-0.36 z"
           id="path36"
           inkscape:connector-curvature="0"
           style="fill:#77cbcd" /><path
           d="m 45.107,58.645 c -0.199,0 -0.36,0.161 -0.36,0.36 v 1.081 c 0,0.2 0.161,0.361 0.36,0.361 0.198,0 0.36,-0.161 0.36,-0.361 v -1.081 c 0.001,-0.198 -0.161,-0.36 -0.36,-0.36 z"
           id="path38"
           inkscape:connector-curvature="0"
           style="fill:#77cbcd" /><path
           d="m 46.549,58.645 c -0.198,0 -0.359,0.161 -0.359,0.36 v 1.081 c 0,0.2 0.161,0.361 0.359,0.361 0.199,0 0.36,-0.161 0.36,-0.361 v -1.081 c 0,-0.198 -0.161,-0.36 -0.36,-0.36 z"
           id="path40"
           inkscape:connector-curvature="0"
           style="fill:#77cbcd" /><path
           d="m 47.991,58.645 c -0.2,0 -0.361,0.161 -0.361,0.36 v 1.081 c 0,0.2 0.161,0.361 0.361,0.361 0.198,0 0.36,-0.161 0.36,-0.361 v -1.081 c 10e-4,-0.198 -0.162,-0.36 -0.36,-0.36 z"
           id="path42"
           inkscape:connector-curvature="0"
           style="fill:#77cbcd" /><path
           d="M 47.991,50.715 H 37.898 c -0.441,0.177 -0.729,0.606 -0.722,1.082 0,0.597 0.484,1.081 1.082,1.081 h 9.371 c 0.598,0 1.082,-0.484 1.082,-1.081 0.008,-0.476 -0.279,-0.905 -0.72,-1.082 z"
           id="path44"
           inkscape:connector-curvature="0"
           style="fill:#77cbcd" /><path
           d="m 50.694,41.343 h -6.668 c -1.195,0 -2.163,0.969 -2.163,2.163 v 1.442 c -0.447,0.335 -0.714,0.86 -0.721,1.42 -1.521,0.566 -2.675,1.835 -3.097,3.402 -0.023,0.097 0.035,0.194 0.131,0.218 0.016,0.004 0.031,0.006 0.046,0.006 h 9.44 c 0.1,0 0.181,-0.079 0.182,-0.179 0,-0.016 -10e-4,-0.03 -0.006,-0.045 -0.42,-1.566 -1.572,-2.835 -3.092,-3.402 -0.007,-0.56 -0.273,-1.085 -0.721,-1.42 v -1.082 c 0,-0.199 0.161,-0.36 0.36,-0.36 h 6.308 c 0.1,0 0.181,-0.081 0.181,-0.181 v -1.802 c 10e-4,-0.099 -0.08,-0.18 -0.18,-0.18 z"
           id="path46"
           inkscape:connector-curvature="0"
           style="fill:#77cbcd" /><path
           d="m 61.64,38.82 c -0.995,0 -10.044,0.807 -10.044,1.802 v 3.604 c 0,0.996 9.049,1.803 10.044,1.803 0.199,0 0.36,-0.162 0.36,-0.36 v -6.488 c 0,-0.2 -0.161,-0.361 -0.36,-0.361 z"
           id="path48"
           inkscape:connector-curvature="0"
           style="fill:#77cbcd" /></g></g></g></svg>