<?xml version="1.0" encoding="UTF-8" standalone="no"?>
<!-- Generator: Adobe Illustrator 16.0.0, SVG Export Plug-In . SVG Version: 6.00 Build 0)  -->

<svg
   xmlns:dc="http://purl.org/dc/elements/1.1/"
   xmlns:cc="http://creativecommons.org/ns#"
   xmlns:rdf="http://www.w3.org/1999/02/22-rdf-syntax-ns#"
   xmlns:svg="http://www.w3.org/2000/svg"
   xmlns="http://www.w3.org/2000/svg"
   xmlns:sodipodi="http://sodipodi.sourceforge.net/DTD/sodipodi-0.dtd"
   xmlns:inkscape="http://www.inkscape.org/namespaces/inkscape"
   version="1.1"
   id="Capa_1"
   x="0px"
   y="0px"
   width="20.406"
   height="20.406"
   viewBox="140.36 140.361 20.406 20.406"
   enable-background="new 140.36 140.361 100 100"
   xml:space="preserve"
   sodipodi:docname="comida.svg"
   inkscape:version="0.92.1 r15371"><metadata
     id="metadata17"><rdf:RDF><cc:Work
         rdf:about=""><dc:format>image/svg+xml</dc:format><dc:type
           rdf:resource="http://purl.org/dc/dcmitype/StillImage" /><dc:title></dc:title></cc:Work></rdf:RDF></metadata><defs
     id="defs15" /><sodipodi:namedview
     pagecolor="#ffffff"
     bordercolor="#666666"
     borderopacity="1"
     objecttolerance="10"
     gridtolerance="10"
     guidetolerance="10"
     inkscape:pageopacity="0"
     inkscape:pageshadow="2"
     inkscape:window-width="1680"
     inkscape:window-height="987"
     id="namedview13"
     showgrid="false"
     fit-margin-top="0"
     fit-margin-left="0"
     fit-margin-right="0"
     fit-margin-bottom="0"
     inkscape:zoom="2.36"
     inkscape:cx="10.507"
     inkscape:cy="9.97"
     inkscape:window-x="-8"
     inkscape:window-y="-8"
     inkscape:window-maximized="1"
     inkscape:current-layer="Capa_1" /><g
     id="g10"
     transform="translate(-39.493,-39.564)"><g
       id="g8"><path
         d="m 190.057,181.523 c -4.753,0 -8.605,3.852 -8.605,8.605 0,3.424 2.006,6.372 4.901,7.757 l 0.27,-5.204 c 0,0 -0.507,-0.166 -0.618,-0.221 -1.075,-0.473 -1.855,-1.866 -1.855,-3.675 0,-1.974 1.53,-3.673 3.01,-3.688 0.002,0 0.002,0 0.003,0 0,0 10e-4,0 0.002,0 1.48,0.014 3.011,1.714 3.011,3.688 0,1.809 -0.782,3.203 -1.854,3.675 -0.009,0.004 -0.623,0.228 -0.623,0.228 l 0.301,5.787 c 0.66,0.162 1.346,0.258 2.056,0.258 0.958,0 1.875,-0.164 2.736,-0.452 l 0.266,-5.156 c -0.701,-0.154 -1.301,-0.603 -1.677,-1.163 -0.465,-0.696 0.358,-6.864 0.358,-6.864 h 0.535 v 5.787 h 0.532 v -5.787 h 0.581 v 5.789 h 0.529 v -5.789 h 0.604 v 5.789 h 0.531 v -5.789 h 0.412 c 0,0 0.822,6.167 0.357,6.865 -0.373,0.555 -0.966,1 -1.66,1.158 -0.012,0.006 -0.023,0.01 -0.023,0.01 l 0.232,4.436 c 2.562,-1.49 4.29,-4.259 4.29,-7.438 0.002,-4.754 -3.849,-8.606 -8.602,-8.606 z"
         id="path2"
         inkscape:connector-curvature="0"
         style="fill:#77cbcd" /><path
         d="m 185.409,187.91 c 0.031,-0.125 0.072,-0.245 0.074,-0.247 0.013,-0.047 -0.012,-0.096 -0.062,-0.125 -0.049,-0.026 -0.108,-0.013 -0.135,0.029 0,0 -0.059,0.094 -0.144,0.232 -0.07,0.119 -0.172,0.31 -0.243,0.547 -0.061,0.208 -0.133,0.484 -0.166,0.793 -0.014,0.163 -0.018,0.31 -0.012,0.46 0.012,0.172 0.038,0.319 0.088,0.488 0.169,0.48 0.299,0.946 0.769,1.405 0.149,0.152 0.301,0.256 0.411,0.333 l 0.039,0.027 c 0.024,0.016 0.046,0.03 0.069,0.043 0.093,0.048 0.155,0.065 0.166,0.068 0.046,0.013 0.093,-0.01 0.113,-0.047 0.019,-0.04 0.005,-0.089 -0.033,-0.12 0,0 -0.054,-0.047 -0.123,-0.133 -0.047,-0.054 -0.098,-0.131 -0.157,-0.217 -0.042,-0.061 -0.092,-0.131 -0.138,-0.197 -0.229,-0.35 -0.36,-0.837 -0.543,-1.336 -0.036,-0.109 -0.065,-0.249 -0.076,-0.368 -0.015,-0.138 -0.021,-0.271 -0.021,-0.394 -0.005,-0.286 0.008,-0.531 0.033,-0.73 0.027,-0.223 0.05,-0.39 0.091,-0.511 z"
         id="path4"
         inkscape:connector-curvature="0"
         style="fill:#77cbcd" /><path
         d="m 190.057,179.925 c -5.625,0 -10.204,4.577 -10.204,10.203 0,5.624 4.578,10.203 10.204,10.203 5.626,0 10.202,-4.579 10.202,-10.203 0,-5.626 -4.576,-10.203 -10.202,-10.203 z m 0,19.646 c -5.207,0 -9.443,-4.236 -9.443,-9.442 0,-5.207 4.236,-9.443 9.443,-9.443 5.206,0 9.442,4.236 9.442,9.443 0,5.205 -4.236,9.442 -9.442,9.442 z"
         id="path6"
         inkscape:connector-curvature="0"
         style="fill:#77cbcd" /></g></g></svg>