<?xml version="1.0" encoding="UTF-8" standalone="no"?>
<!-- Generator: Adobe Illustrator 16.0.0, SVG Export Plug-In . SVG Version: 6.00 Build 0)  -->

<svg
   xmlns:dc="http://purl.org/dc/elements/1.1/"
   xmlns:cc="http://creativecommons.org/ns#"
   xmlns:rdf="http://www.w3.org/1999/02/22-rdf-syntax-ns#"
   xmlns:svg="http://www.w3.org/2000/svg"
   xmlns="http://www.w3.org/2000/svg"
   xmlns:sodipodi="http://sodipodi.sourceforge.net/DTD/sodipodi-0.dtd"
   xmlns:inkscape="http://www.inkscape.org/namespaces/inkscape"
   version="1.1"
   id="Layer_1"
   x="0px"
   y="0px"
   width="12.539772"
   height="15.125"
   viewBox="0 0 12.539772 15.125"
   enable-background="new 0 0 100 100"
   xml:space="preserve"
   sodipodi:docname="conti_pb.svg"
   inkscape:version="0.92.1 r15371"><metadata
     id="metadata21"><rdf:RDF><cc:Work
         rdf:about=""><dc:format>image/svg+xml</dc:format><dc:type
           rdf:resource="http://purl.org/dc/dcmitype/StillImage" /><dc:title></dc:title></cc:Work></rdf:RDF></metadata><defs
     id="defs19" /><sodipodi:namedview
     pagecolor="#ffffff"
     bordercolor="#666666"
     borderopacity="1"
     objecttolerance="10"
     gridtolerance="10"
     guidetolerance="10"
     inkscape:pageopacity="0"
     inkscape:pageshadow="2"
     inkscape:window-width="1680"
     inkscape:window-height="987"
     id="namedview17"
     showgrid="false"
     fit-margin-top="0"
     fit-margin-left="0"
     fit-margin-right="0"
     fit-margin-bottom="0"
     inkscape:zoom="2.36"
     inkscape:cx="6.3747248"
     inkscape:cy="7.585"
     inkscape:window-x="-8"
     inkscape:window-y="-8"
     inkscape:window-maximized="1"
     inkscape:current-layer="Layer_1" /><g
     id="g14"
     transform="translate(-43.625275,-42.46)"><g
       id="g12"><g
         id="g10"><g
           id="g8"><path
             d="m 50.938,48.974 c -0.004,-0.01 -0.008,-0.02 -0.012,-0.028 l -0.592,-1.139 c -0.064,-0.125 -0.217,-0.174 -0.342,-0.109 -0.125,0.065 -0.174,0.219 -0.109,0.344 l 0.584,1.124 c 0.311,0.842 0.276,1.755 -0.097,2.571 -0.374,0.821 -1.047,1.448 -1.893,1.764 -0.344,0.129 -0.704,0.2 -1.071,0.212 -0.367,-0.012 -0.728,-0.083 -1.072,-0.212 -0.846,-0.315 -1.518,-0.942 -1.893,-1.764 -0.372,-0.816 -0.406,-1.729 -0.096,-2.571 l 3.061,-5.898 2.074,3.997 c 0.064,0.124 0.217,0.173 0.342,0.108 0.125,-0.065 0.174,-0.219 0.109,-0.343 l -2.3,-4.433 C 47.587,42.513 47.5,42.46 47.405,42.46 c -0.096,0 -0.182,0.053 -0.226,0.137 l -3.294,6.349 c -0.004,0.009 -0.009,0.019 -0.012,0.028 -0.363,0.973 -0.326,2.029 0.104,2.974 0.431,0.945 1.204,1.666 2.177,2.029 0.398,0.148 0.816,0.23 1.242,0.244 0.002,0 0.006,0 0.008,0 0.002,0 0.006,0 0.008,0 0.426,-0.014 0.843,-0.096 1.241,-0.244 0.974,-0.363 1.747,-1.084 2.178,-2.029 0.433,-0.945 0.47,-2.002 0.107,-2.974 z"
             id="path2"
             inkscape:connector-curvature="0"
             style="fill:#6d6e70" /><path
             d="m 56.035,50.677 c -0.003,-0.01 -0.008,-0.02 -0.012,-0.028 l -0.58,-1.116 c -0.064,-0.125 -0.217,-0.174 -0.342,-0.109 -0.125,0.065 -0.174,0.219 -0.109,0.343 l 0.572,1.103 c 0.287,0.791 -0.118,1.67 -0.908,1.965 -0.154,0.058 -0.317,0.09 -0.482,0.096 -0.166,-0.006 -0.328,-0.038 -0.483,-0.096 -0.385,-0.144 -0.69,-0.429 -0.861,-0.803 -0.169,-0.369 -0.185,-0.781 -0.046,-1.162 l 1.391,-2.681 0.461,0.888 c 0.064,0.125 0.218,0.174 0.342,0.109 0.125,-0.064 0.174,-0.219 0.109,-0.343 L 54.4,47.52 c -0.044,-0.084 -0.131,-0.138 -0.226,-0.138 -0.096,0 -0.183,0.053 -0.227,0.138 l -1.623,3.13 c -0.006,0.009 -0.01,0.019 -0.013,0.028 -0.191,0.512 -0.172,1.067 0.056,1.564 0.227,0.498 0.633,0.877 1.145,1.068 0.211,0.078 0.43,0.121 0.654,0.128 0.002,0 0.005,0 0.008,0 0.002,0 0.005,0 0.008,0 0.224,-0.007 0.443,-0.05 0.652,-0.128 1.058,-0.396 1.597,-1.577 1.201,-2.633 z"
             id="path4"
             inkscape:connector-curvature="0"
             style="fill:#6d6e70" /><path
             d="m 52.79,55.603 -1.082,-2.086 c -0.044,-0.084 -0.131,-0.137 -0.226,-0.137 -0.096,0 -0.182,0.053 -0.227,0.137 l -1.082,2.086 c -0.004,0.009 -0.008,0.019 -0.012,0.028 -0.279,0.748 0.102,1.584 0.85,1.863 0.148,0.056 0.305,0.086 0.463,0.091 0.002,0 0.005,0 0.008,0 0.002,0 0.005,0 0.008,0 0.158,-0.005 0.313,-0.035 0.463,-0.091 0.748,-0.279 1.129,-1.115 0.85,-1.863 -0.004,-0.01 -0.008,-0.02 -0.013,-0.028 z m -1.016,1.415 c -0.094,0.035 -0.192,0.055 -0.292,0.059 -0.101,-0.004 -0.199,-0.023 -0.293,-0.059 -0.48,-0.18 -0.729,-0.714 -0.557,-1.195 l 0.85,-1.637 0.849,1.637 c 0.171,0.481 -0.075,1.015 -0.557,1.195 z"
             id="path6"
             inkscape:connector-curvature="0"
             style="fill:#6d6e70" /></g></g></g></g></svg>