<?xml version="1.0" encoding="UTF-8" standalone="no"?>
<!-- Generator: Adobe Illustrator 16.0.0, SVG Export Plug-In . SVG Version: 6.00 Build 0)  -->

<svg
   xmlns:dc="http://purl.org/dc/elements/1.1/"
   xmlns:cc="http://creativecommons.org/ns#"
   xmlns:rdf="http://www.w3.org/1999/02/22-rdf-syntax-ns#"
   xmlns:svg="http://www.w3.org/2000/svg"
   xmlns="http://www.w3.org/2000/svg"
   xmlns:sodipodi="http://sodipodi.sourceforge.net/DTD/sodipodi-0.dtd"
   xmlns:inkscape="http://www.inkscape.org/namespaces/inkscape"
   version="1.1"
   id="Layer_1"
   x="0px"
   y="0px"
   width="14.976977"
   height="18.594204"
   viewBox="0 0 14.976977 18.594204"
   enable-background="new 0 0 100 100"
   xml:space="preserve"
   sodipodi:docname="higiene.svg"
   inkscape:version="0.92.1 r15371"><metadata
     id="metadata15"><rdf:RDF><cc:Work
         rdf:about=""><dc:format>image/svg+xml</dc:format><dc:type
           rdf:resource="http://purl.org/dc/dcmitype/StillImage" /><dc:title></dc:title></cc:Work></rdf:RDF></metadata><defs
     id="defs13" /><sodipodi:namedview
     pagecolor="#ffffff"
     bordercolor="#666666"
     borderopacity="1"
     objecttolerance="10"
     gridtolerance="10"
     guidetolerance="10"
     inkscape:pageopacity="0"
     inkscape:pageshadow="2"
     inkscape:window-width="1680"
     inkscape:window-height="987"
     id="namedview11"
     showgrid="false"
     fit-margin-top="0"
     fit-margin-left="0"
     fit-margin-right="0"
     fit-margin-bottom="0"
     inkscape:zoom="2.36"
     inkscape:cx="8.3782977"
     inkscape:cy="9.096"
     inkscape:window-x="-8"
     inkscape:window-y="-8"
     inkscape:window-maximized="1"
     inkscape:current-layer="Layer_1" /><g
     id="g8"
     transform="translate(-41.621702,-40.501797)"><path
       d="m 51.449,49.828 -0.288,4.895 c -0.01,0.171 0.12,0.317 0.293,0.327 0.005,0.002 0.013,0.002 0.018,0.002 0.162,0 0.3,-0.127 0.31,-0.292 l 0.287,-4.895 c 0.011,-0.172 -0.119,-0.318 -0.292,-0.329 -0.171,-0.01 -0.318,0.121 -0.328,0.292 z"
       id="path2"
       inkscape:connector-curvature="0"
       style="fill:#77cbcd" /><path
       d="m 45.393,41.35 c 0.01,0 0.017,0 0.027,-0.001 l 1.366,-0.117 0.021,0.248 -1.366,0.116 c -0.171,0.016 -0.297,0.165 -0.282,0.335 0.014,0.163 0.149,0.284 0.308,0.284 0.011,0 0.018,-0.001 0.027,-0.001 l 1.366,-0.117 0.022,0.247 -1.367,0.116 c -0.172,0.015 -0.297,0.165 -0.282,0.336 0.014,0.162 0.148,0.283 0.308,0.283 0.01,0 0.019,0 0.027,-10e-4 l 1.366,-0.117 0.022,0.248 -1.366,0.116 c -0.173,0.016 -0.299,0.165 -0.283,0.335 0.013,0.162 0.148,0.283 0.308,0.283 0.01,0 0.019,0 0.026,0 l 1.367,-0.116 0.021,0.246 -1.366,0.116 c -0.171,0.016 -0.298,0.165 -0.283,0.335 0.015,0.163 0.15,0.284 0.308,0.284 0.01,0 0.019,0 0.027,-10e-4 l 1.366,-0.117 0.022,0.248 -1.366,0.117 c -0.171,0.013 -0.298,0.163 -0.283,0.334 0.015,0.162 0.15,0.283 0.308,0.283 0.01,0 0.019,0 0.027,-10e-4 l 1.366,-0.117 0.235,2.74 h -0.679 c -0.085,0 -0.167,0.035 -0.226,0.098 -0.058,0.062 -0.088,0.146 -0.083,0.23 l 0.328,5.595 c 0.01,0.171 0.158,0.301 0.328,0.291 0.171,-0.01 0.301,-0.156 0.291,-0.328 L 47.04,48.914 h 5.54 l -0.398,6.781 c -0.01,0.171 0.121,0.317 0.292,0.327 0.005,0 0.013,0 0.018,0 0.164,0 0.3,-0.126 0.311,-0.291 l 0.417,-7.109 c 0.005,-0.085 -0.026,-0.169 -0.084,-0.23 -0.058,-0.062 -0.141,-0.098 -0.226,-0.098 h -0.28 l 0.146,-1.712 1.368,0.117 c 0.007,0 0.017,0.001 0.024,0.001 0.16,0 0.295,-0.123 0.31,-0.284 0.016,-0.17 -0.113,-0.32 -0.282,-0.335 l -1.367,-0.117 0.021,-0.247 1.367,0.117 c 0.008,10e-4 0.018,10e-4 0.024,10e-4 0.16,0 0.296,-0.122 0.311,-0.283 0.015,-0.171 -0.113,-0.321 -0.283,-0.336 l -1.365,-0.116 0.021,-0.246 1.368,0.117 c 0.007,0 0.017,0.001 0.027,0.001 0.157,0 0.293,-0.122 0.308,-0.284 0.015,-0.17 -0.113,-0.32 -0.283,-0.335 L 52.979,44.236 53,43.988 l 1.366,0.116 c 0.008,0.002 0.018,0.002 0.027,0.002 0.158,0 0.293,-0.122 0.308,-0.283 0.015,-0.171 -0.113,-0.321 -0.283,-0.335 l -1.366,-0.117 0.022,-0.247 1.366,0.117 c 0.008,10e-4 0.018,10e-4 0.027,10e-4 0.157,0 0.293,-0.122 0.308,-0.283 0.015,-0.171 -0.113,-0.321 -0.283,-0.336 l -1.366,-0.117 0.021,-0.246 1.367,0.117 c 0.007,0 0.017,10e-4 0.026,10e-4 0.158,0 0.293,-0.123 0.309,-0.284 0.015,-0.17 -0.113,-0.32 -0.283,-0.335 l -2.654,-0.228 c -0.173,-0.014 -0.321,0.111 -0.336,0.282 l -0.556,6.481 h -2.021 l -0.643,-7.509 c -0.014,-0.17 -0.163,-0.297 -0.335,-0.282 l -2.655,0.228 c -0.171,0.014 -0.296,0.164 -0.281,0.335 0.014,0.162 0.148,0.284 0.308,0.284 z m 6.775,0.826 0.362,0.031 -0.521,6.088 h -0.365 z m -4.402,-1.028 0.613,7.146 h -0.367 l -0.607,-7.116 z"
       id="path4"
       inkscape:connector-curvature="0"
       style="fill:#77cbcd" /><path
       d="m 55.903,57.244 -10.998,-2.98 c -0.087,-0.023 -0.178,-0.009 -0.253,0.042 -0.075,0.049 -0.124,0.128 -0.135,0.217 l -0.112,0.83 -2.174,-0.293 c -0.17,-0.021 -0.325,0.097 -0.349,0.267 l -0.258,1.897 c -0.01,0.082 0.013,0.164 0.062,0.229 0.05,0.066 0.124,0.108 0.205,0.119 l 2.174,0.294 -0.113,0.833 c -0.013,0.088 0.015,0.177 0.074,0.245 0.059,0.067 0.143,0.105 0.232,0.105 l 11.394,0.047 c 0,0 0.002,0 0.005,0 0.468,0 0.871,-0.351 0.933,-0.816 0.064,-0.468 -0.232,-0.913 -0.687,-1.036 z M 42.281,57 l 0.174,-1.284 1.866,0.253 -0.174,1.283 z m 13.696,1.196 c -0.021,0.16 -0.16,0.279 -0.319,0.279 -0.003,0 -0.003,0 -0.003,0 l -11.04,-0.044 0.471,-3.478 10.655,2.888 c 0.155,0.043 0.255,0.195 0.236,0.355 z"
       id="path6"
       inkscape:connector-curvature="0"
       style="fill:#77cbcd" /></g></svg>