<?xml version="1.0" encoding="utf-8"?>
<!-- Generator: Adobe Illustrator 16.0.0, SVG Export Plug-In . SVG Version: 6.00 Build 0)  -->
<!DOCTYPE svg PUBLIC "-//W3C//DTD SVG 1.1//EN" "http://www.w3.org/Graphics/SVG/1.1/DTD/svg11.dtd">
<svg version="1.1" id="Layer_1" xmlns="http://www.w3.org/2000/svg" xmlns:xlink="http://www.w3.org/1999/xlink" x="0px" y="0px"
	 width="100px" height="100px" viewBox="0 0 100 100" enable-background="new 0 0 100 100" xml:space="preserve">
<rect x="-4" y="29" fill="#77CBCD" width="108" height="42"/>
<g>
	<path fill="#FFFFFF" d="M60.374,44.681h-2.853v-3.765c0-2.269-1.839-4.108-4.107-4.108h-6.846c-2.269,0-4.107,1.839-4.107,4.108
		v3.765h-3.766c-2.268,0-4.107,1.839-4.107,4.107v6.846c0,2.269,1.84,4.108,4.107,4.108h3.766v2.852
		c0,2.269,1.838,4.107,4.107,4.107h6.846c2.269,0,4.107-1.839,4.107-4.107v-2.852h2.853c2.269,0,4.107-1.84,4.107-4.108v-6.846
		C64.481,46.52,62.643,44.681,60.374,44.681z"/>
	<g opacity="0.8">
		<path fill="#FFFFFF" d="M26.564,41.726c-0.014,3.936,0.889,8.053,2.651,12.091c0.04,0.017,0.08,0.033,0.12,0.048c0,0,0,0,0,0.002
			c7.328,2.725,10.028-7.262,17.42-4.164c0.04,0.018,0.082,0.037,0.122,0.057c-1.763-4.044-2.666-8.162-2.651-12.093
			c-0.035-0.018-0.068-0.036-0.102-0.053c-6.251-3.403-11.272,7.202-17.461,4.16l0,0C26.631,41.758,26.598,41.743,26.564,41.726z
			 M30.657,42.204c0.034,0.814,0.101,1.623,0.2,2.425c-0.645,0.167-1.306,0.238-1.984,0.18c-0.093-0.793-0.152-1.589-0.179-2.386
			C29.359,42.467,30.013,42.383,30.657,42.204z M31.272,47.055c-0.165-0.797-0.297-1.601-0.397-2.41
			c0.634-0.166,1.252-0.422,1.864-0.737c0.096,0.818,0.224,1.626,0.384,2.426C32.52,46.643,31.904,46.895,31.272,47.055z
			 M34.965,45.233c-0.149-0.804-0.267-1.619-0.353-2.443c0.601-0.394,1.198-0.808,1.8-1.204c0.075,0.828,0.18,1.647,0.317,2.457
			C36.14,44.435,35.554,44.844,34.965,45.233z M38.579,42.912c-0.126-0.811-0.22-1.63-0.281-2.457
			c0.614-0.319,1.236-0.583,1.87-0.754c0.054,0.816,0.141,1.631,0.26,2.439C39.798,42.321,39.184,42.59,38.579,42.912z
			 M40.447,42.155c0.642-0.182,1.299-0.271,1.978-0.232c0.121,0.787,0.275,1.571,0.458,2.351c-0.689-0.034-1.349,0.06-1.987,0.244
			C40.715,43.737,40.565,42.95,40.447,42.155z M34.434,40.3c0.022,0.834,0.076,1.661,0.161,2.479
			c-0.61,0.401-1.223,0.78-1.844,1.101c-0.096-0.811-0.158-1.629-0.19-2.456C33.189,41.094,33.812,40.707,34.434,40.3z
			 M38.194,37.969c-0.002,0.829,0.025,1.655,0.086,2.474c-0.625,0.327-1.241,0.71-1.853,1.112c-0.073-0.822-0.114-1.652-0.124-2.488
			C36.929,38.666,37.559,38.286,38.194,37.969z M42.092,37.099c-0.014,0.789,0.007,1.582,0.061,2.377
			c-0.671-0.05-1.327,0.027-1.971,0.201c-0.053-0.81-0.073-1.624-0.061-2.436C40.771,37.085,41.427,37.028,42.092,37.099z
			 M44.542,42.433c-0.73-0.326-1.427-0.49-2.103-0.53c-0.122-0.8-0.212-1.603-0.268-2.405c0.667,0.052,1.351,0.23,2.058,0.563
			C44.298,40.847,44.403,41.639,44.542,42.433z M45.781,47.202c-0.786-0.336-1.518-0.503-2.213-0.545
			c-0.254-0.781-0.476-1.569-0.664-2.362c0.684,0.036,1.398,0.197,2.156,0.522C45.267,45.611,45.507,46.406,45.781,47.202z
			 M42.381,49.176c-0.307-0.748-0.584-1.504-0.83-2.271c0.639-0.18,1.303-0.269,2.005-0.23c0.25,0.775,0.534,1.545,0.85,2.31
			C43.692,48.931,43.022,49.009,42.381,49.176z M37.938,48.737c0.576-0.389,1.158-0.762,1.757-1.083
			c-0.251-0.765-0.471-1.544-0.66-2.333c-0.605,0.328-1.198,0.707-1.787,1.102c-0.197-0.778-0.365-1.57-0.501-2.371
			c0.6-0.4,1.204-0.783,1.819-1.112c0.125,0.804,0.281,1.598,0.469,2.381c0.601-0.325,1.214-0.596,1.849-0.78
			c0.184,0.792,0.399,1.576,0.646,2.35c-0.634,0.179-1.242,0.447-1.835,0.764c0.25,0.766,0.533,1.518,0.844,2.256
			c-0.591,0.31-1.164,0.672-1.728,1.053C38.489,50.237,38.199,49.495,37.938,48.737z M34.472,50.988
			c0.595-0.315,1.172-0.684,1.747-1.07l0,0c-0.272-0.751-0.515-1.518-0.726-2.299c0,0.001,0,0.001,0,0.001
			c-0.586,0.391-1.176,0.76-1.78,1.073c-0.221-0.771-0.411-1.555-0.57-2.346c0.613-0.316,1.215-0.689,1.813-1.083
			c0.148,0.797,0.328,1.583,0.538,2.355c0.586-0.39,1.167-0.8,1.756-1.195c0.199,0.785,0.429,1.557,0.689,2.314
			c-0.576,0.39-1.145,0.795-1.72,1.181c0.272,0.751,0.576,1.488,0.908,2.207c-0.562,0.383-1.127,0.751-1.712,1.07
			C35.07,52.477,34.755,51.738,34.472,50.988z M30.61,51.949c0.708,0.046,1.377-0.037,2.017-0.211l0,0
			c-0.292-0.759-0.552-1.53-0.78-2.311c0,0,0,0,0,0c-0.644,0.164-1.311,0.235-2.012,0.173c-0.224-0.782-0.417-1.569-0.575-2.358
			c0.692,0.065,1.356-0.001,2-0.163c0.165,0.79,0.359,1.573,0.587,2.348c0.643-0.164,1.26-0.421,1.864-0.734
			c0.222,0.778,0.476,1.544,0.76,2.295c-0.595,0.314-1.206,0.577-1.845,0.75c0.292,0.759,0.614,1.505,0.966,2.234
			c-0.635,0.188-1.302,0.291-2.017,0.271C31.224,53.49,30.9,52.725,30.61,51.949z M27.625,48.981
			c0.773,0.365,1.509,0.558,2.209,0.619c0.226,0.789,0.484,1.574,0.776,2.349c-0.709-0.047-1.458-0.225-2.254-0.576
			C28.08,50.577,27.834,49.778,27.625,48.981z M26.779,44.232c0.71,0.346,1.404,0.534,2.078,0.594
			c0.094,0.801,0.221,1.599,0.381,2.395c-0.687-0.066-1.4-0.263-2.141-0.624C26.957,45.804,26.85,45.017,26.779,44.232z"/>
	</g>
	<g opacity="0.8">
		<path fill="#FFFFFF" d="M72.936,41.773C72.935,41.773,72.935,41.773,72.936,41.773c-6.189,3.042-11.21-7.563-17.462-4.16
			c-0.033,0.017-0.066,0.035-0.102,0.053c0.016,3.931-0.888,8.049-2.65,12.093c0.04-0.02,0.082-0.039,0.122-0.057
			c7.394-3.098,10.093,6.889,17.42,4.164c0.001-0.002,0.001-0.002,0.001-0.002c0.04-0.015,0.079-0.031,0.119-0.048
			c1.762-4.038,2.665-8.156,2.651-12.091C73.002,41.743,72.969,41.758,72.936,41.773z M70.906,42.423
			c-0.026,0.797-0.086,1.592-0.179,2.386c-0.68,0.059-1.34-0.013-1.983-0.179c0.098-0.803,0.165-1.612,0.199-2.426
			C69.587,42.383,70.24,42.467,70.906,42.423z M66.478,46.334c0.16-0.8,0.288-1.608,0.384-2.426
			c0.611,0.314,1.229,0.571,1.863,0.737c-0.101,0.81-0.232,1.613-0.396,2.41C67.694,46.895,67.08,46.643,66.478,46.334z
			 M62.871,44.042c0.137-0.809,0.242-1.628,0.316-2.457c0.603,0.396,1.201,0.811,1.801,1.204c-0.087,0.825-0.204,1.64-0.354,2.443
			C64.047,44.844,63.461,44.435,62.871,44.042z M59.173,42.141c0.118-0.808,0.205-1.623,0.26-2.439
			c0.634,0.171,1.256,0.435,1.87,0.754c-0.061,0.827-0.156,1.646-0.282,2.457C60.418,42.59,59.802,42.321,59.173,42.141z
			 M58.704,44.518c-0.639-0.185-1.298-0.278-1.987-0.245c0.185-0.78,0.338-1.563,0.459-2.351c0.68-0.039,1.335,0.051,1.978,0.232
			C59.035,42.95,58.885,43.737,58.704,44.518z M67.039,41.423c-0.032,0.827-0.096,1.645-0.191,2.456
			c-0.62-0.32-1.232-0.7-1.843-1.101c0.086-0.818,0.139-1.645,0.161-2.479C65.789,40.707,66.41,41.094,67.039,41.423z
			 M63.297,39.068c-0.01,0.835-0.051,1.665-0.124,2.487c-0.611-0.402-1.228-0.786-1.854-1.112c0.061-0.818,0.09-1.644,0.086-2.474
			C62.041,38.286,62.67,38.666,63.297,39.068z M59.479,37.241c0.013,0.812-0.008,1.626-0.062,2.436
			c-0.644-0.173-1.299-0.251-1.971-0.201c0.055-0.795,0.075-1.589,0.062-2.377C58.173,37.028,58.829,37.085,59.479,37.241z
			 M55.372,40.061c0.707-0.333,1.389-0.511,2.058-0.563c-0.058,0.802-0.146,1.605-0.269,2.407c-0.675,0.039-1.371,0.203-2.104,0.528
			C55.196,41.639,55.302,40.847,55.372,40.061z M54.54,44.816c0.758-0.325,1.471-0.486,2.154-0.522
			c-0.187,0.793-0.408,1.581-0.661,2.363c-0.696,0.041-1.429,0.208-2.215,0.544C54.092,46.407,54.332,45.612,54.54,44.816z
			 M55.192,48.985c0.315-0.765,0.601-1.535,0.852-2.31c0.701-0.039,1.364,0.05,2.004,0.23c-0.245,0.767-0.521,1.523-0.828,2.271
			C56.578,49.009,55.907,48.931,55.192,48.985z M60.789,50.964c-0.565-0.381-1.138-0.743-1.729-1.053
			c0.313-0.738,0.595-1.491,0.846-2.256c-0.593-0.317-1.203-0.585-1.835-0.764c0.246-0.773,0.462-1.557,0.646-2.35
			c0.635,0.185,1.248,0.456,1.849,0.78c0.188-0.783,0.344-1.577,0.469-2.381c0.615,0.329,1.22,0.712,1.819,1.112
			c-0.137,0.801-0.304,1.593-0.501,2.371c-0.589-0.395-1.182-0.774-1.787-1.102c-0.188,0.79-0.408,1.568-0.659,2.333
			c0.599,0.321,1.18,0.694,1.756,1.083C61.401,49.495,61.109,50.237,60.789,50.964z M64.185,53.195
			c-0.583-0.319-1.149-0.688-1.712-1.07c0.333-0.719,0.637-1.456,0.909-2.207c-0.574-0.386-1.145-0.791-1.721-1.18
			c0.261-0.757,0.491-1.53,0.69-2.314c0.588,0.395,1.171,0.806,1.756,1.195c0.21-0.773,0.39-1.559,0.538-2.355
			c0.598,0.395,1.199,0.768,1.812,1.083c-0.158,0.792-0.35,1.575-0.568,2.346c-0.605-0.313-1.195-0.683-1.78-1.073
			c0,0,0,0-0.002-0.001c-0.211,0.781-0.453,1.548-0.726,2.299c0.001,0,0.001,0,0.001,0c0.573,0.387,1.151,0.755,1.745,1.07
			C64.845,51.738,64.529,52.477,64.185,53.195z M68.023,54.244c-0.714,0.02-1.382-0.084-2.017-0.271
			c0.354-0.729,0.675-1.476,0.966-2.234c-0.639-0.173-1.25-0.435-1.845-0.75c0.285-0.751,0.539-1.517,0.762-2.295
			c0.604,0.313,1.222,0.571,1.863,0.734c0.227-0.774,0.423-1.558,0.586-2.348c0.645,0.161,1.31,0.228,2.002,0.163
			c-0.158,0.789-0.351,1.576-0.575,2.358c-0.703,0.062-1.37-0.009-2.012-0.173c-0.001,0,0,0-0.001,0
			c-0.229,0.781-0.489,1.552-0.78,2.311l0,0c0.64,0.174,1.31,0.257,2.017,0.211C68.698,52.725,68.377,53.49,68.023,54.244z
			 M71.244,51.373c-0.797,0.352-1.546,0.529-2.254,0.576c0.29-0.775,0.549-1.56,0.775-2.349c0.7-0.061,1.437-0.254,2.209-0.619
			C71.766,49.778,71.521,50.577,71.244,51.373z M72.502,46.596c-0.741,0.361-1.454,0.558-2.14,0.624
			c0.16-0.795,0.286-1.594,0.38-2.395c0.675-0.06,1.368-0.248,2.079-0.594C72.75,45.017,72.643,45.804,72.502,46.596z"/>
	</g>
	<g>
		<path fill="#BF1E60" d="M45.159,46.952H44.43v1.113c0,0.159-0.038,0.28-0.113,0.362c-0.074,0.082-0.168,0.123-0.284,0.123
			c-0.119,0-0.216-0.041-0.29-0.121c-0.073-0.083-0.109-0.201-0.109-0.358v-3.03c0-0.175,0.04-0.3,0.121-0.375
			c0.08-0.075,0.208-0.113,0.383-0.113h1.021c0.302,0,0.536,0.023,0.698,0.07c0.161,0.044,0.299,0.119,0.417,0.222
			c0.117,0.104,0.207,0.231,0.268,0.38c0.061,0.15,0.091,0.32,0.091,0.507c0,0.401-0.124,0.704-0.37,0.911
			C46.015,46.849,45.648,46.952,45.159,46.952z M44.967,45.15H44.43v1.201h0.538c0.187,0,0.344-0.019,0.47-0.058
			c0.125-0.039,0.222-0.104,0.288-0.193s0.1-0.206,0.1-0.352c0-0.173-0.052-0.314-0.153-0.423
			C45.558,45.208,45.322,45.15,44.967,45.15z"/>
		<path fill="#BF1E60" d="M47.329,48.064v-3.097c0-0.161,0.038-0.281,0.11-0.362c0.073-0.08,0.167-0.121,0.285-0.121
			c0.119,0,0.216,0.04,0.29,0.12c0.075,0.08,0.111,0.201,0.111,0.363v3.097c0,0.164-0.037,0.284-0.111,0.364
			c-0.074,0.081-0.171,0.121-0.29,0.121c-0.115,0-0.209-0.041-0.283-0.121C47.366,48.346,47.329,48.226,47.329,48.064z"/>
		<path fill="#BF1E60" d="M51.569,45.209H50.7v2.855c0,0.165-0.036,0.286-0.109,0.366c-0.075,0.08-0.169,0.12-0.285,0.12
			c-0.118,0-0.214-0.04-0.288-0.121c-0.075-0.08-0.111-0.201-0.111-0.364v-2.855h-0.869c-0.136,0-0.238-0.03-0.302-0.09
			c-0.067-0.06-0.1-0.139-0.1-0.238c0-0.102,0.034-0.183,0.103-0.242c0.07-0.059,0.169-0.088,0.299-0.088h2.532
			c0.138,0,0.238,0.03,0.306,0.091c0.067,0.061,0.101,0.141,0.101,0.239c0,0.099-0.034,0.178-0.101,0.238
			C51.807,45.18,51.705,45.209,51.569,45.209z"/>
		<path fill="#BF1E60" d="M55.435,47.303c0,0.237-0.061,0.451-0.183,0.641c-0.122,0.189-0.302,0.338-0.537,0.445
			c-0.236,0.107-0.516,0.161-0.84,0.161c-0.388,0-0.707-0.073-0.959-0.22c-0.181-0.104-0.324-0.245-0.438-0.422
			c-0.11-0.175-0.166-0.347-0.166-0.513c0-0.097,0.033-0.18,0.1-0.249c0.066-0.068,0.152-0.104,0.256-0.104
			c0.083,0,0.155,0.026,0.213,0.082c0.059,0.053,0.107,0.132,0.148,0.239c0.051,0.124,0.104,0.229,0.163,0.313
			c0.058,0.084,0.141,0.153,0.245,0.208c0.105,0.055,0.244,0.082,0.416,0.082c0.236,0,0.429-0.055,0.575-0.166
			c0.146-0.11,0.222-0.247,0.222-0.411c0-0.13-0.04-0.237-0.12-0.318c-0.08-0.082-0.182-0.143-0.308-0.186
			c-0.127-0.043-0.295-0.088-0.507-0.137c-0.281-0.066-0.519-0.143-0.709-0.231c-0.19-0.09-0.341-0.21-0.452-0.363
			c-0.113-0.153-0.168-0.342-0.168-0.57c0-0.216,0.059-0.409,0.176-0.576c0.12-0.169,0.29-0.298,0.514-0.388
			c0.224-0.09,0.485-0.136,0.788-0.136c0.241,0,0.45,0.03,0.625,0.09c0.177,0.06,0.323,0.14,0.439,0.239
			c0.117,0.1,0.201,0.203,0.255,0.312c0.055,0.109,0.08,0.216,0.08,0.319c0,0.095-0.033,0.181-0.1,0.256
			c-0.067,0.077-0.152,0.114-0.251,0.114c-0.093,0-0.161-0.022-0.207-0.068c-0.048-0.046-0.101-0.12-0.155-0.225
			c-0.072-0.148-0.157-0.264-0.258-0.347c-0.1-0.083-0.261-0.125-0.482-0.125c-0.205,0-0.371,0.044-0.497,0.135
			c-0.127,0.091-0.189,0.2-0.189,0.326c0,0.079,0.021,0.147,0.064,0.205c0.042,0.057,0.103,0.105,0.177,0.147
			c0.075,0.041,0.151,0.073,0.229,0.097c0.075,0.023,0.204,0.057,0.381,0.102c0.222,0.052,0.423,0.109,0.601,0.171
			c0.181,0.062,0.334,0.139,0.459,0.229c0.127,0.089,0.226,0.201,0.296,0.338C55.4,46.937,55.435,47.105,55.435,47.303z"/>
	</g>
	<g>
		<g>
			<g>
				<defs>
					<path id="SVGID_1_" d="M50.764,50.799l3.018,3.384c0.264,0.347,0.5,0.986,0.528,1.421l-0.19,4.206
						c0.026,0.434,0.19,0.461,0.363,0.062l1.138-2.717c0.174-0.4,0.627-0.553,1.009-0.344l2.753,2.257
						c0.382,0.21,0.521,0.071,0.313-0.312l-2.254-3.088c-0.211-0.381-0.154-0.967,0.126-1.302l3.073-3.021
						c0.279-0.335,0.187-0.455-0.208-0.269l-2.341,1.11c-0.395,0.188-1.068,0.387-1.5,0.444l-0.091,0.011
						c-0.432,0.059-1.088-0.008-1.457-0.146c-0.372-0.138-0.991-0.412-1.38-0.609l-2.676-1.362
						c-0.126-0.063-0.222-0.094-0.285-0.094C50.571,50.433,50.584,50.565,50.764,50.799"/>
				</defs>
				<use xlink:href="#SVGID_1_"  overflow="visible" fill="#77CBCD"/>
				<clipPath id="SVGID_2_">
					<use xlink:href="#SVGID_1_"  overflow="visible"/>
				</clipPath>
				<rect x="50.571" y="50.433" clip-path="url(#SVGID_2_)" fill="#77CBCD" width="10.349" height="9.838"/>
			</g>
			<g>
				<defs>
					<path id="SVGID_3_" d="M53.881,50.783c0,0.73,0.588,1.322,1.312,1.322c0.726,0,1.313-0.592,1.313-1.322
						c0-0.729-0.588-1.322-1.313-1.322C54.469,49.461,53.881,50.053,53.881,50.783"/>
				</defs>
				<use xlink:href="#SVGID_3_"  overflow="visible" fill="#77CBCD"/>
				<clipPath id="SVGID_4_">
					<use xlink:href="#SVGID_3_"  overflow="visible"/>
				</clipPath>
				<rect x="53.881" y="49.461" clip-path="url(#SVGID_4_)" fill="#77CBCD" width="2.625" height="2.644"/>
			</g>
		</g>
		<g opacity="0.52">
			<g>
				<defs>
					<path id="SVGID_5_" d="M53.391,52.664l-1.334,2.578c-0.107,0.258-0.151,0.691-0.1,0.965l0.787,2.576
						c0.053,0.273-0.046,0.316-0.215,0.098l-1.139-1.502c-0.172-0.222-0.478-0.244-0.68-0.053l-1.348,1.838
						c-0.203,0.191-0.311,0.127-0.243-0.145l0.906-2.272c0.068-0.271-0.06-0.625-0.286-0.786l-2.388-1.384
						c-0.226-0.163-0.188-0.253,0.087-0.2l1.627,0.315c0.274,0.054,0.724,0.069,1.001,0.036l0.058-0.007
						c0.276-0.032,0.672-0.178,0.88-0.323c0.208-0.145,0.55-0.414,0.759-0.598l1.44-1.27c0.069-0.06,0.123-0.094,0.161-0.104
						C53.448,52.406,53.462,52.49,53.391,52.664"/>
				</defs>
				<use xlink:href="#SVGID_5_"  overflow="visible" fill="#77CBCD"/>
				<clipPath id="SVGID_6_">
					<use xlink:href="#SVGID_5_"  overflow="visible"/>
				</clipPath>
				
					<rect x="47.714" y="53.131" transform="matrix(0.9685 -0.249 0.249 0.9685 -12.4045 14.4746)" clip-path="url(#SVGID_6_)" fill="#77CBCD" width="6.622" height="6.298"/>
			</g>
			<g>
				<defs>
					<path id="SVGID_7_" d="M51.455,53.149c0.115,0.453-0.155,0.913-0.604,1.029c-0.449,0.115-0.907-0.158-1.023-0.611
						c-0.117-0.451,0.153-0.912,0.603-1.028C50.879,52.424,51.338,52.697,51.455,53.149"/>
				</defs>
				<use xlink:href="#SVGID_7_"  overflow="visible" fill="#77CBCD"/>
				<clipPath id="SVGID_8_">
					<use xlink:href="#SVGID_7_"  overflow="visible"/>
				</clipPath>
				
					<rect x="49.8" y="52.513" transform="matrix(0.9685 -0.2492 0.2492 0.9685 -11.6976 14.3003)" clip-path="url(#SVGID_8_)" fill="#77CBCD" width="1.681" height="1.691"/>
			</g>
		</g>
		<g>
			<g>
				<defs>
					<path id="SVGID_9_" d="M50.564,50.58l-3.019,3.385c-0.264,0.346-0.5,0.986-0.527,1.421l0.189,4.204
						c-0.026,0.436-0.19,0.463-0.363,0.063l-1.138-2.716c-0.174-0.399-0.628-0.554-1.009-0.344l-2.753,2.256
						c-0.382,0.211-0.521,0.071-0.312-0.31l2.254-3.089c0.209-0.382,0.153-0.967-0.126-1.303l-3.074-3.021
						c-0.279-0.333-0.186-0.454,0.208-0.268l2.342,1.111c0.393,0.186,1.067,0.386,1.5,0.443l0.09,0.012
						c0.432,0.058,1.087-0.009,1.459-0.146c0.37-0.139,0.99-0.414,1.378-0.609l2.674-1.361c0.126-0.064,0.222-0.094,0.285-0.094
						C50.754,50.215,50.743,50.346,50.564,50.58"/>
				</defs>
				<use xlink:href="#SVGID_9_"  overflow="visible" fill="#77CBCD"/>
				<clipPath id="SVGID_10_">
					<use xlink:href="#SVGID_9_"  overflow="visible"/>
				</clipPath>
				<rect x="40.408" y="50.215" clip-path="url(#SVGID_10_)" fill="#77CBCD" width="10.346" height="9.838"/>
			</g>
			<g>
				<defs>
					<path id="SVGID_11_" d="M47.448,50.564c0,0.73-0.589,1.321-1.313,1.321c-0.726,0-1.312-0.591-1.312-1.321
						c0-0.729,0.586-1.322,1.312-1.322C46.859,49.242,47.448,49.834,47.448,50.564"/>
				</defs>
				<use xlink:href="#SVGID_11_"  overflow="visible" fill="#77CBCD"/>
				<clipPath id="SVGID_12_">
					<use xlink:href="#SVGID_11_"  overflow="visible"/>
				</clipPath>
				<rect x="44.822" y="49.242" clip-path="url(#SVGID_12_)" fill="#77CBCD" width="2.625" height="2.643"/>
			</g>
		</g>
	</g>
	<g>
		<path fill="#BF1E60" d="M50.568,56.252c-0.217-0.217-0.762-0.616-0.58-0.943c0.181-0.361,0.58-0.253,0.58,0.109
			c0.182-0.362,0.725-0.543,0.76,0c0.037,0.399-0.434,0.508-0.724,0.762"/>
	</g>
</g>
</svg>
