<?xml version="1.0" encoding="UTF-8" standalone="no"?>
<!-- Generator: Adobe Illustrator 16.0.0, SVG Export Plug-In . SVG Version: 6.00 Build 0)  -->

<svg
   xmlns:dc="http://purl.org/dc/elements/1.1/"
   xmlns:cc="http://creativecommons.org/ns#"
   xmlns:rdf="http://www.w3.org/1999/02/22-rdf-syntax-ns#"
   xmlns:svg="http://www.w3.org/2000/svg"
   xmlns="http://www.w3.org/2000/svg"
   xmlns:sodipodi="http://sodipodi.sourceforge.net/DTD/sodipodi-0.dtd"
   xmlns:inkscape="http://www.inkscape.org/namespaces/inkscape"
   version="1.1"
   id="Layer_1"
   x="0px"
   y="0px"
   width="13.876"
   height="15.250296"
   viewBox="0 0 13.876 15.250296"
   enable-background="new 0 0 100 100"
   xml:space="preserve"
   sodipodi:docname="transfer_pb.svg"
   inkscape:version="0.92.1 r15371"><metadata
     id="metadata29"><rdf:RDF><cc:Work
         rdf:about=""><dc:format>image/svg+xml</dc:format><dc:type
           rdf:resource="http://purl.org/dc/dcmitype/StillImage" /><dc:title></dc:title></cc:Work></rdf:RDF></metadata><defs
     id="defs27" /><sodipodi:namedview
     pagecolor="#ffffff"
     bordercolor="#666666"
     borderopacity="1"
     objecttolerance="10"
     gridtolerance="10"
     guidetolerance="10"
     inkscape:pageopacity="0"
     inkscape:pageshadow="2"
     inkscape:window-width="1680"
     inkscape:window-height="987"
     id="namedview25"
     showgrid="false"
     fit-margin-top="0"
     fit-margin-left="0"
     fit-margin-right="0"
     fit-margin-bottom="0"
     inkscape:zoom="2.36"
     inkscape:cx="7.83"
     inkscape:cy="7.3756022"
     inkscape:window-x="-8"
     inkscape:window-y="-8"
     inkscape:window-maximized="1"
     inkscape:current-layer="Layer_1" /><g
     id="g22"
     transform="translate(-42.17,-42.125306)"><g
       id="g20"><g
         id="g6"><g
           id="g4"><path
             d="M 55.012,49.754 V 49.75 c 0,3.254 -2.647,5.903 -5.903,5.903 V 55.05 c 0,-0.064 -0.072,-0.104 -0.125,-0.064 l -1.63,1.12 c -0.047,0.031 -0.047,0.1 0,0.134 l 1.63,1.12 c 0.053,0.039 0.125,0 0.125,-0.063 V 56.69 c 3.826,0 6.937,-3.11 6.937,-6.937 h -1.034 z"
             id="path2"
             inkscape:connector-curvature="0"
             style="fill:#6d6e70" /></g></g><g
         id="g12"><g
           id="g10"><path
             d="M 50.86,43.262 49.232,42.14 c -0.053,-0.037 -0.124,0 -0.124,0.065 v 0.604 c -3.828,0.003 -6.938,3.114 -6.938,6.94 h 1.034 c 0,-3.254 2.646,-5.903 5.904,-5.903 v 0.604 c 0,0.065 0.071,0.104 0.124,0.065 l 1.628,-1.121 c 0.047,-0.03 0.047,-0.099 0,-0.132 z"
             id="path8"
             inkscape:connector-curvature="0"
             style="fill:#6d6e70" /></g></g><g
         id="g18"><g
           id="g16"><path
             d="m 48.459,45.789 c -2.189,0 -3.962,1.775 -3.962,3.961 0,2.188 1.772,3.961 3.962,3.961 2.188,0 3.959,-1.774 3.959,-3.961 0,-2.189 -1.773,-3.961 -3.959,-3.961 z m 0.258,4.853 -0.785,0.777 -0.778,-0.785 -0.75,-0.753 0.784,-0.775 0.75,0.753 1.794,-1.783 0.778,0.781 z"
             id="path14"
             inkscape:connector-curvature="0"
             style="fill:#6d6e70" /></g></g></g></g></svg>