<?xml version="1.0" encoding="UTF-8" standalone="no"?>
<!-- Generator: Adobe Illustrator 16.0.0, SVG Export Plug-In . SVG Version: 6.00 Build 0)  -->

<svg
   xmlns:dc="http://purl.org/dc/elements/1.1/"
   xmlns:cc="http://creativecommons.org/ns#"
   xmlns:rdf="http://www.w3.org/1999/02/22-rdf-syntax-ns#"
   xmlns:svg="http://www.w3.org/2000/svg"
   xmlns="http://www.w3.org/2000/svg"
   xmlns:sodipodi="http://sodipodi.sourceforge.net/DTD/sodipodi-0.dtd"
   xmlns:inkscape="http://www.inkscape.org/namespaces/inkscape"
   version="1.1"
   id="Layer_1"
   x="0px"
   y="0px"
   width="13.013242"
   height="18"
   viewBox="0 0 13.013242 18"
   enable-background="new 0 0 100 100"
   xml:space="preserve"
   sodipodi:docname="vestir_pb.svg"
   inkscape:version="0.92.1 r15371"><metadata
     id="metadata15"><rdf:RDF><cc:Work
         rdf:about=""><dc:format>image/svg+xml</dc:format><dc:type
           rdf:resource="http://purl.org/dc/dcmitype/StillImage" /><dc:title></dc:title></cc:Work></rdf:RDF></metadata><defs
     id="defs13" /><sodipodi:namedview
     pagecolor="#ffffff"
     bordercolor="#666666"
     borderopacity="1"
     objecttolerance="10"
     gridtolerance="10"
     guidetolerance="10"
     inkscape:pageopacity="0"
     inkscape:pageshadow="2"
     inkscape:window-width="1680"
     inkscape:window-height="987"
     id="namedview11"
     showgrid="false"
     fit-margin-top="0"
     fit-margin-left="0"
     fit-margin-right="0"
     fit-margin-bottom="0"
     inkscape:zoom="2.36"
     inkscape:cx="6.7239411"
     inkscape:cy="8.75"
     inkscape:window-x="-8"
     inkscape:window-y="-8"
     inkscape:window-maximized="1"
     inkscape:current-layer="Layer_1" /><g
     id="g8"
     transform="translate(-43.276059,-40.75)"><g
       id="g6"><path
         d="m 48.518,50.117 h -1.941 v -8.732 h 1.2 c 0.152,0.97 0.994,1.714 2.006,1.714 1.012,0 1.854,-0.744 2.006,-1.714 h 1.2 v 4.86 c 0,0.176 0.142,0.317 0.316,0.317 0.176,0 0.317,-0.142 0.317,-0.317 V 45.39 l 0.684,0.342 c 0.045,0.022 0.094,0.033 0.142,0.033 0.101,0 0.198,-0.048 0.26,-0.134 l 1.523,-2.159 c 0.096,-0.135 0.071,-0.32 -0.057,-0.427 L 53.51,40.824 C 53.454,40.778 53.383,40.75 53.305,40.75 h -7.046 c -0.078,0 -0.148,0.028 -0.204,0.075 l -2.665,2.22 c -0.127,0.106 -0.151,0.292 -0.056,0.427 l 1.523,2.159 c 0.062,0.086 0.159,0.134 0.259,0.134 0.049,0 0.098,-0.011 0.143,-0.033 l 0.683,-0.342 v 5.045 c 0,0.176 0.142,0.317 0.317,0.317 h 2.259 c 0.176,0 0.317,-0.142 0.317,-0.317 0,-0.175 -0.142,-0.318 -0.317,-0.318 z m 5.828,-5.075 -0.724,-0.362 v -2.935 l 1.921,1.601 z m -4.564,-2.578 c -0.661,0 -1.216,-0.462 -1.359,-1.079 h 2.719 c -0.144,0.617 -0.699,1.079 -1.36,1.079 z m -4.563,2.578 -1.197,-1.696 1.92,-1.601 v 2.935 z"
         id="path2"
         inkscape:connector-curvature="0"
         style="fill:#6d6e70" /><path
         d="m 55.919,46.932 h -6.381 c -0.176,0 -0.317,0.142 -0.317,0.317 v 11.184 c 0,0.176 0.142,0.317 0.317,0.317 h 2.443 c 0.169,0 0.308,-0.132 0.317,-0.3 l 0.43,-7.733 0.43,7.733 c 0.01,0.168 0.148,0.3 0.317,0.3 h 2.443 c 0.176,0 0.317,-0.142 0.317,-0.317 V 47.249 c 10e-4,-0.176 -0.14,-0.317 -0.316,-0.317 z m -0.317,1.344 h -1 v -0.71 h 1 z m -4.111,0 v -0.71 h 2.476 v 0.71 z m -0.635,-0.71 v 0.71 h -1.001 v -0.71 z m 2.919,10.549 -0.432,-7.762 c -0.009,-0.168 -0.148,-0.3 -0.316,-0.3 H 52.43 c -0.168,0 -0.308,0.132 -0.316,0.3 l -0.432,7.762 h -1.826 v -9.204 h 5.746 v 9.204 z"
         id="path4"
         inkscape:connector-curvature="0"
         style="fill:#6d6e70" /></g></g></svg>