<?xml version="1.0" encoding="UTF-8" standalone="no"?>
<!-- Generator: Adobe Illustrator 16.0.3, SVG Export Plug-In . SVG Version: 6.00 Build 0)  -->

<svg
   xmlns:dc="http://purl.org/dc/elements/1.1/"
   xmlns:cc="http://creativecommons.org/ns#"
   xmlns:rdf="http://www.w3.org/1999/02/22-rdf-syntax-ns#"
   xmlns:svg="http://www.w3.org/2000/svg"
   xmlns="http://www.w3.org/2000/svg"
   xmlns:sodipodi="http://sodipodi.sourceforge.net/DTD/sodipodi-0.dtd"
   xmlns:inkscape="http://www.inkscape.org/namespaces/inkscape"
   version="1.1"
   id="Layer_1"
   x="0px"
   y="0px"
   width="781.69818"
   height="1099.998"
   viewBox="0 0 781.69818 1099.998"
   enable-background="new 0 0 1200 1200"
   xml:space="preserve"
   sodipodi:docname="coracao.svg"
   inkscape:version="0.92.1 r15371"><metadata
     id="metadata137"><rdf:RDF><cc:Work
         rdf:about=""><dc:format>image/svg+xml</dc:format><dc:type
           rdf:resource="http://purl.org/dc/dcmitype/StillImage" /><dc:title></dc:title></cc:Work></rdf:RDF></metadata><defs
     id="defs135" /><sodipodi:namedview
     pagecolor="#ffffff"
     bordercolor="#666666"
     borderopacity="1"
     objecttolerance="10"
     gridtolerance="10"
     guidetolerance="10"
     inkscape:pageopacity="0"
     inkscape:pageshadow="2"
     inkscape:window-width="1680"
     inkscape:window-height="987"
     id="namedview133"
     showgrid="false"
     fit-margin-top="0"
     fit-margin-left="0"
     fit-margin-right="0"
     fit-margin-bottom="0"
     inkscape:zoom="0.19666667"
     inkscape:cx="390.84683"
     inkscape:cy="549.99803"
     inkscape:window-x="-8"
     inkscape:window-y="-8"
     inkscape:window-maximized="1"
     inkscape:current-layer="Layer_1" /><g
     id="g130"
     transform="translate(-209.15317,-50)"><g
       id="g128"><path
         d="m 654.42,342.12 c 53.282,-31.387 119.438,-47.123 171.135,-41.628 0.843,-7.644 1.263,-15.662 1.06,-24.163 C 824.087,170.116 945.471,134.711 932.827,101.836 920.184,68.96 887.309,51.259 829.142,86.662 c -35.607,21.675 -58.943,72.471 -71.702,108.627 2.533,4.119 4.695,8.474 6.437,13.001 11.66,30.315 -71.943,62.474 -109.457,133.83 z M 897.326,83.671 c 35.052,14.072 22.704,34.678 10.695,35.011 -24.92,0.693 -38.096,-15.558 -41.87,-18.921 -3.776,-3.363 -3.875,-30.163 31.175,-16.09 z"
         id="path2"
         inkscape:connector-curvature="0"
         style="fill:#f79fc5" /><path
         d="M 701.982,162.806 C 669.165,110.852 626.719,50 607.872,50 c -32.875,0 -48.049,37.935 -50.577,65.751 -1.062,11.69 28.913,44.597 55.956,84.075 6.411,-5.921 13.249,-11.265 20.585,-15.73 26.279,-15.996 49.1,-22.052 68.146,-21.29 z M 583.088,121.453 c -28.387,-7.097 5.182,-63.086 21.288,-55.59 16.11,7.495 -7.423,59.056 -21.288,55.59 z"
         id="path4"
         inkscape:connector-curvature="0"
         style="fill:#f79fc5" /><path
         d="m 604.376,65.862 c -16.106,-7.496 -49.675,48.494 -21.288,55.59 13.865,3.467 37.398,-48.094 21.288,-55.59 z"
         id="path6"
         inkscape:connector-curvature="0"
         style="fill:#f47fab" /><path
         d="m 908.022,118.682 c 12.009,-0.333 24.356,-20.938 -10.695,-35.011 -35.053,-14.072 -34.951,12.729 -31.175,16.09 3.774,3.363 16.95,19.613 41.87,18.921 z"
         id="path8"
         inkscape:connector-curvature="0"
         style="fill:#f47fab" /><path
         d="m 541.381,198.31 c -27.001,5.808 -32.764,39.645 -29.925,62.938 0.896,7.36 18.322,21.474 39.319,39.772 8.449,-22.291 21.034,-49.738 38.465,-73.831 -20.798,-18.045 -39.125,-30.757 -47.859,-28.879 z m -7.734,63.064 c -24.568,-0.813 -6.889,-52.729 7.666,-49.419 14.555,3.312 4.335,49.818 -7.666,49.419 z"
         id="path10"
         inkscape:connector-curvature="0"
         style="fill:#f79fc5" /><path
         d="m 541.313,211.955 c -14.555,-3.312 -32.234,48.605 -7.666,49.419 12.001,0.399 22.221,-46.107 7.666,-49.419 z"
         id="path12"
         inkscape:connector-curvature="0"
         style="fill:#f47fab" /><path
         d="m 815.415,489.433 c 31.774,9.426 57.979,24.24 79.685,42.705 22.84,-0.45 40.102,-3.142 45.195,-9.584 19.873,-25.138 0.04,-59.67 -19.701,-78.419 -4.615,-4.383 -20.078,-5.389 -40.881,-5.969 -18.717,18.935 -44.112,35.581 -70.402,49.573 2.049,0.578 4.025,1.076 6.104,1.694 z m 85.229,-29.023 c 22.586,-17.415 45.104,42.097 29.636,49.883 -15.47,7.786 -40.668,-41.377 -29.636,-49.883 z"
         id="path14"
         inkscape:connector-curvature="0"
         style="fill:#f47fab" /><path
         d="m 930.28,510.293 c 15.467,-7.786 -7.052,-67.298 -29.638,-49.883 -11.03,8.506 14.168,57.669 29.638,49.883 z"
         id="path16"
         inkscape:connector-curvature="0"
         style="fill:#f79fc5" /><path
         d="m 654.42,342.12 c -11.132,21.177 -18.252,45.769 -17.56,74.838 0.694,29.201 -4.24,54.034 -12.2,75.046 35.292,-17.867 93.731,-29.95 184.652,-4.265 26.291,-13.993 51.684,-30.638 70.402,-49.573 19.061,-19.279 31.2,-40.933 30.273,-64.588 -1.77,-45.181 -37.012,-68.048 -84.434,-73.088 -51.695,-5.493 -117.851,10.243 -171.133,41.63 z"
         id="path18"
         inkscape:connector-curvature="0"
         style="fill:#f47fab" /><path
         d="m 454.721,484.447 c 0.166,0.016 0.327,0.035 0.49,0.051 1.854,0.179 3.695,0.374 5.522,0.595 0.256,0.031 0.51,0.067 0.768,0.1 1.73,0.214 3.453,0.443 5.157,0.695 0.306,0.045 0.604,0.094 0.91,0.14 1.644,0.25 3.277,0.51 4.897,0.79 0.354,0.061 0.705,0.127 1.058,0.189 1.565,0.278 3.12,0.565 4.659,0.87 0.372,0.073 0.736,0.15 1.106,0.226 1.519,0.309 3.024,0.624 4.516,0.957 0.368,0.082 0.73,0.166 1.097,0.249 1.48,0.337 2.951,0.68 4.404,1.039 0.37,0.092 0.738,0.186 1.106,0.277 1.44,0.362 2.868,0.731 4.283,1.113 0.358,0.097 0.717,0.195 1.075,0.294 1.415,0.388 2.815,0.782 4.203,1.189 0.343,0.101 0.685,0.201 1.025,0.303 1.384,0.41 2.754,0.83 4.11,1.257 0.335,0.104 0.669,0.211 1,0.316 1.362,0.436 2.707,0.877 4.038,1.325 0.301,0.103 0.604,0.203 0.905,0.307 1.347,0.458 2.675,0.924 3.99,1.395 0.277,0.1 0.553,0.197 0.829,0.297 1.338,0.484 2.657,0.973 3.961,1.468 0.23,0.089 0.464,0.177 0.696,0.264 1.331,0.51 2.642,1.023 3.934,1.541 0.199,0.078 0.399,0.157 0.597,0.237 1.327,0.533 2.63,1.071 3.917,1.61 0.149,0.063 0.302,0.126 0.451,0.189 1.341,0.565 2.657,1.135 3.953,1.705 0.083,0.036 0.169,0.073 0.254,0.11 1.343,0.594 2.661,1.188 3.955,1.782 0.037,0.018 0.076,0.034 0.116,0.053 13.422,6.181 24.034,12.332 31.076,16.775 0.014,0.009 0.027,0.018 0.041,0.027 0.672,0.422 1.31,0.829 1.912,1.221 0.098,0.062 0.185,0.12 0.281,0.182 0.512,0.333 1.006,0.653 1.469,0.96 0.132,0.088 0.252,0.168 0.38,0.253 0.405,0.27 0.797,0.529 1.159,0.774 0.149,0.101 0.285,0.194 0.429,0.291 0.308,0.208 0.603,0.41 0.877,0.598 0.165,0.115 0.314,0.218 0.468,0.325 0.217,0.149 0.426,0.295 0.616,0.429 0.178,0.124 0.333,0.234 0.488,0.345 0.122,0.088 0.24,0.171 0.349,0.248 0.193,0.138 0.356,0.255 0.506,0.364 0.018,0.012 0.041,0.029 0.058,0.04 v 0.002 c 0.494,0.356 0.777,0.569 0.777,0.569 0,0 12.771,-21.922 46.071,-38.782 7.957,-21.011 12.894,-45.846 12.199,-75.045 -0.693,-29.069 6.426,-53.662 17.56,-74.839 37.512,-71.355 121.117,-103.513 109.457,-133.829 -1.742,-4.526 -3.904,-8.882 -6.438,-13.001 -11.156,-18.135 -29.897,-31.46 -55.458,-32.483 -19.046,-0.763 -41.866,5.294 -68.145,21.29 -7.337,4.465 -14.174,9.809 -20.586,15.73 -8.842,8.164 -16.846,17.459 -24.009,27.363 -17.431,24.093 -30.018,51.541 -38.467,73.831 -9.438,24.9 -13.714,43.356 -13.714,43.356 0,0 -48.386,-69.557 -87.701,-69.557 -39.312,0 -57.457,45.363 -60.481,78.629 -2.565,28.196 92.607,67.259 42.513,130.067 7.969,-0.108 15.758,0.224 23.331,0.934 z M 711.53,180.131 c 44.438,10.455 34.904,45.447 20.912,49.666 -29.032,8.752 -48.358,-11.764 -53.587,-15.684 -5.227,-3.922 -11.763,-44.438 32.675,-33.982 z M 419.722,360.269 c -33.945,-8.487 6.196,-75.442 25.46,-66.478 19.265,8.964 -8.879,70.622 -25.46,66.478 z"
         id="path20"
         inkscape:connector-curvature="0"
         style="fill:#c4b6e7" /><path
         d="m 445.182,293.791 c -19.265,-8.965 -59.405,57.991 -25.46,66.478 16.581,4.144 44.725,-57.514 25.46,-66.478 z"
         id="path22"
         inkscape:connector-curvature="0"
         style="fill:#938ec6" /><path
         d="m 678.855,214.113 c 5.229,3.92 24.555,24.436 53.587,15.684 13.989,-4.219 23.525,-39.211 -20.912,-49.666 -44.438,-10.456 -37.902,30.06 -32.675,33.982 z"
         id="path24"
         inkscape:connector-curvature="0"
         style="fill:#938ec6" /><path
         d="m 869.57,1149.739 c -2.225,0.175 -4.493,0.261 -6.804,0.259 2.31,0 4.579,-0.084 6.804,-0.259 z"
         id="path26"
         inkscape:connector-curvature="0"
         style="fill:#f79fc5" /><path
         d="m 297.254,534.951 c 1.022,-0.842 2.044,-1.648 3.065,-2.466 -1.021,0.818 -2.042,1.624 -3.065,2.466 z"
         id="path28"
         inkscape:connector-curvature="0"
         style="fill:#f79fc5" /><path
         d="m 290.289,540.889 c 1.012,-0.891 2.024,-1.742 3.036,-2.609 -1.011,0.866 -2.024,1.718 -3.036,2.609 z"
         id="path30"
         inkscape:connector-curvature="0"
         style="fill:#f79fc5" /><path
         d="m 311.222,524.203 c 1.029,-0.737 2.059,-1.447 3.089,-2.162 -1.032,0.715 -2.06,1.424 -3.089,2.162 z"
         id="path32"
         inkscape:connector-curvature="0"
         style="fill:#f79fc5" /><path
         d="m 882.434,1147.567 c -4.132,1.103 -8.414,1.816 -12.864,2.172 4.45,-0.355 8.732,-1.069 12.864,-2.172 z"
         id="path34"
         inkscape:connector-curvature="0"
         style="fill:#f79fc5" /><path
         d="m 304.238,529.389 c 1.023,-0.788 2.047,-1.543 3.07,-2.307 -1.024,0.764 -2.047,1.519 -3.07,2.307 z"
         id="path36"
         inkscape:connector-curvature="0"
         style="fill:#f79fc5" /><path
         d="m 262.645,568.634 c 0.736,-0.837 1.474,-1.62 2.213,-2.439 -0.74,0.819 -1.477,1.604 -2.213,2.439 z"
         id="path38"
         inkscape:connector-curvature="0"
         style="fill:#f79fc5" /><path
         d="m 269.511,561.084 c 0.899,-0.961 1.803,-1.868 2.703,-2.808 -0.9,0.94 -1.804,1.847 -2.703,2.808 z"
         id="path40"
         inkscape:connector-curvature="0"
         style="fill:#f79fc5" /><path
         d="m 283.336,547.222 c 0.998,-0.938 1.994,-1.829 2.992,-2.744 -0.998,0.913 -1.994,1.806 -2.992,2.744 z"
         id="path42"
         inkscape:connector-curvature="0"
         style="fill:#f79fc5" /><path
         d="m 318.218,519.374 c 1.021,-0.68 2.044,-1.337 3.067,-1.995 -1.021,0.658 -2.045,1.315 -3.067,1.995 z"
         id="path44"
         inkscape:connector-curvature="0"
         style="fill:#f79fc5" /><path
         d="m 276.412,553.946 c 0.965,-0.967 1.932,-1.883 2.896,-2.826 -0.964,0.943 -1.931,1.859 -2.896,2.826 z"
         id="path46"
         inkscape:connector-curvature="0"
         style="fill:#f79fc5" /><path
         d="m 367.089,494.86 c 0.882,-0.309 1.762,-0.618 2.642,-0.912 -0.88,0.294 -1.762,0.605 -2.642,0.912 z"
         id="path48"
         inkscape:connector-curvature="0"
         style="fill:#f79fc5" /><path
         d="m 387.864,488.816 c 0.734,-0.172 1.471,-0.353 2.203,-0.514 -0.733,0.162 -1.469,0.344 -2.203,0.514 z"
         id="path50"
         inkscape:connector-curvature="0"
         style="fill:#f79fc5" /><path
         d="m 374.025,492.574 c 0.84,-0.262 1.683,-0.527 2.523,-0.775 -0.841,0.248 -1.683,0.513 -2.523,0.775 z"
         id="path52"
         inkscape:connector-curvature="0"
         style="fill:#f79fc5" /><path
         d="m 380.953,490.561 c 0.79,-0.215 1.581,-0.437 2.368,-0.64 -0.787,0.203 -1.578,0.425 -2.368,0.64 z"
         id="path54"
         inkscape:connector-curvature="0"
         style="fill:#f79fc5" /><path
         d="m 401.748,486.082 c 0.547,-0.088 1.097,-0.188 1.642,-0.27 -0.545,0.082 -1.095,0.182 -1.642,0.27 z"
         id="path56"
         inkscape:connector-curvature="0"
         style="fill:#f79fc5" /><path
         d="m 408.823,485.071 c 0.382,-0.048 0.766,-0.106 1.147,-0.15 -0.379,0.044 -0.765,0.101 -1.147,0.15 z"
         id="path58"
         inkscape:connector-curvature="0"
         style="fill:#f79fc5" /><path
         d="m 416.211,484.278 c 0.091,-0.009 0.184,-0.021 0.275,-0.028 -0.091,0.009 -0.182,0.02 -0.275,0.028 z"
         id="path60"
         inkscape:connector-curvature="0"
         style="fill:#f79fc5" /><path
         d="m 346.182,503.476 c 0.975,-0.465 1.949,-0.92 2.922,-1.366 -0.973,0.446 -1.948,0.902 -2.922,1.366 z"
         id="path62"
         inkscape:connector-curvature="0"
         style="fill:#f79fc5" /><path
         d="m 332.221,510.754 c 1,-0.566 1.998,-1.117 2.996,-1.665 -0.998,0.547 -1.996,1.098 -2.996,1.665 z"
         id="path64"
         inkscape:connector-curvature="0"
         style="fill:#f79fc5" /><path
         d="m 339.201,506.956 c 0.992,-0.518 1.986,-1.023 2.979,-1.522 -0.992,0.499 -1.984,1.004 -2.979,1.522 z"
         id="path66"
         inkscape:connector-curvature="0"
         style="fill:#f79fc5" /><path
         d="m 360.138,497.432 c 0.915,-0.357 1.832,-0.713 2.744,-1.056 -0.914,0.343 -1.829,0.698 -2.744,1.056 z"
         id="path68"
         inkscape:connector-curvature="0"
         style="fill:#f79fc5" /><path
         d="m 325.218,514.893 c 1.013,-0.622 2.024,-1.226 3.036,-1.827 -1.012,0.601 -2.023,1.205 -3.036,1.827 z"
         id="path70"
         inkscape:connector-curvature="0"
         style="fill:#f79fc5" /><path
         d="m 353.171,500.3 c 0.942,-0.408 1.886,-0.812 2.826,-1.202 -0.94,0.39 -1.883,0.794 -2.826,1.202 z"
         id="path72"
         inkscape:connector-curvature="0"
         style="fill:#f79fc5" /><path
         d="m 394.777,487.328 c 0.658,-0.13 1.321,-0.27 1.977,-0.393 -0.656,0.124 -1.317,0.264 -1.977,0.393 z"
         id="path74"
         inkscape:connector-curvature="0"
         style="fill:#f79fc5" /><path
         d="m 895.1,532.14 c -21.706,-18.467 -47.91,-33.281 -79.685,-42.706 -2.079,-0.617 -4.056,-1.115 -6.103,-1.693 -90.921,-25.686 -149.36,-13.603 -184.652,4.264 -33.3,16.859 -46.07,38.782 -46.07,38.782 0,0 -0.281,-0.212 -0.775,-0.57 16.705,18.298 13.122,30.394 -22.972,48.873 -127.015,84.676 -75.24,252.185 39.679,288.474 132.652,48.641 268.516,142.543 306.016,272.242 94.623,-51.591 70.646,-155.713 84.951,-261.377 C 997.544,789.383 997.48,619.234 895.1,532.14 Z"
         id="path76"
         inkscape:connector-curvature="0"
         style="fill:#f79fc5" /><path
         d="m 537.706,507.384 c -0.04,-0.02 -0.079,-0.036 -0.116,-0.054 0.037,0.017 0.078,0.034 0.116,0.054 z"
         id="path78"
         inkscape:connector-curvature="0"
         style="fill:#f79fc5" /><path
         d="m 511.053,496.73 c -0.301,-0.103 -0.603,-0.204 -0.905,-0.307 0.302,0.102 0.606,0.204 0.905,0.307 z"
         id="path80"
         inkscape:connector-curvature="0"
         style="fill:#f79fc5" /><path
         d="m 525.06,501.931 c -0.197,-0.078 -0.396,-0.158 -0.595,-0.236 0.199,0.077 0.398,0.158 0.595,0.236 z"
         id="path82"
         inkscape:connector-curvature="0"
         style="fill:#f79fc5" /><path
         d="m 467.569,486.028 c -0.306,-0.045 -0.604,-0.095 -0.91,-0.14 0.305,0.046 0.604,0.095 0.91,0.14 z"
         id="path84"
         inkscape:connector-curvature="0"
         style="fill:#f79fc5" /><path
         d="m 506.11,495.1 c -0.333,-0.106 -0.665,-0.212 -1,-0.317 0.335,0.105 0.669,0.21 1,0.317 z"
         id="path86"
         inkscape:connector-curvature="0"
         style="fill:#f79fc5" /><path
         d="m 571.017,525.587 c -0.097,-0.062 -0.184,-0.119 -0.281,-0.182 0.097,0.062 0.184,0.12 0.281,0.182 z"
         id="path88"
         inkscape:connector-curvature="0"
         style="fill:#f79fc5" /><path
         d="m 568.823,524.185 c -0.014,-0.01 -0.027,-0.019 -0.041,-0.027 0.014,0.009 0.028,0.017 0.041,0.027 z"
         id="path90"
         inkscape:connector-curvature="0"
         style="fill:#f79fc5" /><path
         d="m 515.874,498.422 c -0.275,-0.101 -0.552,-0.197 -0.829,-0.297 0.276,0.1 0.554,0.196 0.829,0.297 z"
         id="path92"
         inkscape:connector-curvature="0"
         style="fill:#f79fc5" /><path
         d="m 484.902,489.31 c -0.366,-0.084 -0.729,-0.168 -1.097,-0.249 0.368,0.081 0.733,0.165 1.097,0.249 z"
         id="path94"
         inkscape:connector-curvature="0"
         style="fill:#f79fc5" /><path
         d="m 479.289,488.103 c -0.37,-0.075 -0.734,-0.151 -1.106,-0.226 0.372,0.074 0.738,0.15 1.106,0.226 z"
         id="path96"
         inkscape:connector-curvature="0"
         style="fill:#f79fc5" /><path
         d="m 533.635,505.548 c -0.085,-0.038 -0.17,-0.075 -0.254,-0.111 0.084,0.037 0.169,0.073 0.254,0.111 z"
         id="path98"
         inkscape:connector-curvature="0"
         style="fill:#f79fc5" /><path
         d="m 520.53,500.153 c -0.23,-0.087 -0.464,-0.175 -0.696,-0.264 0.232,0.09 0.465,0.176 0.696,0.264 z"
         id="path100"
         inkscape:connector-curvature="0"
         style="fill:#f79fc5" /><path
         d="m 490.412,490.626 c -0.368,-0.093 -0.736,-0.186 -1.106,-0.277 0.37,0.091 0.738,0.185 1.106,0.277 z"
         id="path102"
         inkscape:connector-curvature="0"
         style="fill:#f79fc5" /><path
         d="m 500.999,493.526 c -0.343,-0.103 -0.683,-0.203 -1.025,-0.304 0.343,0.101 0.684,0.202 1.025,0.304 z"
         id="path104"
         inkscape:connector-curvature="0"
         style="fill:#f79fc5" /><path
         d="m 529.428,503.73 c -0.149,-0.063 -0.302,-0.124 -0.449,-0.187 0.147,0.063 0.3,0.127 0.449,0.187 z"
         id="path106"
         inkscape:connector-curvature="0"
         style="fill:#f79fc5" /><path
         d="m 575.798,528.788 c -0.153,-0.107 -0.303,-0.21 -0.47,-0.325 0.165,0.113 0.319,0.219 0.47,0.325 z"
         id="path108"
         inkscape:connector-curvature="0"
         style="fill:#f79fc5" /><path
         d="m 572.865,526.8 c -0.128,-0.085 -0.248,-0.166 -0.38,-0.253 0.132,0.087 0.255,0.168 0.38,0.253 z"
         id="path110"
         inkscape:connector-curvature="0"
         style="fill:#f79fc5" /><path
         d="m 574.453,527.864 c -0.144,-0.096 -0.277,-0.189 -0.429,-0.29 0.15,0.101 0.288,0.196 0.429,0.29 z"
         id="path112"
         inkscape:connector-curvature="0"
         style="fill:#f79fc5" /><path
         d="m 495.771,492.033 c -0.358,-0.099 -0.715,-0.197 -1.075,-0.294 0.36,0.097 0.716,0.196 1.075,0.294 z"
         id="path114"
         inkscape:connector-curvature="0"
         style="fill:#f79fc5" /><path
         d="m 577.757,530.174 c -0.149,-0.109 -0.312,-0.228 -0.506,-0.364 0.185,0.131 0.361,0.257 0.506,0.364 z"
         id="path116"
         inkscape:connector-curvature="0"
         style="fill:#f79fc5" /><path
         d="m 461.501,485.193 c -0.256,-0.033 -0.512,-0.068 -0.768,-0.1 0.257,0.031 0.512,0.067 0.768,0.1 z"
         id="path118"
         inkscape:connector-curvature="0"
         style="fill:#f79fc5" /><path
         d="m 473.524,487.009 c -0.353,-0.063 -0.703,-0.13 -1.058,-0.19 0.355,0.06 0.705,0.126 1.058,0.19 z"
         id="path120"
         inkscape:connector-curvature="0"
         style="fill:#f79fc5" /><path
         d="m 576.903,529.561 c -0.157,-0.11 -0.311,-0.219 -0.488,-0.345 0.173,0.122 0.334,0.237 0.488,0.345 z"
         id="path122"
         inkscape:connector-curvature="0"
         style="fill:#f79fc5" /><path
         d="m 455.211,484.498 c -0.163,-0.016 -0.326,-0.035 -0.492,-0.051 0.168,0.016 0.329,0.036 0.492,0.051 z"
         id="path124"
         inkscape:connector-curvature="0"
         style="fill:#f79fc5" /><path
         d="M 594.524,867.562 C 479.603,831.273 427.829,663.764 554.845,579.086 c 36.094,-18.479 39.679,-30.574 22.97,-48.872 v 0 c -0.017,-0.012 -0.04,-0.029 -0.058,-0.041 -0.146,-0.105 -0.321,-0.231 -0.506,-0.364 -0.11,-0.077 -0.227,-0.16 -0.349,-0.248 -0.153,-0.107 -0.314,-0.223 -0.488,-0.345 -0.19,-0.134 -0.399,-0.278 -0.616,-0.429 -0.151,-0.105 -0.305,-0.211 -0.468,-0.325 -0.274,-0.188 -0.571,-0.389 -0.877,-0.599 -0.142,-0.095 -0.279,-0.189 -0.429,-0.29 -0.362,-0.245 -0.754,-0.506 -1.159,-0.774 -0.126,-0.085 -0.248,-0.166 -0.38,-0.253 -0.463,-0.307 -0.957,-0.627 -1.469,-0.96 -0.097,-0.062 -0.184,-0.12 -0.281,-0.182 -0.604,-0.391 -1.243,-0.799 -1.912,-1.221 -0.014,-0.01 -0.027,-0.019 -0.041,-0.027 -7.042,-4.443 -17.652,-10.594 -31.076,-16.775 -0.04,-0.018 -0.079,-0.035 -0.116,-0.053 -1.294,-0.596 -2.612,-1.188 -3.955,-1.781 -0.085,-0.038 -0.17,-0.075 -0.254,-0.111 -1.296,-0.57 -2.612,-1.139 -3.953,-1.706 -0.149,-0.063 -0.302,-0.124 -0.451,-0.187 -1.285,-0.542 -2.59,-1.079 -3.917,-1.613 -0.197,-0.078 -0.397,-0.158 -0.597,-0.236 -1.293,-0.518 -2.603,-1.031 -3.934,-1.541 -0.232,-0.088 -0.466,-0.175 -0.696,-0.264 -1.304,-0.495 -2.623,-0.983 -3.961,-1.468 -0.276,-0.101 -0.552,-0.197 -0.829,-0.297 -1.315,-0.471 -2.644,-0.937 -3.99,-1.395 -0.301,-0.103 -0.604,-0.204 -0.905,-0.307 -1.333,-0.448 -2.678,-0.89 -4.038,-1.324 -0.333,-0.106 -0.665,-0.212 -1,-0.317 -1.356,-0.428 -2.727,-0.847 -4.11,-1.257 -0.341,-0.103 -0.685,-0.203 -1.025,-0.303 -1.388,-0.406 -2.79,-0.802 -4.203,-1.189 -0.358,-0.099 -0.717,-0.197 -1.075,-0.294 -1.415,-0.383 -2.845,-0.752 -4.283,-1.113 -0.368,-0.092 -0.736,-0.186 -1.106,-0.277 -1.453,-0.356 -2.924,-0.702 -4.404,-1.039 -0.363,-0.084 -0.729,-0.168 -1.097,-0.249 -1.491,-0.333 -2.997,-0.649 -4.516,-0.957 -0.368,-0.074 -0.736,-0.151 -1.106,-0.226 -1.539,-0.305 -3.094,-0.592 -4.659,-0.869 -0.353,-0.063 -0.703,-0.13 -1.058,-0.19 -1.62,-0.28 -3.254,-0.54 -4.897,-0.79 -0.306,-0.045 -0.604,-0.095 -0.91,-0.14 -1.704,-0.252 -3.427,-0.481 -5.157,-0.695 -0.258,-0.033 -0.512,-0.068 -0.768,-0.1 -1.827,-0.221 -3.668,-0.416 -5.522,-0.595 -0.163,-0.016 -0.324,-0.035 -0.49,-0.051 -7.571,-0.71 -15.364,-1.042 -23.33,-0.931 -4.905,0.069 -9.874,0.301 -14.904,0.733 -0.092,0.008 -0.183,0.02 -0.275,0.028 -2.07,0.181 -4.151,0.394 -6.24,0.642 -0.38,0.044 -0.764,0.103 -1.146,0.15 -1.806,0.225 -3.616,0.464 -5.436,0.741 -0.545,0.082 -1.093,0.182 -1.64,0.27 -1.662,0.266 -3.323,0.543 -4.994,0.854 -0.658,0.123 -1.319,0.263 -1.977,0.393 -1.569,0.308 -3.137,0.624 -4.713,0.975 -0.732,0.161 -1.469,0.343 -2.203,0.514 -1.51,0.353 -3.021,0.713 -4.54,1.104 -0.787,0.204 -1.578,0.425 -2.368,0.64 -1.467,0.397 -2.933,0.803 -4.407,1.238 -0.839,0.249 -1.682,0.515 -2.523,0.775 -1.43,0.443 -2.86,0.895 -4.294,1.374 -0.88,0.294 -1.76,0.604 -2.642,0.911 -1.4,0.491 -2.802,0.991 -4.207,1.517 -0.912,0.343 -1.829,0.697 -2.744,1.056 -1.378,0.539 -2.758,1.091 -4.141,1.665 -0.94,0.391 -1.884,0.794 -2.826,1.202 -1.354,0.586 -2.709,1.188 -4.067,1.81 -0.973,0.446 -1.947,0.901 -2.922,1.367 -1.332,0.635 -2.667,1.287 -4,1.957 -0.992,0.498 -1.986,1.005 -2.979,1.522 -1.329,0.692 -2.657,1.404 -3.986,2.133 -0.998,0.548 -1.996,1.099 -2.996,1.665 -1.321,0.751 -2.644,1.526 -3.967,2.312 -1.012,0.602 -2.023,1.206 -3.036,1.828 -1.311,0.806 -2.622,1.643 -3.933,2.485 -1.023,0.658 -2.047,1.313 -3.069,1.995 -1.303,0.866 -2.606,1.765 -3.907,2.669 -1.03,0.713 -2.058,1.423 -3.087,2.16 -1.306,0.936 -2.61,1.906 -3.916,2.88 -1.021,0.764 -2.045,1.519 -3.068,2.307 -1.308,1.005 -2.612,2.052 -3.918,3.096 -1.023,0.818 -2.045,1.624 -3.066,2.467 -1.312,1.081 -2.619,2.208 -3.93,3.329 -1.013,0.866 -2.024,1.718 -3.036,2.608 -1.321,1.166 -2.64,2.381 -3.961,3.589 -0.996,0.914 -1.994,1.807 -2.99,2.744 -1.347,1.266 -2.687,2.588 -4.029,3.899 -0.965,0.941 -1.932,1.859 -2.896,2.826 -1.4,1.405 -2.798,2.873 -4.197,4.33 -0.901,0.939 -1.804,1.847 -2.703,2.808 -1.555,1.657 -3.104,3.386 -4.653,5.108 -0.739,0.821 -1.477,1.604 -2.215,2.439 -2.286,2.591 -4.565,5.25 -6.839,7.984 -148.156,178.231 86.655,360.188 283.821,441.088 55.454,22.751 102.908,45.03 143.85,64.623 59.136,28.301 104.675,51.001 141.082,61.442 2.8,0.804 5.548,1.534 8.24,2.189 10.778,2.618 20.725,4.03 29.967,4.039 2.312,0 4.578,-0.084 6.804,-0.26 4.45,-0.354 8.732,-1.068 12.864,-2.171 4.133,-1.103 8.112,-2.593 11.957,-4.494 2.131,-1.054 4.125,-2.168 6.145,-3.268 v 0 C 863.037,1010.105 727.174,916.203 594.524,867.562 Z"
         id="path126"
         inkscape:connector-curvature="0"
         style="fill:#f47fab" /></g></g></svg>