<?xml version="1.0" encoding="UTF-8" standalone="no"?>
<!-- Generator: Adobe Illustrator 16.0.3, SVG Export Plug-In . SVG Version: 6.00 Build 0)  -->

<svg
   xmlns:dc="http://purl.org/dc/elements/1.1/"
   xmlns:cc="http://creativecommons.org/ns#"
   xmlns:rdf="http://www.w3.org/1999/02/22-rdf-syntax-ns#"
   xmlns:svg="http://www.w3.org/2000/svg"
   xmlns="http://www.w3.org/2000/svg"
   xmlns:sodipodi="http://sodipodi.sourceforge.net/DTD/sodipodi-0.dtd"
   xmlns:inkscape="http://www.inkscape.org/namespaces/inkscape"
   version="1.1"
   id="Layer_1"
   x="0px"
   y="0px"
   width="1099.9988"
   height="745.00208"
   viewBox="0 0 1099.9988 745.00208"
   enable-background="new 0 0 1200 1200"
   xml:space="preserve"
   sodipodi:docname="rgo-humano-do-fgado-by-Vexels.svg"
   inkscape:version="0.92.1 r15371"><metadata
     id="metadata19"><rdf:RDF><cc:Work
         rdf:about=""><dc:format>image/svg+xml</dc:format><dc:type
           rdf:resource="http://purl.org/dc/dcmitype/StillImage" /><dc:title></dc:title></cc:Work></rdf:RDF></metadata><defs
     id="defs17" /><sodipodi:namedview
     pagecolor="#ffffff"
     bordercolor="#666666"
     borderopacity="1"
     objecttolerance="10"
     gridtolerance="10"
     guidetolerance="10"
     inkscape:pageopacity="0"
     inkscape:pageshadow="2"
     inkscape:window-width="1680"
     inkscape:window-height="987"
     id="namedview15"
     showgrid="false"
     fit-margin-top="0"
     fit-margin-left="0"
     fit-margin-right="0"
     fit-margin-bottom="0"
     inkscape:zoom="0.19666667"
     inkscape:cx="549.99935"
     inkscape:cy="372.50069"
     inkscape:window-x="-8"
     inkscape:window-y="-8"
     inkscape:window-maximized="1"
     inkscape:current-layer="Layer_1" /><g
     id="g12"
     transform="translate(-50.000645,-227.4986)"><g
       id="g10"><path
         d="m 458.792,887.543 c -20.671,39.891 -33.608,66.971 -3.761,80.781 29.847,13.812 56.5,-8.121 73.203,-43.893 10.028,-21.475 19.885,-66.672 26.165,-99.383 -20.663,7.176 -49.476,16.35 -82.341,24.463 -3.283,13.688 -7.595,27.089 -13.266,38.032 z m 32.437,61.291 c -15.408,11.977 -34.94,0.877 -34.94,0.877 -4.843,-6.01 -5.792,-13.264 10.297,-17.211 16.087,-3.947 40.051,4.359 24.643,16.334 z"
         id="path2"
         inkscape:connector-curvature="0"
         style="fill:#f47fab" /><path
         d="M 1149.992,599.666 C 1151.633,527.501 879.231,459.041 782.021,409.754 684.811,360.467 587.044,162.921 377.996,248.905 168.949,334.89 153.053,560.573 133.719,638.827 114.381,717.084 33.3,838.57 53.087,871.408 c 19.788,32.836 115.083,-17.252 242.997,-4.08 57.45,5.918 122.133,-4.521 175.973,-17.816 32.865,-8.113 61.678,-17.287 82.343,-24.463 20.852,-7.24 33.411,-12.443 33.411,-12.443 0,0 0.851,-1.186 6.205,-1.764 4.961,-43.357 5.13,-102.477 -19.202,-185.436 -32.003,-113.338 -87.209,-260.57 -36.846,-209.016 -0.457,-0.664 52.176,98.32 81.229,203.967 22.396,72.281 33.737,147.672 37.675,195.781 123.215,2.184 491.554,-147.452 493.12,-216.472 z"
         id="path4"
         inkscape:connector-curvature="0"
         style="fill:#f79fc5" /><path
         d="m 537.968,416.391 c -50.361,-51.554 4.845,95.678 36.848,209.016 24.332,82.959 24.161,142.078 19.202,185.436 -1.839,16.066 -4.327,29.986 -6.479,42.129 -5.201,25.311 67.391,34.375 70.423,9.314 0.973,-7.605 0.725,-23.988 -1.089,-46.146 C 652.935,768.031 641.595,692.642 619.198,620.359 590.144,514.711 537.511,415.727 537.968,416.391 Z"
         id="path6"
         inkscape:connector-curvature="0"
         style="fill:#f47fab" /><path
         d="m 466.585,932.5 c -16.089,3.947 -15.14,11.201 -10.295,17.211 0,0 19.53,11.1 34.938,-0.877 15.409,-11.975 -8.555,-20.281 -24.643,-16.334 z"
         id="path8"
         inkscape:connector-curvature="0"
         style="fill:#f79fc5" /></g></g></svg>