<?xml version="1.0" encoding="UTF-8" standalone="no"?>
<!--Designed by Vexels.com - 2017 All Rights Reserved - https://vexels.com/terms-and-conditions/-->

<svg
   xmlns:dc="http://purl.org/dc/elements/1.1/"
   xmlns:cc="http://creativecommons.org/ns#"
   xmlns:rdf="http://www.w3.org/1999/02/22-rdf-syntax-ns#"
   xmlns:svg="http://www.w3.org/2000/svg"
   xmlns="http://www.w3.org/2000/svg"
   xmlns:sodipodi="http://sodipodi.sourceforge.net/DTD/sodipodi-0.dtd"
   xmlns:inkscape="http://www.inkscape.org/namespaces/inkscape"
   version="1.1"
   id="Capa_1"
   x="0px"
   y="0px"
   width="1100.0007"
   height="1044.8215"
   viewBox="0 0 1100.0007 1044.8215"
   enable-background="new 0 0 1200 1200"
   xml:space="preserve"
   sodipodi:docname="hematopoietico.svg"
   inkscape:version="0.92.1 r15371"><metadata
     id="metadata63"><rdf:RDF><cc:Work
         rdf:about=""><dc:format>image/svg+xml</dc:format><dc:type
           rdf:resource="http://purl.org/dc/dcmitype/StillImage" /><dc:title></dc:title></cc:Work></rdf:RDF></metadata><defs
     id="defs61" /><sodipodi:namedview
     pagecolor="#ffffff"
     bordercolor="#666666"
     borderopacity="1"
     objecttolerance="10"
     gridtolerance="10"
     guidetolerance="10"
     inkscape:pageopacity="0"
     inkscape:pageshadow="2"
     inkscape:window-width="1680"
     inkscape:window-height="987"
     id="namedview59"
     showgrid="false"
     fit-margin-top="0"
     fit-margin-left="0"
     fit-margin-right="0"
     fit-margin-bottom="0"
     inkscape:zoom="0.19666667"
     inkscape:cx="550.00082"
     inkscape:cy="522.41083"
     inkscape:window-x="-8"
     inkscape:window-y="-8"
     inkscape:window-maximized="1"
     inkscape:current-layer="Capa_1" /><g
     id="g56"
     transform="translate(-49.999176,-77.589244)"><g
       id="g14"><path
         d="m 1149.916,694.682 c 1.479,33.326 -16.793,62.434 -39.741,63.45 -29.267,1.295 -42.75,-25.175 -44.227,-58.499 -1.475,-33.326 15.932,-61.164 38.88,-62.184 27.82,-1.231 43.614,23.905 45.088,57.233 z"
         id="path2"
         inkscape:connector-curvature="0"
         style="fill:#f2a0a8" /><path
         d="m 1073.067,725.024 c 0,0 0.142,0.294 0.413,0.845 0.272,0.549 0.656,1.375 1.175,2.383 0.535,0.995 1.146,2.205 1.956,3.55 0.385,0.681 0.813,1.39 1.31,2.109 0.479,0.729 0.96,1.507 1.55,2.256 0.278,0.381 0.565,0.773 0.86,1.169 0.315,0.377 0.637,0.759 0.968,1.147 0.633,0.799 1.369,1.539 2.11,2.313 1.532,1.484 3.242,2.945 5.206,4.119 1.943,1.193 4.098,2.171 6.4,2.756 2.297,0.587 4.718,0.952 7.168,0.834 l 0.809,0.002 0.977,-0.094 0.974,-0.092 0.814,-0.178 c 0.536,-0.117 1.071,-0.207 1.638,-0.423 0.547,-0.203 1.124,-0.323 1.646,-0.599 0.533,-0.25 1.076,-0.457 1.591,-0.738 0.515,-0.285 1.024,-0.569 1.535,-0.849 0.974,-0.652 1.954,-1.279 2.827,-2.039 0.925,-0.687 1.701,-1.539 2.541,-2.283 0.76,-0.828 1.566,-1.589 2.229,-2.443 0.349,-0.419 0.688,-0.828 1.025,-1.234 0.312,-0.424 0.621,-0.843 0.926,-1.254 0.641,-0.806 1.174,-1.646 1.709,-2.438 0.553,-0.78 0.989,-1.591 1.458,-2.335 0.474,-0.736 0.863,-1.475 1.242,-2.163 0.776,-1.363 1.359,-2.606 1.884,-3.614 0.972,-2.058 1.528,-3.231 1.528,-3.231 l 0.01,-0.021 c 0.116,-0.238 0.401,-0.342 0.645,-0.228 0.212,0.1 0.316,0.343 0.256,0.564 0,0 -0.086,0.315 -0.25,0.912 -0.179,0.593 -0.383,1.484 -0.75,2.582 -0.385,1.092 -0.788,2.447 -1.433,3.936 -0.593,1.507 -1.355,3.18 -2.304,4.951 -0.484,0.881 -0.967,1.814 -1.561,2.729 -0.293,0.461 -0.592,0.932 -0.892,1.405 -0.331,0.457 -0.669,0.924 -1.008,1.395 -0.657,0.964 -1.473,1.858 -2.247,2.814 -0.854,0.896 -1.704,1.836 -2.706,2.668 -1.931,1.712 -4.163,3.337 -6.758,4.419 -0.624,0.321 -1.313,0.498 -1.981,0.744 -0.646,0.259 -1.391,0.413 -2.126,0.572 -0.364,0.078 -0.74,0.166 -1.095,0.231 l -0.973,0.104 -0.974,0.105 -0.122,0.016 -0.144,0.01 h -0.032 l -0.065,-0.002 -0.262,0.003 -0.522,0.002 c -2.778,0.09 -5.588,-0.35 -8.252,-1.074 -2.683,-0.706 -5.131,-2.004 -7.303,-3.438 -2.211,-1.413 -4.005,-3.203 -5.582,-4.943 -0.752,-0.902 -1.515,-1.756 -2.119,-2.675 -0.313,-0.45 -0.621,-0.892 -0.926,-1.326 -0.271,-0.449 -0.539,-0.893 -0.803,-1.325 -0.539,-0.856 -0.994,-1.709 -1.401,-2.529 -0.433,-0.81 -0.79,-1.601 -1.107,-2.349 -0.687,-1.471 -1.131,-2.832 -1.538,-3.922 -0.392,-1.09 -0.599,-1.962 -0.784,-2.552 -0.174,-0.589 -0.266,-0.902 -0.266,-0.902 -0.078,-0.258 0.073,-0.529 0.329,-0.604 0.234,-0.071 0.477,0.041 0.579,0.252 z"
         id="path4"
         inkscape:connector-curvature="0"
         style="fill:#ffb7c0" /><path
         d="m 1115.206,694.552 c 0.776,17.519 -5.255,34.437 -14.144,37.188 -13.321,4.127 -20.544,-12.275 -21.55,-34.963 -1.006,-22.684 7.905,-38.98 18.373,-36.727 10.875,2.338 16.545,16.982 17.321,34.502 z"
         id="path6"
         inkscape:connector-curvature="0"
         style="fill:#e3919f" /><path
         d="m 1112.217,694.808 c 0.646,14.581 -2.854,28.597 -8.23,30.798 -8.064,3.303 -12.619,-10.416 -13.455,-29.301 -0.838,-18.882 4.42,-32.353 10.809,-30.373 6.638,2.051 10.231,14.291 10.876,28.876 z"
         id="path8"
         inkscape:connector-curvature="0"
         style="fill:#dc8a9c" /><path
         d="m 1116.813,668.766 c 0,0 0.514,0.858 1.228,2.395 0.35,0.771 0.78,1.711 1.199,2.813 0.43,1.1 0.898,2.351 1.321,3.737 0.9,2.767 1.738,6.063 2.317,9.668 0.306,1.8 0.522,3.68 0.681,5.594 0.149,1.918 0.217,3.875 0.203,5.835 -0.034,1.96 -0.115,3.924 -0.344,5.85 -0.188,1.926 -0.511,3.812 -0.892,5.618 -0.769,3.618 -1.892,6.905 -3.14,9.583 -0.572,1.359 -1.265,2.533 -1.832,3.576 -0.61,1.03 -1.191,1.895 -1.668,2.601 -1.021,1.379 -1.645,2.122 -1.645,2.122 -0.235,0.283 -0.658,0.319 -0.939,0.083 -0.214,-0.175 -0.288,-0.453 -0.214,-0.704 l 0.01,-0.036 c 0,0 0.275,-0.922 0.814,-2.459 0.239,-0.778 0.524,-1.724 0.853,-2.804 0.273,-1.1 0.636,-2.307 0.93,-3.648 0.161,-0.666 0.325,-1.358 0.445,-2.089 0.127,-0.729 0.32,-1.461 0.421,-2.239 0.269,-1.539 0.497,-3.167 0.692,-4.854 0.186,-1.69 0.335,-3.44 0.431,-5.223 0.101,-1.78 0.153,-3.599 0.149,-5.415 0.021,-1.817 -0.043,-3.642 -0.104,-5.439 -0.096,-1.795 -0.184,-3.566 -0.331,-5.283 -0.128,-1.716 -0.294,-3.375 -0.459,-4.955 -0.182,-1.575 -0.329,-3.077 -0.511,-4.458 -0.361,-2.761 -0.696,-5.073 -0.94,-6.698 -0.249,-1.62 -0.389,-2.546 -0.389,-2.546 -0.082,-0.506 0.265,-0.982 0.769,-1.063 0.386,-0.063 0.755,0.126 0.945,0.438 z"
         id="path10"
         inkscape:connector-curvature="0"
         style="fill:#ffb7c0" /><path
         d="m 1140.484,720.819 c -0.777,2.878 -1.604,5.492 -2.424,7.779 -0.4,1.149 -0.792,2.214 -1.179,3.193 -0.376,0.984 -0.73,1.884 -1.072,2.687 -0.66,1.616 -1.222,2.873 -1.608,3.726 -0.383,0.854 -0.587,1.312 -0.587,1.312 0,0 0.226,-0.447 0.647,-1.281 0.429,-0.837 1.047,-2.065 1.783,-3.654 0.382,-0.784 0.779,-1.669 1.2,-2.637 0.437,-0.962 0.88,-2.016 1.337,-3.148 0.928,-2.254 1.884,-4.844 2.808,-7.71 1.849,-5.728 3.448,-12.643 4.021,-20.211 0.294,-3.779 0.292,-7.717 0.014,-11.7 -0.274,-3.989 -0.878,-8.015 -1.731,-11.986 -0.835,-3.974 -1.973,-7.881 -3.235,-11.667 -1.302,-3.78 -2.626,-7.434 -4.347,-10.975 -1.535,-3.105 -3.367,-5.98 -5.433,-8.521 -6.891,-5.859 -15.544,-9.03 -25.851,-8.575 -1.189,0.054 -2.36,0.197 -3.518,0.391 0.125,0.021 0.247,0.046 0.377,0.05 l 0.018,0.002 c 0,0 0.487,0.017 1.403,0.048 0.894,0.04 2.179,0.103 3.79,0.31 3.205,0.415 7.813,1.423 12.597,4.267 2.381,1.417 4.783,3.287 6.997,5.636 2.217,2.336 4.236,5.151 5.979,8.295 1.699,3.127 3.203,6.699 4.627,10.294 1.4,3.616 2.678,7.342 3.67,11.149 1.002,3.8 1.773,7.664 2.217,11.514 0.453,3.848 0.635,7.674 0.525,11.373 -0.213,7.405 -1.458,14.283 -3.025,20.039 z"
         id="path12"
         inkscape:connector-curvature="0"
         style="fill:#e3919f" /></g><g
       id="g28"><path
         d="m 350.671,252.365 c -15.93,86.374 -80.028,150.24 -139.504,139.274 -75.848,-13.99 -94.782,-89.881 -78.853,-176.253 15.932,-86.37 77.058,-147.491 136.534,-136.524 72.109,13.297 97.753,87.129 81.823,173.503 z"
         id="path16"
         inkscape:connector-curvature="0"
         style="fill:#cc727a" /><path
         d="m 135.555,284.743 c 0,0 0.19,0.839 0.562,2.415 0.373,1.568 0.868,3.918 1.601,6.808 0.786,2.867 1.636,6.334 2.92,10.264 0.584,1.974 1.265,4.049 2.113,6.187 0.794,2.153 1.574,4.433 2.64,6.704 0.491,1.146 1,2.318 1.516,3.51 0.588,1.15 1.19,2.323 1.806,3.515 1.153,2.423 2.599,4.76 4.045,7.181 3.056,4.718 6.574,9.481 10.919,13.652 4.282,4.209 9.229,7.989 14.79,10.857 5.548,2.865 11.539,5.23 17.896,6.378 l 2.077,0.483 2.559,0.339 2.553,0.341 2.195,0.026 c 1.445,0.014 2.87,0.105 4.448,-0.118 1.525,-0.195 3.077,-0.165 4.582,-0.561 1.515,-0.325 3.034,-0.537 4.517,-0.954 1.485,-0.427 2.968,-0.854 4.444,-1.271 2.88,-1.096 5.766,-2.124 8.452,-3.555 2.784,-1.214 5.28,-2.941 7.873,-4.356 2.44,-1.673 4.957,-3.149 7.168,-4.95 1.138,-0.868 2.254,-1.72 3.357,-2.558 1.054,-0.904 2.096,-1.795 3.121,-2.669 2.115,-1.688 3.983,-3.53 5.825,-5.244 1.882,-1.675 3.477,-3.501 5.117,-5.131 1.656,-1.609 3.094,-3.268 4.471,-4.81 2.802,-3.04 5.033,-5.884 6.971,-8.159 3.712,-4.706 5.834,-7.39 5.834,-7.39 l 0.031,-0.048 c 0.441,-0.547 1.235,-0.643 1.788,-0.206 0.487,0.386 0.613,1.068 0.325,1.603 0,0 -0.411,0.759 -1.185,2.191 -0.805,1.415 -1.856,3.58 -3.447,6.181 -1.636,2.574 -3.475,5.81 -6.007,9.25 -2.413,3.515 -5.358,7.356 -8.843,11.336 -1.759,1.978 -3.551,4.085 -5.618,6.079 -1.021,1.008 -2.062,2.039 -3.113,3.077 -1.121,0.978 -2.265,1.974 -3.413,2.983 -2.257,2.084 -4.877,3.894 -7.43,5.888 -2.722,1.79 -5.456,3.706 -8.52,5.246 -5.972,3.251 -12.655,6.096 -19.953,7.337 -1.788,0.461 -3.668,0.501 -5.522,0.74 -1.812,0.275 -3.812,0.237 -5.793,0.21 -0.977,-0.015 -2,-0.015 -2.944,-0.057 l -2.561,-0.305 -2.562,-0.306 -0.319,-0.032 -0.376,-0.062 -0.081,-0.021 -0.166,-0.041 -0.675,-0.146 -1.339,-0.307 c -7.183,-1.411 -14.134,-4.201 -20.534,-7.64 -6.47,-3.395 -11.98,-8.175 -16.704,-13.142 -4.835,-4.932 -8.376,-10.586 -11.396,-15.98 -1.396,-2.76 -2.846,-5.398 -3.855,-8.12 -0.539,-1.337 -1.067,-2.654 -1.587,-3.945 -0.435,-1.315 -0.859,-2.612 -1.279,-3.878 -0.878,-2.513 -1.538,-4.97 -2.099,-7.318 -0.631,-2.331 -1.08,-4.574 -1.449,-6.68 -0.895,-4.177 -1.228,-7.937 -1.627,-10.972 -0.36,-3.032 -0.373,-5.391 -0.503,-7.01 -0.098,-1.612 -0.144,-2.475 -0.144,-2.475 -0.048,-0.708 0.495,-1.314 1.202,-1.356 0.633,-0.039 1.188,0.394 1.326,0.992 z"
         id="path18"
         inkscape:connector-curvature="0"
         style="fill:#e98f9a" /><path
         d="m 261.691,231.498 c -8.371,45.402 -33.854,85.24 -58.288,87.037 -36.615,2.71 -45.444,-43.645 -34.598,-102.446 10.839,-58.791 43.341,-95.329 68.866,-83.353 26.514,12.434 32.394,53.356 24.02,98.762 z"
         id="path20"
         inkscape:connector-curvature="0"
         style="fill:#ac5c6a" /><path
         d="m 253.873,230.385 c -6.968,37.792 -24.238,71.68 -39.338,74.141 -22.642,3.705 -26.214,-34.185 -17.185,-83.128 9.022,-48.938 30.48,-80.391 45.703,-71.53 15.817,9.192 17.795,42.718 10.82,80.517 z"
         id="path22"
         inkscape:connector-curvature="0"
         style="fill:#9c5262" /><path
         d="m 281.068,166.292 c 0,0 0.811,2.507 1.732,6.869 0.444,2.186 0.991,4.852 1.413,7.928 0.453,3.075 0.916,6.56 1.183,10.371 0.675,7.626 0.873,16.584 0.226,26.174 -0.279,4.798 -0.84,9.745 -1.564,14.752 -0.75,5.01 -1.736,10.07 -2.934,15.09 -1.245,5.007 -2.616,10 -4.341,14.804 -1.62,4.826 -3.564,9.476 -5.611,13.887 -4.111,8.825 -8.943,16.599 -13.729,22.727 -2.266,3.151 -4.738,5.752 -6.815,8.095 -2.174,2.281 -4.175,4.155 -5.815,5.684 -3.438,2.931 -5.471,4.471 -5.471,4.471 -0.774,0.587 -1.88,0.432 -2.465,-0.345 -0.442,-0.575 -0.469,-1.336 -0.13,-1.929 l 0.049,-0.091 c 0,0 1.247,-2.204 3.542,-5.828 1.073,-1.852 2.365,-4.107 3.85,-6.684 1.35,-2.66 2.987,-5.546 4.54,-8.814 0.805,-1.611 1.639,-3.291 2.381,-5.094 0.755,-1.794 1.683,-3.558 2.403,-5.494 1.599,-3.792 3.147,-7.831 4.647,-12.046 1.476,-4.225 2.892,-8.625 4.191,-13.142 1.315,-4.507 2.522,-9.141 3.588,-13.805 1.13,-4.651 2.044,-9.369 2.952,-14.014 0.818,-4.662 1.639,-9.26 2.277,-13.752 0.687,-4.479 1.241,-8.838 1.756,-12.984 0.469,-4.151 0.978,-8.087 1.323,-11.737 0.71,-7.298 1.219,-13.433 1.551,-17.745 0.321,-4.301 0.513,-6.762 0.513,-6.762 0.09,-1.347 1.257,-2.361 2.603,-2.27 1.022,0.07 1.856,0.774 2.155,1.684 z"
         id="path24"
         inkscape:connector-curvature="0"
         style="fill:#e98f9a" /><path
         d="m 311.008,313.841 c -3.702,6.927 -7.368,13.146 -10.824,18.528 -1.707,2.708 -3.341,5.211 -4.914,7.492 -1.545,2.303 -2.983,4.404 -4.337,6.258 -2.654,3.762 -4.837,6.648 -6.332,8.607 -1.488,1.97 -2.281,3.016 -2.281,3.016 0,0 0.843,-1.012 2.421,-2.901 1.591,-1.895 3.903,-4.678 6.735,-8.318 1.443,-1.784 2.985,-3.825 4.639,-6.055 1.688,-2.212 3.45,-4.65 5.29,-7.286 3.718,-5.239 7.697,-11.316 11.763,-18.125 8.135,-13.597 16.327,-30.391 22.274,-49.47 2.993,-9.52 5.318,-19.624 6.959,-30.01 1.66,-10.392 2.492,-21.077 2.654,-31.771 0.203,-10.695 -0.405,-21.388 -1.403,-31.848 -1.1,-10.472 -2.335,-20.624 -4.655,-30.729 -2.104,-8.877 -5.102,-17.335 -8.894,-25.076 -14.215,-19.107 -34.537,-32.362 -61.254,-37.29 -3.079,-0.569 -6.167,-0.895 -9.252,-1.086 0.31,0.13 0.606,0.268 0.939,0.355 l 0.042,0.012 c 0,0 1.239,0.331 3.572,0.954 2.268,0.631 5.526,1.553 9.54,3.041 7.979,2.96 19.2,8.269 29.794,18.396 5.272,5.042 10.329,11.262 14.618,18.595 4.305,7.312 7.819,15.728 10.424,24.818 2.517,9.03 4.261,19.087 5.787,29.151 1.451,10.103 2.526,20.42 2.818,30.773 0.321,10.344 0.012,20.716 -1.128,30.854 -1.111,10.139 -2.909,20.062 -5.38,29.487 -4.927,18.878 -12.193,35.794 -19.615,49.628 z"
         id="path26"
         inkscape:connector-curvature="0"
         style="fill:#ac5c6a" /></g><g
       id="g42"><path
         d="m 203.912,711.969 c 17.687,58.638 -1.677,118.69 -42.052,130.87 -51.491,15.529 -87.449,-25.482 -105.136,-84.117 -17.684,-58.636 0.711,-116.04 41.088,-128.22 48.953,-14.767 88.415,22.827 106.1,81.467 z"
         id="path30"
         inkscape:connector-curvature="0"
         style="fill:#f2a0a8" /><path
         d="m 80.867,800.688 c 0,0 0.385,0.461 1.119,1.32 0.73,0.853 1.788,2.151 3.165,3.71 1.401,1.525 3.034,3.405 5.085,5.431 0.99,1.038 2.074,2.105 3.285,3.163 1.18,1.08 2.389,2.245 3.774,3.313 0.672,0.553 1.36,1.117 2.062,1.691 0.73,0.525 1.477,1.061 2.239,1.604 1.488,1.135 3.133,2.123 4.801,3.163 3.399,1.949 7.102,3.777 11.125,4.979 3.999,1.243 8.273,2.009 12.637,2.012 4.353,0.006 8.824,-0.439 13.131,-1.755 l 1.441,-0.365 1.694,-0.606 1.692,-0.604 1.369,-0.683 c 0.9,-0.451 1.812,-0.851 2.722,-1.491 0.881,-0.61 1.854,-1.087 2.66,-1.812 0.835,-0.685 1.711,-1.3 2.497,-2.032 0.786,-0.738 1.566,-1.475 2.351,-2.205 1.434,-1.599 2.896,-3.159 4.105,-4.901 1.339,-1.643 2.335,-3.509 3.492,-5.215 0.977,-1.816 2.068,-3.534 2.864,-5.356 0.429,-0.902 0.849,-1.784 1.266,-2.656 0.363,-0.896 0.726,-1.784 1.083,-2.65 0.772,-1.723 1.342,-3.459 1.937,-5.113 0.634,-1.636 1.041,-3.278 1.538,-4.812 0.513,-1.526 0.876,-3.014 1.237,-4.41 0.765,-2.778 1.241,-5.253 1.717,-7.282 0.8,-4.104 1.259,-6.444 1.259,-6.444 l 0.004,-0.04 c 0.101,-0.479 0.562,-0.792 1.044,-0.696 0.425,0.083 0.721,0.465 0.713,0.888 0,0 -0.013,0.603 -0.034,1.738 -0.048,1.134 -0.012,2.812 -0.166,4.93 -0.193,2.119 -0.301,4.712 -0.772,7.653 -0.373,2.949 -0.974,6.272 -1.865,9.851 -0.459,1.788 -0.898,3.667 -1.543,5.563 -0.313,0.95 -0.629,1.922 -0.95,2.901 -0.383,0.964 -0.772,1.946 -1.163,2.939 -0.734,2.012 -1.782,3.97 -2.727,6.021 -1.117,1.978 -2.201,4.037 -3.61,5.973 -2.664,3.92 -5.899,7.817 -10.028,10.915 -0.962,0.856 -2.113,1.482 -3.19,2.22 -1.034,0.75 -2.287,1.364 -3.522,1.979 -0.611,0.303 -1.244,0.631 -1.845,0.905 l -1.685,0.627 -1.686,0.627 -0.208,0.082 -0.255,0.082 -0.055,0.016 -0.115,0.027 -0.467,0.124 -0.927,0.237 c -4.905,1.417 -10.104,1.904 -15.169,1.816 -5.095,-0.04 -10.038,-1.247 -14.551,-2.818 -4.572,-1.515 -8.573,-3.891 -12.166,-6.272 -1.746,-1.267 -3.488,-2.438 -4.981,-3.804 -0.762,-0.658 -1.509,-1.305 -2.243,-1.941 -0.688,-0.675 -1.366,-1.343 -2.031,-1.994 -1.347,-1.279 -2.54,-2.592 -3.636,-3.869 -1.138,-1.243 -2.13,-2.491 -3.032,-3.679 -1.888,-2.305 -3.291,-4.528 -4.51,-6.282 -1.189,-1.768 -1.95,-3.225 -2.549,-4.188 -0.574,-0.968 -0.878,-1.485 -0.878,-1.485 -0.256,-0.425 -0.11,-0.976 0.312,-1.225 0.38,-0.231 0.86,-0.139 1.139,0.185 z"
         id="path32"
         inkscape:connector-curvature="0"
         style="fill:#ffb7c0" /><path
         d="m 142.083,727.424 c 9.3,30.821 6.211,63.655 -8.364,72.567 -21.837,13.363 -42.104,-12.559 -54.144,-52.479 -12.042,-39.91 -3.55,-72.937 16.1,-73.657 20.406,-0.752 37.112,22.745 46.408,53.569 z"
         id="path34"
         inkscape:connector-curvature="0"
         style="fill:#e3919f" /><path
         d="m 136.882,729.229 c 7.738,25.655 7.846,52.178 -0.732,58.522 -12.857,9.523 -27.161,-12.831 -37.182,-46.058 -10.022,-33.223 -6.755,-59.571 5.51,-58.935 12.741,0.652 24.667,20.81 32.404,46.471 z"
         id="path36"
         inkscape:connector-curvature="0"
         style="fill:#dc8a9c" /><path
         d="m 133.29,680.812 c 0,0 1.303,1.295 3.267,3.706 0.973,1.212 2.16,2.69 3.407,4.465 1.263,1.762 2.658,3.775 4.041,6.053 2.854,4.514 5.832,10.004 8.492,16.157 1.358,3.063 2.59,6.311 3.737,9.646 1.134,3.345 2.136,6.797 2.996,10.292 0.826,3.502 1.57,7.034 2.031,10.564 0.539,3.509 0.816,7.012 0.954,10.4 0.268,6.783 -0.247,13.144 -1.259,18.472 -0.399,2.677 -1.103,5.079 -1.643,7.192 -0.621,2.109 -1.264,3.908 -1.793,5.381 -1.195,2.914 -1.966,4.519 -1.966,4.519 -0.293,0.612 -1.027,0.866 -1.638,0.572 -0.459,-0.217 -0.715,-0.679 -0.696,-1.155 l 0.002,-0.069 c 0,0 0.071,-1.767 0.335,-4.746 0.076,-1.491 0.157,-3.303 0.255,-5.373 -0.012,-2.079 0.084,-4.393 0.002,-6.913 -0.014,-1.257 -0.033,-2.563 -0.147,-3.917 -0.105,-1.355 -0.094,-2.744 -0.266,-4.176 -0.219,-2.861 -0.547,-5.857 -0.96,-8.95 -0.435,-3.09 -0.96,-6.271 -1.596,-9.487 -0.625,-3.214 -1.354,-6.471 -2.182,-9.705 -0.782,-3.243 -1.721,-6.459 -2.641,-9.63 -0.981,-3.151 -1.939,-6.263 -2.978,-9.252 -1.004,-2.996 -2.05,-5.877 -3.054,-8.611 -1.035,-2.723 -1.976,-5.325 -2.925,-7.701 -1.889,-4.75 -3.531,-8.716 -4.7,-11.496 -1.176,-2.768 -1.842,-4.354 -1.842,-4.354 -0.374,-0.864 0.025,-1.866 0.89,-2.239 0.659,-0.286 1.4,-0.114 1.877,0.355 z"
         id="path38"
         inkscape:connector-curvature="0"
         style="fill:#ffb7c0" /><path
         d="m 198.938,762.743 c -0.085,5.475 -0.373,10.5 -0.8,14.94 -0.193,2.225 -0.407,4.297 -0.654,6.213 -0.226,1.922 -0.447,3.684 -0.693,5.265 -0.444,3.179 -0.876,5.665 -1.179,7.357 -0.294,1.694 -0.453,2.599 -0.453,2.599 0,0 0.201,-0.897 0.576,-2.572 0.382,-1.683 0.927,-4.146 1.52,-7.307 0.327,-1.568 0.634,-3.324 0.947,-5.234 0.34,-1.91 0.651,-3.987 0.952,-6.207 0.633,-4.433 1.162,-9.472 1.511,-14.991 0.705,-11.026 0.425,-24.053 -1.976,-37.779 -1.184,-6.859 -2.964,-13.864 -5.263,-20.829 -2.285,-6.973 -5.183,-13.864 -8.492,-20.546 -3.286,-6.695 -7.076,-13.132 -11.032,-19.299 -4.023,-6.141 -8.03,-12.042 -12.692,-17.567 -4.139,-4.832 -8.697,-9.119 -13.519,-12.709 -14.91,-7.311 -31.74,-9.045 -49.879,-3.574 -2.09,0.629 -4.109,1.413 -6.081,2.279 0.231,-0.017 0.461,-0.028 0.694,-0.08 l 0.03,-0.006 c 0,0 0.874,-0.189 2.519,-0.549 1.606,-0.333 3.922,-0.799 6.887,-1.16 5.89,-0.71 14.543,-0.997 24.344,1.9 4.876,1.445 9.995,3.687 14.998,6.865 5.001,3.157 9.866,7.255 14.383,12.061 4.44,4.797 8.731,10.477 12.889,16.229 4.125,5.802 8.084,11.854 11.567,18.181 3.502,6.311 6.619,12.841 9.147,19.488 2.547,6.642 4.599,13.369 6.075,20.001 2.968,13.278 3.86,26.083 3.674,37.031 z"
         id="path40"
         inkscape:connector-curvature="0"
         style="fill:#e3919f" /></g><path
       d="M 1017.367,667.764 C 965.819,947.257 758.389,1153.929 565.935,1118.441 320.493,1073.172 259.229,827.592 310.776,548.101 362.325,268.618 560.13,70.821 752.594,106.315 c 233.331,43.032 316.32,281.944 264.773,561.449 z"
       id="path44"
       inkscape:connector-curvature="0"
       style="fill:#ac1925" /><path
       d="m 321.248,772.528 c 0,0 0.629,2.723 1.822,7.819 1.213,5.075 2.817,12.677 5.187,22.028 2.544,9.276 5.286,20.496 9.451,33.209 1.887,6.389 4.082,13.105 6.836,20.023 2.57,6.971 5.095,14.335 8.539,21.69 1.595,3.71 3.235,7.502 4.903,11.364 1.904,3.72 3.854,7.52 5.842,11.375 3.736,7.838 8.412,15.392 13.088,23.23 9.889,15.267 21.28,30.686 35.334,44.175 13.853,13.625 29.864,25.856 47.865,35.133 17.955,9.279 37.338,16.934 57.909,20.644 l 6.716,1.566 8.276,1.094 8.266,1.104 7.109,0.082 c 4.674,0.046 9.286,0.347 14.391,-0.382 4.939,-0.63 9.961,-0.53 14.828,-1.806 4.894,-1.058 9.823,-1.74 14.617,-3.09 4.813,-1.385 9.606,-2.762 14.373,-4.11 9.323,-3.545 18.655,-6.88 27.36,-11.51 9.003,-3.928 17.079,-9.516 25.464,-14.09 7.909,-5.424 16.049,-10.198 23.193,-16.021 3.692,-2.808 7.311,-5.562 10.873,-8.276 3.417,-2.926 6.791,-5.813 10.106,-8.641 6.837,-5.467 12.888,-11.418 18.848,-16.96 6.089,-5.424 11.247,-11.338 16.561,-16.604 5.35,-5.213 9.998,-10.581 14.463,-15.566 9.06,-9.843 16.286,-19.049 22.557,-26.403 12.013,-15.228 18.874,-23.914 18.874,-23.914 l 0.102,-0.146 c 1.431,-1.778 4.001,-2.088 5.787,-0.675 1.585,1.249 1.986,3.454 1.057,5.187 0,0 -1.33,2.459 -3.838,7.081 -2.606,4.584 -6.004,11.593 -11.154,20.005 -5.285,8.328 -11.236,18.8 -19.438,29.93 -7.803,11.382 -17.335,23.814 -28.608,36.691 -5.697,6.397 -11.493,13.215 -18.183,19.667 -3.309,3.262 -6.662,6.6 -10.08,9.961 -3.627,3.163 -7.318,6.39 -11.045,9.651 -7.292,6.745 -15.777,12.597 -24.042,19.059 -8.795,5.786 -17.645,11.984 -27.561,16.968 -19.331,10.518 -40.958,19.731 -64.571,23.743 -5.779,1.494 -11.875,1.622 -17.872,2.396 -5.859,0.893 -12.331,0.765 -18.737,0.683 -3.163,-0.054 -6.472,-0.046 -9.533,-0.182 l -8.284,-0.992 -8.286,-0.985 -1.038,-0.108 -1.213,-0.201 -0.264,-0.063 -0.537,-0.128 -2.178,-0.483 -4.34,-0.985 c -23.248,-4.564 -45.74,-13.597 -66.447,-24.725 -20.934,-10.982 -38.771,-26.449 -54.054,-42.517 -15.639,-15.966 -27.105,-34.267 -36.875,-51.721 -4.521,-8.93 -9.214,-17.471 -12.476,-26.274 -1.75,-4.328 -3.454,-8.585 -5.141,-12.769 -1.404,-4.256 -2.771,-8.447 -4.139,-12.549 -2.844,-8.13 -4.976,-16.077 -6.788,-23.679 -2.043,-7.546 -3.5,-14.8 -4.686,-21.617 -2.897,-13.516 -3.983,-25.673 -5.269,-35.498 -1.166,-9.815 -1.203,-17.444 -1.631,-22.684 -0.311,-5.223 -0.465,-8.011 -0.465,-8.011 -0.146,-2.297 1.604,-4.257 3.892,-4.393 2.053,-0.127 3.847,1.267 4.284,3.2 z"
       id="path46"
       inkscape:connector-curvature="0"
       style="fill:#c9283c" /><path
       d="M 729.428,600.232 C 702.342,747.149 619.871,876.059 540.818,881.881 422.32,890.65 393.758,740.655 428.854,550.38 463.934,360.134 569.106,241.892 651.705,280.649 c 85.796,40.231 104.826,172.66 77.723,319.583 z"
       id="path48"
       inkscape:connector-curvature="0"
       style="fill:#8c1126" /><path
       d="m 704.137,596.631 c -22.558,122.289 -78.443,231.945 -127.311,239.92 -73.257,11.984 -84.813,-110.622 -55.603,-269.006 29.209,-158.361 98.638,-260.13 147.896,-231.462 51.175,29.752 57.574,138.245 35.018,260.548 z"
       id="path50"
       inkscape:connector-curvature="0"
       style="fill:#7c0e26" /><path
       d="m 792.129,389.234 c 0,0 2.625,8.106 5.604,22.225 1.44,7.075 3.209,15.702 4.576,25.654 1.467,9.947 2.972,21.227 3.829,33.561 2.186,24.677 2.824,53.672 0.729,84.699 -0.903,15.521 -2.716,31.534 -5.068,47.729 -2.415,16.209 -5.604,32.592 -9.486,48.837 -4.029,16.199 -8.468,32.358 -14.044,47.896 -5.242,15.626 -11.539,30.664 -18.156,44.941 -13.306,28.563 -28.944,53.715 -44.429,73.538 -7.328,10.198 -15.329,18.62 -22.055,26.193 -7.037,7.392 -13.507,13.451 -18.821,18.391 -11.128,9.487 -17.708,14.465 -17.708,14.465 -2.497,1.905 -6.069,1.411 -7.965,-1.104 -1.431,-1.868 -1.522,-4.329 -0.429,-6.243 l 0.165,-0.291 c 0,0 4.037,-7.137 11.464,-18.865 3.464,-5.989 7.655,-13.288 12.459,-21.636 4.366,-8.596 9.661,-17.938 14.69,-28.509 2.599,-5.223 5.296,-10.653 7.703,-16.496 2.442,-5.796 5.44,-11.5 7.773,-17.771 5.177,-12.268 10.188,-25.346 15.037,-38.984 4.776,-13.666 9.351,-27.903 13.562,-42.517 4.265,-14.596 8.166,-29.574 11.611,-44.676 3.655,-15.051 6.615,-30.316 9.551,-45.346 2.652,-15.096 5.305,-29.97 7.374,-44.501 2.214,-14.496 4.018,-28.599 5.685,-42.016 1.506,-13.435 3.156,-26.165 4.276,-37.98 2.297,-23.619 3.945,-43.47 5.021,-57.422 1.048,-13.922 1.658,-21.883 1.658,-21.883 0.293,-4.355 4.065,-7.647 8.422,-7.345 3.31,0.234 6.006,2.507 6.972,5.456 z"
       id="path52"
       inkscape:connector-curvature="0"
       style="fill:#c9283c" /><path
       d="m 889.009,866.69 c -11.975,22.411 -23.841,42.534 -35.015,59.959 -5.522,8.759 -10.818,16.861 -15.912,24.243 -4.995,7.456 -9.651,14.254 -14.037,20.251 -8.584,12.166 -15.639,21.518 -20.486,27.852 -4.813,6.369 -7.374,9.76 -7.374,9.76 0,0 2.726,-3.271 7.829,-9.395 5.15,-6.126 12.631,-15.129 21.791,-26.914 4.676,-5.777 9.661,-12.377 15.02,-19.594 5.46,-7.154 11.156,-15.046 17.107,-23.577 12.038,-16.953 24.916,-36.619 38.066,-58.647 26.331,-44.002 52.834,-98.337 72.081,-160.078 9.681,-30.818 17.207,-63.51 22.521,-97.121 5.368,-33.616 8.057,-68.203 8.595,-102.805 0.655,-34.612 -1.314,-69.205 -4.548,-103.049 -3.555,-33.889 -7.556,-66.75 -15.065,-99.448 C 972.774,279.399 963.067,252.036 950.8,226.987 904.813,165.15 839.048,122.26 752.594,106.315 c -9.97,-1.842 -19.959,-2.902 -29.947,-3.513 1.012,0.415 1.968,0.864 3.044,1.147 l 0.136,0.036 c 0,0 4.011,1.077 11.557,3.085 7.338,2.042 17.882,5.031 30.878,9.852 25.818,9.565 62.128,26.754 96.414,59.52 17.062,16.317 33.421,36.445 47.301,60.177 13.936,23.649 25.3,50.891 33.729,80.31 8.139,29.221 13.79,61.771 18.729,94.329 4.692,32.691 8.166,66.085 9.114,99.577 1.038,33.475 0.036,67.04 -3.646,99.846 -3.6,32.81 -9.415,64.912 -17.416,95.417 -15.94,61.09 -39.454,115.825 -63.478,160.592 z"
       id="path54"
       inkscape:connector-curvature="0"
       style="fill:#8c1126" /></g></svg>