<?xml version="1.0" encoding="utf-8"?>
<!-- Generator: Adobe Illustrator 16.0.3, SVG Export Plug-In . SVG Version: 6.00 Build 0)  -->
<!DOCTYPE svg PUBLIC "-//W3C//DTD SVG 1.1//EN" "http://www.w3.org/Graphics/SVG/1.1/DTD/svg11.dtd">
<svg version="1.1" id="Layer_1" xmlns="http://www.w3.org/2000/svg" xmlns:xlink="http://www.w3.org/1999/xlink" x="0px" y="0px"
	 width="1200px" height="1200px" viewBox="0 0 1200 1200" enable-background="new 0 0 1200 1200" xml:space="preserve">
<g>
	<g>
		<path fill="#B4A3E1" d="M222.635,343.151c0.191-1.135,0.362-2.274,0.569-3.41C222.995,340.876,222.826,342.016,222.635,343.151z"
			/>
		<path fill="#B4A3E1" d="M236.191,1010.963c1.675-1.144,3.384-2.386,5.079-3.589
			C239.575,1008.577,237.866,1009.819,236.191,1010.963z"/>
		<path fill="#B4A3E1" d="M317.15,685.067c-0.295-0.464-0.58-0.911-0.886-1.392C316.57,684.156,316.855,684.604,317.15,685.067z"/>
		<path fill="#B4A3E1" d="M314.992,681.647c-0.242-0.386-0.475-0.754-0.723-1.151C314.518,680.894,314.75,681.262,314.992,681.647z"
			/>
		<path fill="#B4A3E1" d="M245.693,1004.242c1.729-1.27,3.48-2.64,5.225-3.971C249.174,1001.603,247.422,1002.973,245.693,1004.242z
			"/>
		<path fill="#B4A3E1" d="M313.087,678.589c-0.319-0.514-0.63-1.012-0.955-1.541C312.457,677.577,312.768,678.075,313.087,678.589z"
			/>
		<path fill="#B4A3E1" d="M226.913,1017.072c1.618-1.028,3.275-2.15,4.919-3.234
			C230.188,1014.922,228.531,1016.044,226.913,1017.072z"/>
		<path fill="#B4A3E1" d="M209.27,1027.549c1.478-0.819,3.016-1.721,4.532-2.591C212.288,1025.828,210.748,1026.731,209.27,1027.549
			z"/>
		<path fill="#B4A3E1" d="M217.926,1022.59c1.542-0.914,3.134-1.917,4.707-2.884C221.06,1020.673,219.468,1021.676,217.926,1022.59z
			"/>
		<path fill="#B4A3E1" d="M224.253,334.463c0.197-0.968,0.37-1.938,0.577-2.905C224.623,332.524,224.45,333.495,224.253,334.463z"/>
		<path fill="#B4A3E1" d="M229.513,482.898c-0.282-1.21-0.573-2.416-0.845-3.631C228.94,480.482,229.232,481.688,229.513,482.898z"
			/>
		<path fill="#B4A3E1" d="M294.56,960.64c2.916-3.155,5.808-6.447,8.684-9.81C300.369,954.192,297.475,957.484,294.56,960.64z"/>
		<path fill="#B4A3E1" d="M307.179,945.952c0.886-1.135,1.821-2.232,2.666-3.398C309,943.72,308.065,944.817,307.179,945.952z"/>
		<path fill="#B4A3E1" d="M221.365,351.375c0.158-1.139,0.295-2.28,0.467-3.417C221.66,349.095,221.523,350.236,221.365,351.375z"/>
		<path fill="#B4A3E1" d="M220.731,1113.232c-2.603-1.182-5.106-2.372-7.51-3.569
			C215.627,1110.862,218.129,1112.051,220.731,1113.232z"/>
		<path fill="#B4A3E1" d="M265.147,988.867c1.819-1.547,3.642-3.212,5.464-4.831C268.789,985.656,266.964,987.32,265.147,988.867z"
			/>
		<path fill="#B4A3E1" d="M255.363,996.884c1.764-1.393,3.542-2.892,5.313-4.349C258.905,993.992,257.127,995.494,255.363,996.884z"
			/>
		<path fill="#B4A3E1" d="M319.146,688.188c-0.336-0.522-0.665-1.032-1.015-1.579C318.481,687.156,318.81,687.666,319.146,688.188z"
			/>
		<path fill="#B4A3E1" d="M274.974,980.172c1.896-1.742,3.786-3.606,5.677-5.429C278.76,976.565,276.87,978.43,274.974,980.172z"/>
		<path fill="#B4A3E1" d="M303.906,663.328c-0.41-0.699-0.812-1.382-1.227-2.097C303.094,661.946,303.495,662.629,303.906,663.328z"
			/>
		<path fill="#B4A3E1" d="M219.548,368.028c0.095-1.191,0.169-2.383,0.28-3.574C219.718,365.645,219.643,366.836,219.548,368.028z"
			/>
		<path fill="#B4A3E1" d="M163.598,1071.413c-0.691-0.917-1.334-1.811-1.937-2.684
			C162.262,1069.603,162.909,1070.496,163.598,1071.413z"/>
		<path fill="#B4A3E1" d="M298.659,654.216c-0.4-0.705-0.794-1.396-1.2-2.114C297.864,652.82,298.259,653.511,298.659,654.216z"/>
		<path fill="#B4A3E1" d="M312.591,938.473c0.787-1.177,1.62-2.32,2.37-3.523C314.211,936.152,313.378,937.296,312.591,938.473z"/>
		<path fill="#B4A3E1" d="M301.202,658.668c-0.358-0.621-0.713-1.229-1.075-1.861C300.49,657.44,300.842,658.047,301.202,658.668z"
			/>
		<path fill="#B4A3E1" d="M219.007,376.107c0.059-1.124,0.101-2.247,0.171-3.371C219.107,373.86,219.066,374.983,219.007,376.107z"
			/>
		<path fill="#B4A3E1" d="M293.219,644.447c-0.406-0.74-0.807-1.467-1.215-2.219C292.412,642.98,292.814,643.707,293.219,644.447z"
			/>
		<path fill="#B4A3E1" d="M165.541,1073.902c-0.447-0.549-0.872-1.089-1.288-1.625
			C164.669,1072.813,165.094,1073.353,165.541,1073.902z"/>
		<path fill="#B4A3E1" d="M296.001,649.485c-0.41-0.734-0.813-1.453-1.227-2.201C295.188,648.032,295.594,648.751,296.001,649.485z"
			/>
		<path fill="#B4A3E1" d="M193.241,1035.856c1.288-0.622,2.646-1.319,3.977-1.984
			C195.887,1034.537,194.527,1035.234,193.241,1035.856z"/>
		<path fill="#B4A3E1" d="M308.607,671.248c-0.337-0.557-0.664-1.095-1.005-1.665C307.943,670.153,308.27,670.691,308.607,671.248z"
			/>
		<path fill="#B4A3E1" d="M185.971,1039.256c1.199-0.541,2.477-1.154,3.725-1.738
			C188.45,1038.102,187.168,1038.715,185.971,1039.256z"/>
		<path fill="#B4A3E1" d="M201.033,1031.959c1.388-0.72,2.84-1.517,4.27-2.282C203.874,1030.442,202.421,1031.239,201.033,1031.959z
			"/>
		<path fill="#B4A3E1" d="M311.004,675.201c-0.362-0.591-0.717-1.168-1.087-1.775C310.289,674.033,310.642,674.61,311.004,675.201z"
			/>
		<path fill="#B4A3E1" d="M179.28,1042.186c1.093-0.463,2.274-0.99,3.421-1.492C181.554,1041.193,180.371,1041.723,179.28,1042.186z
			"/>
		<path fill="#B4A3E1" d="M173.217,1044.668c0.988-0.392,2.069-0.843,3.118-1.272
			C175.288,1043.823,174.203,1044.277,173.217,1044.668z"/>
		<path fill="#B4A3E1" d="M220.322,359.822c0.13-1.208,0.24-2.417,0.388-3.623C220.562,357.405,220.452,358.616,220.322,359.822z"/>
		<path fill="#B4A3E1" d="M306.235,667.281c-0.351-0.591-0.693-1.165-1.05-1.768C305.541,666.116,305.884,666.69,306.235,667.281z"
			/>
		<path fill="#B4A3E1" d="M321.759,922.547c0.632-1.283,1.305-2.542,1.903-3.845C323.064,920.005,322.391,921.264,321.759,922.547z"
			/>
		<path fill="#B4A3E1" d="M336.104,739.129c-0.2-1.244-0.401-2.516-0.603-3.71C335.702,736.611,335.904,737.888,336.104,739.129z"/>
		<path fill="#B4A3E1" d="M340.886,850.055c0.161-1.599,0.347-3.199,0.479-4.799C341.233,846.855,341.047,848.456,340.886,850.055z"
			/>
		<path fill="#B4A3E1" d="M337.123,745.709c-0.185-1.244-0.366-2.516-0.555-3.719C336.756,743.193,336.939,744.466,337.123,745.709z
			"/>
		<path fill="#B4A3E1" d="M335.003,732.582c-0.187-1.075-0.376-2.186-0.562-3.211C334.627,730.398,334.817,731.509,335.003,732.582z
			"/>
		<path fill="#B4A3E1" d="M339.785,859.495c0.209-1.569,0.442-3.135,0.626-4.708C340.228,856.36,339.994,857.926,339.785,859.495z"
			/>
		<path fill="#B4A3E1" d="M333.852,726.214c-0.147-0.794-0.301-1.633-0.447-2.39C333.551,724.581,333.704,725.42,333.852,726.214z"
			/>
		<path fill="#B4A3E1" d="M331.968,716.67c-0.157-0.752-0.321-1.547-0.469-2.244C331.647,715.123,331.811,715.918,331.968,716.67z"
			/>
		<path fill="#B4A3E1" d="M338.402,868.668c0.246-1.456,0.52-2.906,0.74-4.368C338.921,865.762,338.648,867.212,338.402,868.668z"/>
		<path fill="#B4A3E1" d="M247.29,267.284c0.457-0.969,0.935-1.925,1.398-2.889C248.225,265.359,247.746,266.314,247.29,267.284z"/>
		<path fill="#B4A3E1" d="M332.903,721.284c-0.163-0.831-0.332-1.701-0.492-2.482C332.571,719.583,332.74,720.455,332.903,721.284z"
			/>
		<path fill="#B4A3E1" d="M342.005,794.211c-0.078-1.57-0.145-3.157-0.239-4.709C341.861,791.054,341.927,792.641,342.005,794.211z"
			/>
		<path fill="#B4A3E1" d="M342.366,803.249c-0.048-1.606-0.081-3.225-0.146-4.813C342.285,800.024,342.319,801.643,342.366,803.249z
			"/>
		<path fill="#B4A3E1" d="M340.008,768.485c-0.148-1.423-0.29-2.868-0.447-4.263C339.718,765.615,339.86,767.062,340.008,768.485z"
			/>
		<path fill="#B4A3E1" d="M341.468,785.248c-0.103-1.481-0.196-2.982-0.311-4.442C341.272,782.266,341.365,783.767,341.468,785.248z
			"/>
		<path fill="#B4A3E1" d="M341.693,840.562c0.112-1.612,0.248-3.229,0.337-4.837C341.941,837.334,341.805,838.95,341.693,840.562z"
			/>
		<path fill="#B4A3E1" d="M338.125,752.771c-0.169-1.257-0.334-2.545-0.51-3.766C337.791,750.227,337.956,751.515,338.125,752.771z"
			/>
		<path fill="#B4A3E1" d="M342.226,831.003c0.067-1.585,0.152-3.174,0.197-4.753C342.38,827.828,342.293,829.418,342.226,831.003z"
			/>
		<path fill="#B4A3E1" d="M339.108,760.453c-0.163-1.342-0.318-2.712-0.486-4.023C338.789,757.741,338.945,759.111,339.108,760.453z
			"/>
		<path fill="#B4A3E1" d="M342.535,812.118c-0.014-1.521-0.01-3.05-0.039-4.558C342.526,809.068,342.522,810.598,342.535,812.118z"
			/>
		<path fill="#B4A3E1" d="M239.831,284.276c0.417-1.018,0.829-2.039,1.254-3.052C240.659,282.238,240.248,283.258,239.831,284.276z"
			/>
		<path fill="#B4A3E1" d="M323.624,695.031c-0.216-0.327-0.423-0.635-0.651-0.979C323.201,694.396,323.408,694.706,323.624,695.031z
			"/>
		<path fill="#B4A3E1" d="M329.052,905.253c0.469-1.313,0.977-2.606,1.418-3.936C330.031,902.646,329.521,903.939,329.052,905.253z"
			/>
		<path fill="#B4A3E1" d="M331.924,896.554c0.432-1.424,0.9-2.831,1.302-4.271C332.824,893.721,332.356,895.13,331.924,896.554z"/>
		<path fill="#B4A3E1" d="M320.713,690.609c-0.277-0.426-0.543-0.833-0.832-1.28C320.17,689.776,320.436,690.184,320.713,690.609z"
			/>
		<path fill="#B4A3E1" d="M218.664,384.826c0.032-1.272,0.046-2.542,0.093-3.813C218.71,382.283,218.696,383.554,218.664,384.826z"
			/>
		<path fill="#B4A3E1" d="M325.568,914.204c0.573-1.358,1.186-2.693,1.725-4.071C326.753,911.511,326.141,912.846,325.568,914.204z"
			/>
		<path fill="#B4A3E1" d="M334.413,887.628c0.386-1.514,0.805-3.019,1.159-4.544C335.218,884.609,334.799,886.114,334.413,887.628z"
			/>
		<path fill="#B4A3E1" d="M317.504,930.547c0.682-1.188,1.408-2.348,2.056-3.559C318.912,928.197,318.186,929.356,317.504,930.547z"
			/>
		<path fill="#B4A3E1" d="M322.282,693.003c-0.256-0.386-0.502-0.758-0.77-1.167C321.782,692.245,322.027,692.615,322.282,693.003z"
			/>
		<path fill="#B4A3E1" d="M225.924,326.838c0.271-1.146,0.514-2.295,0.8-3.439C226.438,324.543,226.195,325.692,225.924,326.838z"/>
		<path fill="#B4A3E1" d="M327.04,700.08c-0.185-0.268-0.368-0.535-0.582-0.847C326.672,699.545,326.856,699.812,327.04,700.08z"/>
		<path fill="#B4A3E1" d="M230.75,309.118c0.197-0.63,0.372-1.265,0.573-1.894C231.12,307.853,230.947,308.488,230.75,309.118z"/>
		<path fill="#B4A3E1" d="M330.309,709.049c-0.114-0.499-0.239-1.051-0.343-1.498C330.07,707.996,330.195,708.55,330.309,709.049z"
			/>
		<path fill="#B4A3E1" d="M331.048,712.362c-0.124-0.569-0.258-1.187-0.374-1.71C330.79,711.176,330.924,711.796,331.048,712.362z"
			/>
		<path fill="#B4A3E1" d="M325.993,698.549c-0.167-0.244-0.325-0.477-0.508-0.744C325.668,698.074,325.824,698.303,325.993,698.549z
			"/>
		<path fill="#B4A3E1" d="M324.696,696.632c-0.128-0.19-0.244-0.36-0.378-0.56C324.451,696.271,324.568,696.441,324.696,696.632z"/>
		<path fill="#B4A3E1" d="M336.631,878.053c0.3-1.436,0.632-2.862,0.905-4.308C337.263,875.19,336.931,876.615,336.631,878.053z"/>
		<path fill="#B4A3E1" d="M227.847,319.177c0.347-1.296,0.67-2.596,1.036-3.889C228.517,316.581,228.194,317.881,227.847,319.177z"
			/>
		<path fill="#B4A3E1" d="M222.038,442.569c-0.169-1.25-0.354-2.497-0.514-3.749C221.684,440.072,221.869,441.319,222.038,442.569z"
			/>
		<path fill="#B4A3E1" d="M245.061,536.604c-0.374-1.09-0.758-2.17-1.126-3.265C244.303,534.434,244.687,535.514,245.061,536.604z"
			/>
		<path fill="#B4A3E1" d="M168.148,1046.617c0.772-0.288,1.66-0.641,2.482-0.955c-1.016,0.388-2.079,0.805-3.014,1.149
			c-8.351,3.083-11.755,13.195-6.853,20.623c0.132,0.199,0.293,0.415,0.429,0.618
			C156.017,1060.369,159.46,1049.845,168.148,1046.617z"/>
		<path fill="#B4A3E1" d="M247.746,544.229c-0.421-1.169-0.846-2.332-1.262-3.51C246.9,541.896,247.325,543.061,247.746,544.229z"/>
		<path fill="#B4A3E1" d="M224.543,458.577c-0.203-1.149-0.417-2.295-0.61-3.447C224.125,456.282,224.34,457.427,224.543,458.577z"
			/>
		<path fill="#B4A3E1" d="M240.081,521.488c-0.337-1.071-0.682-2.135-1.012-3.212C239.399,519.354,239.744,520.417,240.081,521.488z
			"/>
		<path fill="#B4A3E1" d="M183.91,1091.559c-1.559-1.212-3.042-2.414-4.447-3.607
			C180.867,1089.145,182.351,1090.347,183.91,1091.559z"/>
		<path fill="#B4A3E1" d="M237.811,514.087c-0.347-1.161-0.701-2.314-1.043-3.481C237.11,511.772,237.464,512.926,237.811,514.087z"
			/>
		<path fill="#B4A3E1" d="M290.92,964.421c-2.037,2.137-4.071,4.308-6.118,6.349C286.849,968.729,288.883,966.558,290.92,964.421z"
			/>
		<path fill="#B4A3E1" d="M242.512,529.038c-0.351-1.064-0.708-2.121-1.055-3.19C241.803,526.918,242.161,527.974,242.512,529.038z"
			/>
		<path fill="#B4A3E1" d="M226.074,466.824c-0.234-1.2-0.482-2.397-0.707-3.601C225.592,464.427,225.84,465.624,226.074,466.824z"/>
		<path fill="#B4A3E1" d="M178.593,1087.218c-0.748-0.647-1.474-1.29-2.179-1.928
			C177.119,1085.928,177.845,1086.57,178.593,1087.218z"/>
		<path fill="#B4A3E1" d="M314.463,170.173c1.841-1.904,3.686-3.808,5.567-5.672C318.149,166.367,316.302,168.267,314.463,170.173z"
			/>
		<path fill="#B4A3E1" d="M223.236,450.719c-0.195-1.245-0.404-2.485-0.589-3.732C222.83,448.233,223.038,449.474,223.236,450.719z"
			/>
		<path fill="#B4A3E1" d="M340.787,776.604c-0.124-1.416-0.24-2.852-0.374-4.243C340.547,773.752,340.663,775.188,340.787,776.604z"
			/>
		<path fill="#B4A3E1" d="M255.773,565.362c-0.408-1.021-0.821-2.035-1.227-3.062C254.951,563.327,255.365,564.341,255.773,565.362z
			"/>
		<path fill="#B4A3E1" d="M250.406,551.484c-0.433-1.158-0.87-2.307-1.297-3.473C249.536,549.178,249.973,550.326,250.406,551.484z"
			/>
		<path fill="#B4A3E1" d="M253.07,558.488c-0.423-1.093-0.851-2.18-1.272-3.282C252.219,556.309,252.646,557.394,253.07,558.488z"/>
		<path fill="#B4A3E1" d="M342.571,816.854c-0.004,1.447-0.045,2.909-0.066,4.364C342.526,819.764,342.567,818.302,342.571,816.854z
			"/>
		<path fill="#B4A3E1" d="M329.408,705.203c0.062,0.249,0.14,0.59,0.209,0.871c-0.067-0.277-0.147-0.623-0.207-0.868
			C329.408,705.204,329.408,705.203,329.408,705.203z"/>
		<path fill="#B4A3E1" d="M244.008,1122.498c-1.624-0.566-3.238-1.133-4.805-1.71
			C240.77,1121.365,242.384,1121.932,244.008,1122.498z"/>
		<path fill="#B4A3E1" d="M286.739,1134.502c-1.908-0.426-3.821-0.851-5.674-1.292
			C282.918,1133.651,284.831,1134.074,286.739,1134.502z"/>
		<path fill="#B4A3E1" d="M273.181,1131.265c-1.856-0.478-3.656-0.966-5.457-1.456
			C269.525,1130.299,271.324,1130.787,273.181,1131.265z"/>
		<path fill="#B4A3E1" d="M297.194,1136.729c-1.993-0.4-3.934-0.812-5.871-1.225C293.26,1135.917,295.201,1136.328,297.194,1136.729
			z"/>
		<path fill="#B4A3E1" d="M264.031,1128.785c-1.776-0.501-3.55-1.003-5.268-1.517
			C260.481,1127.782,262.255,1128.284,264.031,1128.785z"/>
		<path fill="#B4A3E1" d="M256.194,1126.478c-3.178-0.976-6.262-1.965-9.247-2.973
			C249.932,1124.513,253.016,1125.502,256.194,1126.478z"/>
		<path fill="#B4A3E1" d="M237.385,1120.102c-2.945-1.104-5.79-2.224-8.534-3.355
			C231.594,1117.881,234.441,1118.997,237.385,1120.102z"/>
		<path fill="#B4A3E1" d="M226.505,1115.768c-1.453-0.616-2.89-1.232-4.286-1.854
			C223.615,1114.535,225.052,1115.151,226.505,1115.768z"/>
		<path fill="#B4A3E1" d="M211.378,1108.74c-1.273-0.65-2.529-1.302-3.748-1.955C208.849,1107.438,210.105,1108.089,211.378,1108.74
			z"/>
		<path fill="#B4A3E1" d="M302.637,183.023c2.28-2.596,4.596-5.156,6.946-7.686C307.233,177.869,304.917,180.426,302.637,183.023z"
			/>
		<path fill="#B4A3E1" d="M290.499,639.431c-0.433-0.803-0.86-1.595-1.295-2.409C289.636,637.839,290.066,638.628,290.499,639.431z"
			/>
		<path fill="#B4A3E1" d="M187.586,1094.32c-0.919-0.665-1.813-1.329-2.683-1.992
			C185.773,1092.991,186.667,1093.655,187.586,1094.32z"/>
		<path fill="#B4A3E1" d="M233.346,498.286c-0.285-1.071-0.579-2.135-0.856-3.211C232.767,496.151,233.061,497.217,233.346,498.286z
			"/>
		<path fill="#B4A3E1" d="M235.527,506.234c-0.314-1.115-0.64-2.225-0.949-3.346C234.885,504.01,235.211,505.119,235.527,506.234z"
			/>
		<path fill="#B4A3E1" d="M658.769,1135.54c0,0-0.002,0-0.004,0c130.133-18.769,212.539-51.209,251.61-69.827
			c10.889-5.191,10.476-20.844-0.658-25.49c-48.103-20.068-142.779-61.518-146.104-78.188c-3.337-16.725-1.686-41.754-0.64-53.332
			c0.202-2.229,0.975-4.32,2.136-6.177c-0.963-0.069-1.496-0.11-1.496-0.11L658.769,1135.54z"/>
		<path fill="#B4A3E1" d="M206.327,1106.07c-2.23-1.217-4.369-2.437-6.416-3.659C201.958,1103.634,204.096,1104.854,206.327,1106.07
			z"/>
		<path fill="#B4A3E1" d="M941.938,438.612c-3.275-3.886-4.085-9.093-2.484-13.629c-16.873,17.705-38.058,33.792-38.058,33.792
			s42.086-61.373-5.26-71.896c-47.345-10.521-108.718,28.058-135.021,40.096s17.534-50.616,75.403-68.151
			c57.832-17.526,131.896,18.526,121.007,42.089c8.039-12.155,14.306-26.362,11.25-38.582
			c-7.014-28.058-50.854-256.015-261.275-301.606c-146.209-31.679-286.439,8.654-380.208,96.778
			c0.192-0.181,0.378-0.368,0.571-0.548c11.372-10.634,29.117,1.959,23.054,16.301c-34.005,80.429-42.799,173.849-29.937,257.463
			c20.836,145.854,67.465,291.712,206.281,360.949c9.349,4.664,11.121,17.467,2.99,24.028
			c-36.973,29.851-98.854-6.053-104.059,9.565c-7.715,111.861-32.403,235.033-107.238,309.38c-3.29,3.266-8.054,4.671-12.613,3.84
			c-0.281-0.051-0.543-0.105-0.822-0.157c44.794,8.232,102.657,13.022,177.529,11.339c0,0,124.501-184.119,122.747-250.753
			s-31.525-250.754,0.02-299.854c31.543-49.099,106.944-15.781,119.219-36.824c12.276-21.042,17.536-92.937,105.213-92.937
			c87.675,0,143.789,45.592,170.092,92.937s-24.551,96.443-24.551,96.443s0.106,0.083,0.281,0.227
			c0.707-0.608,1.467-1.153,2.294-1.61c10.821-5.961,52.524-30.412,62.307-58.235C1050.613,570.771,968.65,470.301,941.938,438.612z
			 M419.603,558.727c-8.769-50.854,3.506-126.255,57.865-131.517c6.333-0.612,11.8,0.03,16.575,1.569
			c-46.892,12.134-57.377,81.956-49.103,129.947c6.164,35.742,43.512,73.647,80.386,81.308
			C482.245,650.219,427.203,602.815,419.603,558.727z"/>
		<path fill="#B4A3E1" d="M194.135,1098.814c-1.89-1.232-3.695-2.461-5.416-3.686
			C190.44,1096.354,192.245,1097.582,194.135,1098.814z"/>
		<path fill="#B4A3E1" d="M231.448,490.929c-0.311-1.249-0.634-2.492-0.935-3.746C230.814,488.437,231.137,489.68,231.448,490.929z"
			/>
		<path fill="#B4A3E1" d="M198.46,1101.543c-1.096-0.667-2.171-1.337-3.216-2.004
			C196.289,1100.206,197.364,1100.873,198.46,1101.543z"/>
		<path fill="#B4A3E1" d="M227.712,474.82c-0.254-1.187-0.52-2.368-0.764-3.56C227.192,472.451,227.458,473.634,227.712,474.82z"/>
		<path fill="#B4A3E1" d="M175.528,1084.471c-1.242-1.146-2.416-2.279-3.522-3.397
			C173.113,1082.191,174.288,1083.323,175.528,1084.471z"/>
		<path fill="#B4A3E1" d="M281.997,623.153c-0.473-0.934-0.945-1.853-1.42-2.8C281.052,621.301,281.522,622.22,281.997,623.153z"/>
		<path fill="#B4A3E1" d="M270.126,598.651c-0.421-0.911-0.843-1.811-1.264-2.729C269.281,596.841,269.704,597.74,270.126,598.651z"
			/>
		<path fill="#B4A3E1" d="M219.43,417.491c-0.079-1.115-0.173-2.229-0.242-3.348C219.255,415.26,219.351,416.375,219.43,417.491z"/>
		<path fill="#B4A3E1" d="M284.929,628.878c-0.488-0.943-0.974-1.872-1.464-2.829C283.955,627.006,284.441,627.935,284.929,628.878z
			"/>
		<path fill="#B4A3E1" d="M220.138,426.105c-0.116-1.24-0.248-2.48-0.352-3.722C219.891,423.625,220.023,424.865,220.138,426.105z"
			/>
		<path fill="#B4A3E1" d="M267.238,592.322c-0.431-0.956-0.862-1.903-1.293-2.868C266.376,590.421,266.807,591.366,267.238,592.322z
			"/>
		<path fill="#B4A3E1" d="M264.254,585.602c-0.4-0.913-0.801-1.814-1.201-2.733C263.452,583.787,263.854,584.688,264.254,585.602z"
			/>
		<path fill="#B4A3E1" d="M273.008,604.815c-0.404-0.853-0.81-1.693-1.213-2.556C272.201,603.122,272.604,603.963,273.008,604.815z"
			/>
		<path fill="#B4A3E1" d="M168.815,1077.707c-0.949-1.05-1.842-2.079-2.681-3.091
			C166.973,1075.628,167.866,1076.657,168.815,1077.707z"/>
		<path fill="#B4A3E1" d="M218.668,401.659c-0.036-1.36-0.086-2.719-0.104-4.08C218.582,398.94,218.633,400.299,218.668,401.659z"/>
		<path fill="#B4A3E1" d="M218.952,409.403c-0.057-1.18-0.13-2.358-0.175-3.541C218.822,407.043,218.895,408.223,218.952,409.403z"
			/>
		<path fill="#B4A3E1" d="M278.865,616.908c-0.4-0.809-0.802-1.606-1.203-2.427C278.063,615.302,278.463,616.1,278.865,616.908z"/>
		<path fill="#B4A3E1" d="M171.296,1080.358c-0.589-0.606-1.154-1.204-1.707-1.801
			C170.142,1079.154,170.707,1079.752,171.296,1080.358z"/>
		<path fill="#B4A3E1" d="M292.727,194.769c1.374-1.706,2.772-3.393,4.177-5.073C295.501,191.377,294.101,193.062,292.727,194.769z"
			/>
		<path fill="#B4A3E1" d="M261.289,578.729c-0.368-0.866-0.739-1.721-1.104-2.591C260.55,577.009,260.921,577.865,261.289,578.729z"
			/>
		<path fill="#B4A3E1" d="M287.65,634.083c-0.431-0.819-0.862-1.624-1.295-2.455C286.788,632.459,287.219,633.264,287.65,634.083z"
			/>
		<path fill="#B4A3E1" d="M273.098,221.512c0.821-1.236,1.677-2.447,2.516-3.672C274.776,219.064,273.919,220.275,273.098,221.512z"
			/>
		<path fill="#B4A3E1" d="M220.987,434.221c-0.14-1.202-0.291-2.4-0.419-3.604C220.696,431.82,220.847,433.019,220.987,434.221z"/>
		<path fill="#B4A3E1" d="M218.558,393.348c-0.002-1.35-0.018-2.699-0.004-4.048C218.54,390.647,218.556,391.998,218.558,393.348z"
			/>
		<path fill="#B4A3E1" d="M258.505,572.081c-0.388-0.937-0.778-1.864-1.162-2.807C257.727,570.217,258.117,571.145,258.505,572.081z
			"/>
		<path fill="#B4A3E1" d="M281.766,209.11c1.043-1.435,2.073-2.882,3.136-4.3C283.839,206.229,282.809,207.674,281.766,209.11z"/>
		<path fill="#B4A3E1" d="M275.956,610.971c-0.409-0.846-0.82-1.679-1.23-2.533C275.136,609.292,275.545,610.125,275.956,610.971z"
			/>
		<path fill="#B4A3E1" d="M263.261,237.217c0.768-1.296,1.542-2.587,2.325-3.872C264.802,234.631,264.029,235.921,263.261,237.217z"
			/>
		<path fill="#B4A3E1" d="M254.865,252.173c0.398-0.751,0.777-1.516,1.183-2.264C255.642,250.658,255.263,251.422,254.865,252.173z"
			/>
		<path fill="#AC99DE" d="M318.955,1134.639c74.835-74.347,99.523-197.519,107.238-309.378c5.205-15.62,67.086,20.286,104.059-9.564
			c8.131-6.562,6.358-19.367-2.99-24.028c-138.816-69.24-185.445-215.096-206.281-360.95
			c-12.864-83.614-4.068-177.033,29.937-257.462c6.063-14.341-11.682-26.935-23.054-16.301c-0.193,0.18-0.379,0.368-0.571,0.548
			c-2.451,2.301-4.874,4.631-7.262,6.997c-1.882,1.866-3.727,3.767-5.567,5.674c-1.646,1.703-3.269,3.43-4.88,5.165
			c-2.351,2.53-4.666,5.09-6.946,7.686c-1.935,2.203-3.851,4.422-5.732,6.672c-1.405,1.681-2.803,3.368-4.177,5.073
			c-2.664,3.301-5.278,6.643-7.825,10.04c-1.063,1.418-2.093,2.865-3.136,4.3c-2.093,2.876-4.144,5.787-6.154,8.73
			c-0.837,1.225-1.693,2.436-2.516,3.672c-2.583,3.885-5.073,7.841-7.51,11.834c-0.786,1.286-1.557,2.576-2.327,3.873
			c-2.479,4.179-4.898,8.399-7.213,12.692c-0.406,0.748-0.783,1.513-1.183,2.264c-2.134,4.025-4.188,8.1-6.175,12.221
			c-0.465,0.964-0.941,1.92-1.398,2.889c-2.162,4.586-4.227,9.237-6.205,13.941c-0.427,1.013-0.839,2.033-1.256,3.051
			c-2.016,4.923-3.969,9.884-5.782,14.928c-0.957,2.665-1.864,5.338-2.726,8.019c-0.201,0.63-0.376,1.264-0.573,1.894
			c-0.64,2.054-1.28,4.108-1.865,6.17c-0.368,1.293-0.691,2.593-1.038,3.889c-0.375,1.407-0.773,2.812-1.124,4.221
			c-0.286,1.142-0.53,2.293-0.8,3.439c-0.368,1.573-0.755,3.143-1.094,4.719c-0.207,0.967-0.38,1.938-0.577,2.906
			c-0.358,1.758-0.727,3.516-1.049,5.278c-0.207,1.135-0.376,2.273-0.569,3.41c-0.271,1.603-0.56,3.202-0.803,4.807
			c-0.171,1.138-0.307,2.278-0.467,3.417c-0.222,1.608-0.462,3.215-0.657,4.824c-0.146,1.207-0.256,2.417-0.388,3.623
			c-0.167,1.543-0.35,3.085-0.492,4.632c-0.113,1.191-0.185,2.383-0.282,3.574c-0.124,1.569-0.268,3.138-0.368,4.708
			c-0.071,1.124-0.112,2.247-0.171,3.371c-0.086,1.635-0.189,3.27-0.25,4.905c-0.047,1.271-0.061,2.541-0.093,3.813
			c-0.039,1.49-0.092,2.981-0.11,4.472c-0.014,1.35,0.002,2.7,0.004,4.049c0.002,1.411-0.014,2.821,0.006,4.233
			c0.018,1.361,0.069,2.719,0.104,4.08c0.036,1.4,0.055,2.803,0.108,4.203c0.045,1.181,0.118,2.36,0.173,3.541
			c0.077,1.582,0.139,3.162,0.236,4.74c0.069,1.117,0.166,2.231,0.242,3.348c0.116,1.631,0.221,3.264,0.356,4.894
			c0.104,1.242,0.236,2.481,0.352,3.722c0.142,1.504,0.27,3.01,0.429,4.511c0.128,1.204,0.282,2.402,0.421,3.604
			c0.175,1.534,0.341,3.07,0.536,4.601c0.16,1.252,0.344,2.498,0.516,3.748c0.201,1.473,0.392,2.947,0.608,4.417
			c0.183,1.247,0.392,2.487,0.589,3.732c0.23,1.472,0.451,2.943,0.697,4.412c0.193,1.151,0.407,2.297,0.61,3.445
			c0.273,1.551,0.537,3.103,0.825,4.648c0.225,1.203,0.472,2.399,0.707,3.601c0.289,1.48,0.569,2.961,0.874,4.436
			c0.244,1.191,0.51,2.374,0.764,3.561c0.317,1.482,0.626,2.97,0.957,4.446c0.271,1.216,0.563,2.42,0.844,3.631
			c0.333,1.428,0.656,2.861,1,4.285c0.301,1.254,0.624,2.497,0.935,3.746c0.347,1.383,0.683,2.771,1.041,4.146
			c0.278,1.075,0.571,2.14,0.856,3.211c0.408,1.535,0.812,3.075,1.23,4.603c0.309,1.12,0.634,2.23,0.949,3.346
			c0.414,1.459,0.819,2.921,1.242,4.371c0.341,1.167,0.695,2.32,1.043,3.481c0.419,1.398,0.831,2.8,1.258,4.189
			c0.331,1.077,0.677,2.141,1.012,3.212c0.457,1.454,0.91,2.915,1.376,4.359c0.347,1.069,0.705,2.126,1.055,3.19
			c0.472,1.435,0.941,2.875,1.421,4.3c0.37,1.095,0.752,2.175,1.128,3.265c0.473,1.373,0.941,2.753,1.421,4.116
			c0.417,1.178,0.842,2.341,1.262,3.51c0.455,1.262,0.904,2.531,1.362,3.783c0.429,1.165,0.866,2.313,1.299,3.473
			c0.463,1.24,0.921,2.49,1.392,3.722c0.419,1.101,0.847,2.188,1.27,3.282c0.492,1.27,0.98,2.55,1.479,3.812
			c0.405,1.027,0.819,2.039,1.227,3.062c0.523,1.306,1.043,2.618,1.571,3.912c0.384,0.942,0.773,1.87,1.162,2.807
			c0.559,1.354,1.116,2.717,1.679,4.058c0.366,0.87,0.736,1.725,1.104,2.591c0.588,1.382,1.175,2.77,1.766,4.137
			c0.397,0.919,0.799,1.822,1.201,2.733c0.562,1.288,1.125,2.583,1.691,3.854c0.429,0.965,0.862,1.91,1.293,2.866
			c0.541,1.203,1.081,2.412,1.622,3.6c0.421,0.921,0.843,1.818,1.264,2.729c0.557,1.207,1.112,2.419,1.671,3.608
			c0.403,0.862,0.807,1.703,1.211,2.556c0.572,1.211,1.146,2.427,1.718,3.622c0.41,0.854,0.821,1.688,1.23,2.533
			c0.567,1.174,1.136,2.355,1.705,3.511c0.402,0.819,0.803,1.616,1.203,2.427c0.573,1.151,1.144,2.312,1.712,3.447
			c0.475,0.945,0.947,1.864,1.419,2.798c0.49,0.966,0.98,1.944,1.469,2.896c0.49,0.957,0.976,1.888,1.464,2.829
			c0.475,0.917,0.951,1.849,1.425,2.75c0.433,0.831,0.864,1.638,1.295,2.457c0.518,0.981,1.038,1.975,1.551,2.937
			c0.435,0.814,0.864,1.606,1.295,2.409c0.504,0.936,1.008,1.881,1.506,2.798c0.408,0.752,0.811,1.479,1.215,2.219
			c0.521,0.949,1.043,1.908,1.557,2.839c0.413,0.746,0.817,1.466,1.227,2.201c0.486,0.874,0.979,1.76,1.458,2.616
			c0.404,0.717,0.799,1.407,1.2,2.112c0.49,0.866,0.985,1.744,1.47,2.591c0.362,0.634,0.715,1.242,1.073,1.861
			c0.494,0.858,0.992,1.729,1.477,2.563c0.415,0.715,0.816,1.397,1.227,2.097c0.429,0.73,0.86,1.475,1.279,2.188
			c0.356,0.603,0.701,1.177,1.052,1.768c0.456,0.77,0.919,1.552,1.367,2.301c0.341,0.569,0.668,1.108,1.003,1.664
			c0.438,0.73,0.884,1.471,1.312,2.178c0.37,0.607,0.725,1.185,1.087,1.776c0.376,0.616,0.76,1.247,1.128,1.846
			c0.325,0.529,0.636,1.027,0.955,1.543c0.396,0.64,0.797,1.292,1.183,1.908c0.248,0.395,0.48,0.766,0.723,1.151
			c0.428,0.683,0.86,1.374,1.271,2.025c0.306,0.482,0.591,0.929,0.886,1.392c0.327,0.519,0.664,1.047,0.981,1.542
			c0.348,0.549,0.679,1.059,1.015,1.579c0.245,0.379,0.499,0.777,0.735,1.141c0.289,0.447,0.555,0.854,0.832,1.28
			c0.268,0.411,0.543,0.837,0.802,1.227c0.268,0.409,0.514,0.781,0.768,1.167c0.23,0.351,0.472,0.719,0.69,1.05
			c0.229,0.347,0.436,0.653,0.651,0.979c0.234,0.35,0.478,0.715,0.693,1.041c0.134,0.199,0.25,0.369,0.378,0.561
			c0.272,0.401,0.544,0.81,0.79,1.172c0.183,0.268,0.341,0.5,0.508,0.746c0.155,0.229,0.322,0.475,0.465,0.683
			c0.214,0.313,0.397,0.579,0.582,0.847c0.075,0.108,0.163,0.24,0.232,0.339c1.014,1.467,1.717,3.052,2.136,4.784
			c0,0.001,0,0.001,0,0.001c0.062,0.247,0.142,0.593,0.207,0.87c0.112,0.473,0.218,0.916,0.351,1.477
			c0.104,0.447,0.229,0.999,0.343,1.498c0.119,0.53,0.231,1.015,0.363,1.604c0.116,0.523,0.25,1.141,0.374,1.71
			c0.15,0.679,0.292,1.319,0.451,2.063c0.149,0.698,0.313,1.494,0.469,2.244c0.149,0.71,0.289,1.374,0.442,2.132
			c0.162,0.781,0.329,1.651,0.492,2.482c0.168,0.843,0.331,1.646,0.502,2.538c0.146,0.759,0.3,1.598,0.447,2.39
			c0.197,1.045,0.39,2.057,0.591,3.159c0.185,1.025,0.374,2.136,0.562,3.211c0.163,0.947,0.329,1.854,0.496,2.837
			c0.201,1.192,0.402,2.466,0.603,3.71c0.155,0.957,0.312,1.875,0.465,2.861c0.189,1.2,0.37,2.475,0.555,3.716
			c0.166,1.101,0.331,2.166,0.492,3.298c0.174,1.223,0.341,2.508,0.51,3.767c0.166,1.218,0.335,2.407,0.494,3.659
			c0.17,1.312,0.325,2.68,0.486,4.023c0.151,1.256,0.31,2.485,0.455,3.769c0.157,1.394,0.299,2.841,0.447,4.264
			c0.136,1.294,0.279,2.56,0.405,3.876c0.134,1.391,0.25,2.825,0.374,4.24c0.124,1.402,0.256,2.78,0.37,4.204
			c0.114,1.46,0.208,2.961,0.311,4.442c0.099,1.418,0.211,2.817,0.298,4.254c0.095,1.552,0.161,3.139,0.24,4.709
			c0.07,1.41,0.155,2.802,0.214,4.225c0.065,1.589,0.099,3.207,0.146,4.813c0.043,1.438,0.102,2.86,0.13,4.312
			c0.027,1.506,0.023,3.037,0.037,4.558c0.014,1.579,0.043,3.146,0.037,4.736c-0.006,1.447-0.047,2.909-0.068,4.364
			c-0.024,1.678-0.032,3.347-0.079,5.029c-0.045,1.58-0.132,3.17-0.197,4.755c-0.066,1.573-0.111,3.142-0.198,4.721
			c-0.089,1.61-0.223,3.225-0.337,4.839c-0.108,1.563-0.194,3.126-0.327,4.691c-0.135,1.601-0.32,3.2-0.479,4.801
			c-0.158,1.577-0.292,3.156-0.475,4.732c-0.184,1.571-0.42,3.137-0.628,4.705c-0.213,1.603-0.401,3.209-0.644,4.806
			c-0.221,1.463-0.494,2.911-0.741,4.368c-0.285,1.693-0.545,3.395-0.864,5.077c-0.273,1.444-0.605,2.87-0.905,4.307
			c-0.35,1.678-0.673,3.365-1.059,5.032c-0.354,1.526-0.773,3.029-1.159,4.544c-0.395,1.554-0.759,3.118-1.188,4.657
			c-0.402,1.438-0.87,2.846-1.302,4.268c-0.481,1.591-0.931,3.193-1.452,4.765c-0.441,1.329-0.949,2.623-1.418,3.935
			c-0.582,1.631-1.134,3.276-1.762,4.881c-0.539,1.378-1.151,2.713-1.725,4.073c-0.632,1.5-1.23,3.02-1.905,4.496
			c-0.599,1.305-1.271,2.563-1.903,3.847c-0.73,1.482-1.424,2.986-2.199,4.439c-0.648,1.211-1.374,2.37-2.056,3.56
			c-0.842,1.471-1.647,2.966-2.543,4.401c-0.75,1.203-1.583,2.347-2.37,3.523c-0.91,1.364-1.782,2.757-2.746,4.082
			c-0.845,1.164-1.78,2.264-2.666,3.399c-0.994,1.271-1.945,2.574-2.99,3.809c-0.311,0.369-0.632,0.701-0.945,1.067
			c-2.876,3.364-5.768,6.653-8.684,9.81c-1.208,1.307-2.429,2.51-3.64,3.782c-2.037,2.138-4.071,4.309-6.118,6.35
			c-1.38,1.375-2.766,2.643-4.15,3.974c-1.892,1.821-3.779,3.687-5.675,5.429c-1.457,1.339-2.91,2.573-4.365,3.867
			c-1.823,1.617-3.646,3.281-5.464,4.828c-1.494,1.271-2.979,2.443-4.469,3.668c-1.774,1.457-3.55,2.956-5.313,4.349
			c-1.492,1.178-2.965,2.256-4.447,3.388c-1.744,1.331-3.496,2.703-5.225,3.971c-1.488,1.091-2.949,2.087-4.421,3.132
			c-1.697,1.203-3.404,2.445-5.081,3.589c-1.471,1.002-2.903,1.916-4.358,2.875c-1.642,1.084-3.301,2.206-4.919,3.234
			c-1.449,0.921-2.853,1.756-4.28,2.631c-1.573,0.97-3.164,1.973-4.707,2.887c-1.402,0.831-2.749,1.579-4.122,2.368
			c-1.516,0.868-3.054,1.771-4.532,2.591c-1.354,0.75-2.646,1.422-3.968,2.128c-1.428,0.766-2.88,1.562-4.27,2.282
			c-1.307,0.675-2.543,1.277-3.813,1.913c-1.333,0.665-2.691,1.362-3.979,1.984c-1.22,0.589-2.364,1.109-3.543,1.661
			c-1.248,0.584-2.526,1.197-3.725,1.738c-1.134,0.515-2.185,0.961-3.272,1.438c-1.147,0.502-2.327,1.029-3.421,1.492
			c-1.03,0.436-1.966,0.811-2.945,1.21c-1.049,0.43-2.13,0.882-3.116,1.272c-0.914,0.36-1.73,0.665-2.587,0.994
			c-0.825,0.316-1.71,0.67-2.482,0.956c-8.689,3.227-12.131,13.753-6.955,21.437c0.004,0.006,0.004,0.014,0.01,0.02
			c0.146,0.215,0.307,0.439,0.459,0.658c0.603,0.87,1.244,1.764,1.935,2.681c0.216,0.288,0.433,0.573,0.657,0.864
			c0.416,0.536,0.841,1.076,1.286,1.626c0.191,0.234,0.398,0.477,0.595,0.713c0.838,1.012,1.73,2.044,2.681,3.093
			c0.256,0.283,0.51,0.564,0.773,0.851c0.553,0.595,1.118,1.195,1.707,1.801c0.23,0.234,0.474,0.475,0.71,0.713
			c1.106,1.118,2.28,2.252,3.52,3.397c0.295,0.274,0.584,0.546,0.888,0.819c0.705,0.638,1.429,1.28,2.179,1.928
			c0.282,0.243,0.579,0.489,0.868,0.733c1.408,1.193,2.89,2.396,4.449,3.607c0.333,0.256,0.656,0.512,0.992,0.77
			c0.87,0.663,1.764,1.327,2.683,1.992c0.37,0.27,0.754,0.539,1.134,0.809c1.721,1.225,3.524,2.453,5.416,3.686
			c0.37,0.24,0.73,0.482,1.108,0.723c1.045,0.669,2.122,1.339,3.216,2.006c0.477,0.289,0.967,0.578,1.451,0.868
			c2.049,1.223,4.187,2.442,6.417,3.659c0.437,0.236,0.858,0.477,1.303,0.713c1.219,0.654,2.475,1.306,3.748,1.955
			c0.606,0.307,1.225,0.614,1.843,0.923c2.406,1.199,4.908,2.389,7.508,3.569c0.5,0.227,0.982,0.455,1.49,0.681
			c1.394,0.623,2.833,1.239,4.286,1.854c0.772,0.327,1.557,0.654,2.347,0.979c2.744,1.133,5.589,2.253,8.534,3.354
			c0.61,0.23,1.199,0.461,1.817,0.688c1.567,0.576,3.183,1.144,4.807,1.711c0.967,0.336,1.949,0.671,2.938,1.006
			c2.984,1.008,6.069,1.998,9.246,2.973c0.86,0.264,1.695,0.531,2.569,0.791c1.719,0.514,3.492,1.016,5.268,1.519
			c1.216,0.342,2.449,0.683,3.693,1.021c1.799,0.49,3.601,0.979,5.457,1.455c2.573,0.662,5.201,1.312,7.882,1.947
			c1.854,0.439,3.768,0.864,5.676,1.291c1.512,0.337,3.037,0.671,4.584,1.002c1.939,0.412,3.878,0.825,5.871,1.225
			c2.72,0.546,5.5,1.077,8.326,1.597c0.279,0.05,0.541,0.104,0.82,0.155C310.902,1139.311,315.665,1137.907,318.955,1134.639z"/>
		<path fill="#F79FC5" d="M529.142,1149.382c3.473-0.138,7.12-0.308,10.939-0.506c-3.775,0.178-7.422,0.327-10.906,0.453
			C529.163,1149.345,529.152,1149.366,529.142,1149.382z"/>
		<path fill="#F79FC5" d="M1000.339,562.232c-26.305-47.345-82.417-92.937-170.092-92.937c-87.677,0-92.937,71.895-105.213,92.937
			c-12.274,21.043-87.676-12.274-119.219,36.824c-31.545,49.1-1.773,233.22-0.02,299.854s-122.747,250.753-122.747,250.753
			s7.071,0.377,20.09,0.319l89.841-159.087c17.08-36.682,29.165-70.648,28.595-92.403c-0.471-17.821-2.815-43.055-5.532-72.275
			c-6.916-74.409-17.365-186.853,3.05-218.628c11.587-18.036,32.018-21.73,59.127-21.73c3.085,0,6.108,0.037,9.044,0.072
			c2.896,0.035,5.706,0.072,8.412,0.072c13.443,0,33.762,0,42.992-15.817c3.056-5.24,5.366-11.703,8.04-19.188
			c10.492-29.37,23.55-65.921,83.54-65.921c98.534,0,142.128,59.319,156.295,84.82c6.396,11.513,6.589,23.458,3.87,34.427
			l6.553-6.786l-12.188,21.885c-7.996,16.173-19.725,27.683-19.947,27.897l-13.202,12.747l14.576,11.142
			c3.968,3.218,16.319,15.71,1.917,36.28l-6.044,8.637l5.66,8.886c-0.006,0,6.804,11.452,1.535,20.231l-13.866,23.119l1.555,6.323
			c6.78,27.557,11.458,73.354,0.622,88.895c-8.453,12.127-47.441,25.076-131.472,25.188c-29.985,1.396-59.05,1.295-72.328-2.959
			l-115.219,252.946c6.579-0.985,13.31-2.053,20.203-3.216h0.002l104.845-233.123c0,0,0.533,0.041,1.496,0.11
			c17.005,1.227,176.501,11.569,205.418-29.921c19.852-28.481,1.755-101.704,1.755-101.704s0,0,10.521-17.537
			c10.521-17.534-1.753-36.823-1.753-36.823c23.164-33.094-2.062-55.248-4.981-57.64c-0.173-0.144-0.279-0.227-0.279-0.227
			S1026.642,609.577,1000.339,562.232z"/>
		<path fill="#F78FBC" d="M607.585,1141.897c0,0,48.759-116.734,60.594-144.353c11.836-27.619,44.715-92.061,35.508-124.938
			c-9.205-32.88-24.987-24.99-29.031-50.129c-15.412-6.736-25.135-17.46-22.259-49.823c5.261-59.183,64.442-101.268,138.09-74.963
			c73.647,26.303,115.73,26.303,115.73,26.303s-47.343-36.825-120.992-43.4c-73.647-6.577-115.732,43.4-118.363,11.835
			c-2.63-31.564,52.605-71.018,119.679-59.18c47.711,8.417,102.047,14.842,132.298,21.161l0,0c0,0-12.621-19.846-49.445-23.311
			c-36.825-3.467-43.4-26.783-64.274-21.523c-20.876,5.263-93.544-2.63-64.61-12.038c28.935-9.41,110.472,2.833,132.842,0
			c22.369-2.834,14.455-28.731,14.455-28.731c-26.305,1.315-36.825-18.412-65.758-3.945c-28.933,14.466-65.757,7.891-65.757-3.945
			c0-11.837,18.412-6.577,28.933-35.51c10.521-28.932,45.021-40.332,101.267-23.671c56.245,16.659,63.126,63.126,71.854,82.854
			c8.73,19.728,32.067,19.733,32.067,19.733l0,0c2.719-10.967,2.525-22.914-3.87-34.425c-14.17-25.503-57.762-84.822-156.297-84.822
			c-59.988,0-73.047,36.552-83.539,65.922c-2.676,7.484-4.985,13.947-8.042,19.188c-9.229,15.817-29.547,15.817-42.991,15.817
			c-2.704,0-5.518-0.035-8.411-0.07c-2.938-0.037-5.961-0.072-9.044-0.072c-27.111,0-47.54,3.692-59.129,21.731
			c-20.415,31.772-9.966,144.217-3.048,218.625c2.715,29.222,5.06,54.456,5.53,72.277c0.573,21.753-11.513,55.72-28.593,92.401
			l0.016-0.028c0,0,28.955-6.473,14.588,22.46c-13.741,27.669-73.236,127.344-78.41,136.002c3.484-0.124,7.131-0.275,10.906-0.453
			c21.454-1.004,47.479-2.94,77.274-6.979H607.585L607.585,1141.897z M628.725,650.348c1.314-30.248,24.987-56.551,48.922-52.809
			c23.932,3.745,23.41,23.876,1.053,33.562l-20.127,15.302c0,0-19.328,98.635-19.328,131.515c0,32.878,1.314,103.896-7.89,111.656
			c-9.206,7.76-6.576-51.159-9.206-79.93C619.519,780.874,627.409,680.595,628.725,650.348z"/>
		<path fill="#F78FBC" d="M944.36,631.101c-7.607,10.928-10.802,20.47-12.155,26.594c4.889,1.477,8.218,2.964,9.525,4.49
			c7.89,9.205-17.098,24.987-14.468,36.825c2.63,11.835,36.824,11.835,30.248,30.247s-3.945,34.724-31.563,29.198
			c-27.619-5.525-48.66,22.093-48.66,22.093s28.934-7.891,36.825,9.207c7.891,17.095-34.194,40.768-26.303,55.234
			c7.891,14.468,29.386,36.333,29.386,36.333s-46.562,5.374-91.082,7.447c84.028-0.112,123.017-13.062,131.47-25.188
			c10.836-15.54,6.158-61.338-0.62-88.895l-1.557-6.323l13.868-23.119c5.268-8.78-1.541-20.231-1.537-20.231l-5.657-8.887
			l6.043-8.636c14.4-20.569,2.049-33.062-1.918-36.279l-14.575-11.143l13.201-12.746c0.223-0.215,11.95-11.726,19.946-27.897
			l-0.502,0.901C984.275,620.324,957.51,612.209,944.36,631.101z"/>
		<path fill="#F78FBC" d="M753.782,885.809c0,0,3.826-22.408-32.998-44.766c-8.918-5.414-17.829-8.74-26.149-11.521l0.897,0.315
			c0,0,32.77,16.171,17.363,74.332c-14.59,55.064-78.171,218.933-84.898,236.218c3.479-0.517,6.997-1.053,10.567-1.63h0.003
			L753.782,885.809z"/>
		<path fill="#F47FAB" d="M631.355,889.573c9.204-7.761,7.89-78.778,7.89-111.656c0-32.88,19.328-131.515,19.328-131.515
			l20.127-15.302c22.357-9.686,22.879-29.819-1.056-33.562c-23.932-3.742-47.604,22.561-48.919,52.809
			c-1.315,30.247-9.206,130.526-6.576,159.296C624.779,838.412,622.149,897.333,631.355,889.573z"/>
		<path fill="#F47FAB" d="M958.346,584.59c-8.729-19.728-15.608-66.194-71.854-82.854c-56.245-16.66-90.745-5.261-101.268,23.671
			c-10.521,28.933-28.933,23.674-28.933,35.51s36.825,18.411,65.758,3.945c28.933-14.467,39.452,5.261,65.757,3.945
			c0,0,7.914,25.897-14.455,28.731c-22.369,2.833-103.909-9.41-132.842,0c-28.933,9.408,43.734,17.301,64.609,12.038
			c20.875-5.26,27.45,18.059,64.275,21.523c36.822,3.465,49.445,23.312,49.445,23.312l0,0
			c-30.252-6.32-84.589-12.745-132.299-21.162c-67.072-11.838-122.307,27.618-119.677,59.18
			c2.63,31.565,44.714-18.412,118.362-11.835c73.647,6.575,120.993,43.4,120.993,43.4s-42.083,0-115.731-26.303
			c-73.649-26.305-132.83,15.78-138.09,74.963c-2.876,32.363,6.847,43.087,22.26,49.825l0,0l19.979,7.04
			c8.319,2.782,17.231,6.106,26.149,11.522c36.822,22.357,32.998,44.766,32.998,44.766c13.277,4.254,42.343,4.354,72.328,2.959
			c44.522-2.072,91.082-7.447,91.082-7.447s-21.495-21.865-29.386-36.333c-7.892-14.467,34.193-38.14,26.303-55.235
			c-7.892-17.097-36.825-9.207-36.825-9.207s21.043-27.617,48.66-22.092c27.618,5.526,24.987-10.785,31.565-29.198
			c6.574-18.412-27.618-18.412-30.248-30.247c-2.63-11.838,22.355-27.62,14.466-36.825c-1.308-1.525-4.637-3.015-9.525-4.49
			c1.355-6.125,4.548-15.667,12.155-26.595c13.152-18.891,39.915-10.773,39.915-10.773l0.502-0.902l12.188-21.885l-6.55,6.786l0,0
			C990.412,604.323,967.077,604.317,958.346,584.59z"/>
		<path fill="#B4A3E1" d="M712.894,904.17c15.407-58.161-17.362-74.331-17.362-74.331l-0.898-0.316l-19.979-7.042l0,0
			c4.043,25.14,19.825,17.249,29.03,50.129c9.207,32.878-23.673,97.32-35.508,124.938s-60.594,144.353-60.594,144.353h9.771h10.054
			c0,0,0.21-0.538,0.588-1.508C634.723,1123.103,698.305,959.236,712.894,904.17z"/>
		<path fill="#B4A3E1" d="M607.585,1013.327c14.367-28.935-14.588-22.462-14.588-22.462l-0.016,0.03l-89.843,159.087l-0.011,0.018
			h25.646c0,0,0.153-0.254,0.368-0.618c0.01-0.016,0.021-0.037,0.033-0.053C534.347,1140.669,593.844,1040.996,607.585,1013.327z"/>
		<path fill="#C4B6E7" d="M444.941,558.727c-8.274-47.991,2.211-117.813,49.103-129.947c-4.775-1.539-10.242-2.18-16.575-1.569
			c-54.359,5.262-66.634,80.663-57.865,131.517c7.601,44.089,62.643,91.492,105.724,81.308
			C488.452,632.374,451.105,594.469,444.941,558.727z"/>
		<path fill="#AC99DE" d="M836.517,358.824c-57.867,17.535-101.704,80.189-75.404,68.151
			c26.306-12.038,87.679-50.616,135.023-40.096c47.343,10.521,5.26,71.896,5.26,71.896s21.183-16.087,38.058-33.792
			c7.752-8.136,14.598-16.613,18.059-24.03c0.006-0.012,0.006-0.027,0.014-0.04C968.414,377.351,894.351,341.3,836.517,358.824z"/>
	</g>
</g>
</svg>
