<?xml version="1.0" encoding="UTF-8" standalone="no"?>
<!-- Generator: Adobe Illustrator 16.0.3, SVG Export Plug-In . SVG Version: 6.00 Build 0)  -->

<svg
   xmlns:dc="http://purl.org/dc/elements/1.1/"
   xmlns:cc="http://creativecommons.org/ns#"
   xmlns:rdf="http://www.w3.org/1999/02/22-rdf-syntax-ns#"
   xmlns:svg="http://www.w3.org/2000/svg"
   xmlns="http://www.w3.org/2000/svg"
   xmlns:sodipodi="http://sodipodi.sourceforge.net/DTD/sodipodi-0.dtd"
   xmlns:inkscape="http://www.inkscape.org/namespaces/inkscape"
   version="1.1"
   id="Layer_1"
   x="0px"
   y="0px"
   width="1100.0007"
   height="712.74207"
   viewBox="0 0 1100.0007 712.74207"
   enable-background="new 0 0 1200 1200"
   xml:space="preserve"
   sodipodi:docname="rgo-humano-do-rim-by-Vexels.svg"
   inkscape:version="0.92.1 r15371"><metadata
     id="metadata113"><rdf:RDF><cc:Work
         rdf:about=""><dc:format>image/svg+xml</dc:format><dc:type
           rdf:resource="http://purl.org/dc/dcmitype/StillImage" /><dc:title></dc:title></cc:Work></rdf:RDF></metadata><defs
     id="defs111" /><sodipodi:namedview
     pagecolor="#ffffff"
     bordercolor="#666666"
     borderopacity="1"
     objecttolerance="10"
     gridtolerance="10"
     guidetolerance="10"
     inkscape:pageopacity="0"
     inkscape:pageshadow="2"
     inkscape:window-width="1680"
     inkscape:window-height="987"
     id="namedview109"
     showgrid="false"
     fit-margin-top="0"
     fit-margin-left="0"
     fit-margin-right="0"
     fit-margin-bottom="0"
     inkscape:zoom="0.19666667"
     inkscape:cx="549.99986"
     inkscape:cy="356.37095"
     inkscape:window-x="-8"
     inkscape:window-y="-8"
     inkscape:window-maximized="1"
     inkscape:current-layer="Layer_1" /><g
     id="g106"
     transform="translate(-50.000144,-243.62891)"><g
       id="g104"><path
         d="m 375.091,552.248 c 10.104,4.155 21.264,8.147 31.994,10.763 6.079,-2.699 12.135,-5.205 17.7,-7.178 26.043,-9.234 69.653,-6.53 71.775,-13.836 2.124,-7.307 -1.075,-16.979 -3.89,-31.729 -2.817,-14.753 -26.39,-1.797 -55.631,-2.236 -12.055,-0.182 -28.317,-4.338 -43.276,-9.159 -24.161,10.417 -44.282,10.455 -44.282,10.455 14.434,12.026 22.132,27.11 25.61,42.92 z m 104.453,-41.829 c 7.784,-0.96 16.34,32.056 3.781,30.66 -8.246,-0.917 -11.569,-29.699 -3.781,-30.66 z"
         id="path2"
         inkscape:connector-curvature="0"
         style="fill:#f47fab" /><path
         d="m 483.325,541.079 c 12.559,1.396 4.003,-31.62 -3.783,-30.66 -7.786,0.961 -4.463,29.743 3.783,30.66 z"
         id="path4"
         inkscape:connector-curvature="0"
         style="fill:#f79fc5" /><path
         d="m 472.729,799.719 c -8.23,-31.895 -13.593,-80.164 -24.452,-138.579 -4.24,-22.799 -11.93,-35.913 -20.032,-43.404 -7.42,0.892 -14.59,2.154 -20.937,4.044 -13.271,3.951 -28.915,10.189 -42.565,16.079 -3.215,8.451 -5.784,13.615 -5.784,13.615 84.22,42.686 102.126,131.431 74.55,202.233 9.713,35.11 9.479,55.318 14.695,63.502 6.41,10.05 51.214,0.014 49.196,-10.494 -2.02,-10.511 -16.445,-75.104 -24.671,-106.996 z m -6.186,114.384 c -32.724,1.518 6.211,-15.536 20.413,-12.849 14.2,2.684 -11.086,12.416 -20.413,12.849 z"
         id="path6"
         inkscape:connector-curvature="0"
         style="fill:#f79fc5" /><path
         d="m 486.954,901.254 c -14.2,-2.688 -53.135,14.366 -20.411,12.847 9.327,-0.431 34.613,-10.163 20.411,-12.847 z"
         id="path8"
         inkscape:connector-curvature="0"
         style="fill:#f47fab" /><path
         d="m 364.742,637.858 c 13.65,-5.89 29.295,-12.128 42.565,-16.079 6.347,-1.89 13.517,-3.152 20.937,-4.044 29.293,-3.52 62.541,-1.173 64.901,-7.973 2.956,-8.522 -0.242,-20.172 -2.68,-37.811 -2.436,-17.642 -31.14,-3.732 -65.74,-6.032 -5.553,-0.368 -11.528,-1.417 -17.641,-2.909 -10.73,-2.617 -21.891,-6.607 -31.994,-10.763 7.043,31.995 -3.241,66.926 -10.348,85.611 z m 110.17,-66.524 c 9.279,-0.666 17.4,38.952 2.614,36.535 -9.707,-1.587 -11.89,-35.872 -2.614,-36.535 z"
         id="path10"
         inkscape:connector-curvature="0"
         style="fill:#938ec6" /><path
         d="m 477.527,607.871 c 14.786,2.415 6.665,-37.201 -2.614,-36.537 -9.277,0.663 -7.094,34.948 2.614,36.537 z"
         id="path12"
         inkscape:connector-curvature="0"
         style="fill:#c4b6e7" /><path
         d="m 52.713,675.949 c -1.486,-14.856 -2.352,-29.865 -2.622,-44.914 0.272,15.049 1.138,30.06 2.622,44.914 z"
         id="path14"
         inkscape:connector-curvature="0"
         style="fill:#c4b6e7" /><path
         d="m 50.131,608.449 c 0.161,-7.527 0.466,-15.05 0.916,-22.552 -0.45,7.502 -0.755,15.025 -0.916,22.552 z"
         id="path16"
         inkscape:connector-curvature="0"
         style="fill:#c4b6e7" /><path
         d="m 248.778,951.815 c -1.236,-0.277 -2.484,-0.591 -3.73,-0.896 1.245,0.306 2.493,0.617 3.73,0.896 z"
         id="path18"
         inkscape:connector-curvature="0"
         style="fill:#c4b6e7" /><path
         d="m 133.558,337.289 c 2.626,-3.268 5.313,-6.449 8.062,-9.536 -2.748,3.087 -5.433,6.268 -8.062,9.536 z"
         id="path20"
         inkscape:connector-curvature="0"
         style="fill:#c4b6e7" /><path
         d="m 240.074,949.642 c -1.166,-0.316 -2.331,-0.642 -3.504,-0.981 1.173,0.339 2.339,0.664 3.504,0.981 z"
         id="path22"
         inkscape:connector-curvature="0"
         style="fill:#c4b6e7" /><path
         d="m 230.893,946.924 c -0.982,-0.313 -1.957,-0.612 -2.943,-0.941 0.986,0.33 1.96,0.627 2.943,0.941 z"
         id="path24"
         inkscape:connector-curvature="0"
         style="fill:#c4b6e7" /><path
         d="m 254.274,255.265 c 3.764,-1.183 7.536,-2.284 11.314,-3.284 -3.778,1.001 -7.548,2.1 -11.314,3.284 z"
         id="path26"
         inkscape:connector-curvature="0"
         style="fill:#c4b6e7" /><path
         d="m 143.124,326.103 c 2.671,-2.944 5.386,-5.817 8.16,-8.596 -2.774,2.779 -5.489,5.653 -8.16,8.596 z"
         id="path28"
         inkscape:connector-curvature="0"
         style="fill:#c4b6e7" /><path
         d="m 230.483,264.066 c 7.414,-3.166 14.908,-5.955 22.444,-8.369 -7.536,2.416 -15.028,5.204 -22.444,8.369 z"
         id="path30"
         inkscape:connector-curvature="0"
         style="fill:#c4b6e7" /><path
         d="m 266.369,251.782 c 7.77,-2.031 15.556,-3.675 23.311,-4.94 -7.755,1.266 -15.539,2.908 -23.311,4.94 z"
         id="path32"
         inkscape:connector-curvature="0"
         style="fill:#c4b6e7" /><path
         d="m 131.974,339.295 c -2.688,3.412 -5.331,6.886 -7.876,10.492 -36.432,51.571 -60.908,124.737 -70.071,202.533 9.164,-77.797 33.642,-150.963 70.071,-202.534 2.545,-3.605 5.188,-7.08 7.876,-10.491 z"
         id="path34"
         inkscape:connector-curvature="0"
         style="fill:#c4b6e7" /><path
         d="m 50.131,608.449 c -0.16,7.528 -0.173,15.062 -0.038,22.586 -0.136,-7.523 -0.122,-15.057 0.038,-22.586 z"
         id="path36"
         inkscape:connector-curvature="0"
         style="fill:#c4b6e7" /><path
         d="m 218.285,269.647 c 3.546,-1.738 7.117,-3.386 10.706,-4.946 -3.589,1.56 -7.16,3.207 -10.706,4.946 z"
         id="path38"
         inkscape:connector-curvature="0"
         style="fill:#c4b6e7" /><path
         d="m 173.423,297.841 c 3.004,-2.364 6.049,-4.649 9.128,-6.852 -3.079,2.205 -6.124,4.488 -9.128,6.852 z"
         id="path40"
         inkscape:connector-curvature="0"
         style="fill:#c4b6e7" /><path
         d="m 162.934,306.577 c 3.045,-2.681 6.132,-5.288 9.27,-7.79 -3.138,2.503 -6.224,5.109 -9.27,7.79 z"
         id="path42"
         inkscape:connector-curvature="0"
         style="fill:#c4b6e7" /><path
         d="m 152.077,316.695 c 2.943,-2.92 5.951,-5.726 8.999,-8.463 -3.047,2.738 -6.058,5.543 -8.999,8.463 z"
         id="path44"
         inkscape:connector-curvature="0"
         style="fill:#c4b6e7" /><path
         d="m 183.857,290.045 c 3.266,-2.306 6.579,-4.511 9.922,-6.639 -3.343,2.129 -6.655,4.333 -9.922,6.639 z"
         id="path46"
         inkscape:connector-curvature="0"
         style="fill:#c4b6e7" /><path
         d="m 195.629,282.243 c 3.424,-2.137 6.873,-4.206 10.359,-6.16 -3.487,1.955 -6.936,4.023 -10.359,6.16 z"
         id="path48"
         inkscape:connector-curvature="0"
         style="fill:#c4b6e7" /><path
         d="m 206.297,275.916 c 3.48,-1.942 6.995,-3.775 10.53,-5.538 -3.536,1.763 -7.05,3.596 -10.53,5.538 z"
         id="path50"
         inkscape:connector-curvature="0"
         style="fill:#c4b6e7" /><path
         d="m 358.958,651.472 c 0,0 2.569,-5.164 5.784,-13.615 7.106,-18.684 17.391,-53.614 10.349,-85.61 -3.479,-15.81 -11.174,-30.894 -25.607,-42.92 0,0 20.119,-0.038 44.28,-10.455 33.894,-14.613 75.75,-49.688 81.282,-134.059 5.837,-89.008 -86.532,-133.668 -184.286,-118.144 3.875,-0.615 7.74,-1.148 11.593,-1.576 20.911,-2.317 41.637,8.799 49.654,28.25 4.054,9.837 4.591,20.381 -0.155,29.872 -28.096,60.877 -116.356,33.82 -159.583,88.067 -1.02,1.282 -1.979,2.649 -2.874,4.019 -74.164,113.256 -50.245,244.869 34.527,334.353 45.062,45.062 78.66,109.161 83.942,170.576 2.766,32.153 -26.171,58.435 -57.659,51.883 90.172,19.638 157.172,-31.301 183.305,-98.405 27.574,-70.804 9.668,-159.551 -74.552,-202.236 z"
         id="path52"
         inkscape:connector-curvature="0"
         style="fill:#c4b6e7" /><path
         d="M 307.864,900.228 C 302.582,838.815 268.984,774.715 223.92,729.652 139.147,640.17 115.231,508.557 189.392,395.3 c 0.897,-1.37 1.854,-2.737 2.876,-4.018 43.225,-54.249 131.488,-27.19 159.583,-88.068 4.746,-9.491 4.209,-20.035 0.153,-29.872 -8.016,-19.452 -28.743,-30.568 -49.654,-28.25 -3.851,0.426 -7.716,0.959 -11.593,1.575 -0.358,0.057 -0.718,0.114 -1.079,0.173 -7.754,1.267 -15.541,2.91 -23.311,4.94 -0.262,0.068 -0.521,0.131 -0.781,0.2 -3.778,1 -7.55,2.1 -11.314,3.284 -0.449,0.142 -0.897,0.287 -1.346,0.432 -7.536,2.415 -15.03,5.205 -22.444,8.369 -0.498,0.213 -0.996,0.419 -1.492,0.635 -3.591,1.559 -7.162,3.207 -10.706,4.946 -0.488,0.239 -0.972,0.489 -1.458,0.731 -3.536,1.762 -7.05,3.596 -10.53,5.538 -0.102,0.057 -0.207,0.11 -0.309,0.167 -3.488,1.953 -6.935,4.023 -10.359,6.16 -0.618,0.386 -1.234,0.771 -1.85,1.165 -3.345,2.127 -6.656,4.333 -9.922,6.638 -0.439,0.309 -0.868,0.632 -1.305,0.944 -3.079,2.204 -6.125,4.488 -9.128,6.852 -0.404,0.319 -0.815,0.625 -1.219,0.946 -3.138,2.502 -6.225,5.108 -9.27,7.79 -0.625,0.547 -1.24,1.102 -1.858,1.655 -3.047,2.737 -6.058,5.543 -8.999,8.463 -0.268,0.266 -0.528,0.545 -0.793,0.812 -2.774,2.778 -5.489,5.652 -8.16,8.596 -0.5,0.551 -1.006,1.093 -1.502,1.65 -2.75,3.086 -5.437,6.269 -8.063,9.535 -0.533,0.662 -1.057,1.336 -1.583,2.005 -2.689,3.412 -5.331,6.886 -7.878,10.492 -36.43,51.573 -60.908,124.739 -70.071,202.535 -1.307,11.115 -2.306,22.324 -2.98,33.577 -0.449,7.502 -0.754,15.024 -0.916,22.552 -0.16,7.528 -0.173,15.062 -0.038,22.586 0.27,15.049 1.136,30.06 2.622,44.914 11.885,118.854 63.413,227.832 166.468,266.921 2.945,1.118 5.862,2.142 8.766,3.112 0.986,0.329 1.961,0.628 2.943,0.941 1.899,0.605 3.795,1.192 5.677,1.736 1.171,0.34 2.339,0.665 3.504,0.981 1.667,0.451 3.323,0.874 4.973,1.278 1.246,0.305 2.494,0.618 3.73,0.896 0.292,0.065 0.586,0.147 0.878,0.211 0.183,0.041 0.364,0.047 0.547,0.086 31.492,6.553 60.428,-19.728 57.663,-51.883 z"
         id="path54"
         inkscape:connector-curvature="0"
         style="fill:#b4a3e1" /><path
         d="m 850.518,509.327 c 0,0 -20.121,-0.038 -44.28,-10.455 -14.961,4.822 -31.224,8.978 -43.277,9.159 -29.24,0.439 -52.814,-12.517 -55.63,2.236 -2.814,14.751 -6.014,24.423 -3.892,31.729 2.124,7.306 45.733,4.603 71.775,13.836 5.565,1.973 11.623,4.479 17.7,7.178 10.732,-2.617 21.893,-6.607 31.994,-10.763 3.481,-15.809 11.178,-30.893 25.61,-42.92 z m -133.842,31.752 c -12.558,1.396 -4.005,-31.62 3.781,-30.66 7.786,0.961 4.463,29.743 -3.781,30.66 z"
         id="path56"
         inkscape:connector-curvature="0"
         style="fill:#f47fab" /><path
         d="m 720.457,510.419 c -7.786,-0.96 -16.339,32.056 -3.781,30.66 8.244,-0.917 11.567,-29.699 3.781,-30.66 z"
         id="path58"
         inkscape:connector-curvature="0"
         style="fill:#f79fc5" /><path
         d="m 841.041,651.472 c 0,0 -2.567,-5.164 -5.782,-13.615 -13.652,-5.888 -29.297,-12.128 -42.565,-16.079 -6.347,-1.888 -13.517,-3.15 -20.936,-4.042 -8.104,7.489 -15.795,20.604 -20.033,43.402 -10.86,58.415 -16.224,106.687 -24.45,138.579 -8.229,31.893 -22.652,96.487 -24.673,106.996 -2.02,10.508 42.786,20.544 49.194,10.494 5.217,-8.184 4.982,-28.392 14.695,-63.5 -27.574,-70.803 -9.668,-159.55 74.55,-202.235 z M 733.456,914.103 c -9.327,-0.433 -34.608,-10.164 -20.41,-12.849 14.199,-2.688 53.137,14.366 20.41,12.849 z"
         id="path60"
         inkscape:connector-curvature="0"
         style="fill:#f79fc5" /><path
         d="m 713.046,901.254 c -14.198,2.685 11.083,12.416 20.41,12.847 32.727,1.519 -6.211,-15.535 -20.41,-12.847 z"
         id="path62"
         inkscape:connector-curvature="0"
         style="fill:#f47fab" /><path
         d="m 835.259,637.858 c -7.108,-18.686 -17.393,-53.616 -10.351,-85.612 -10.104,4.157 -21.264,8.147 -31.994,10.765 -6.112,1.492 -12.087,2.541 -17.641,2.909 -34.603,2.3 -63.303,-11.609 -65.74,6.032 -2.438,17.639 -5.638,29.288 -2.679,37.811 2.362,6.8 35.606,4.453 64.901,7.973 7.419,0.892 14.591,2.154 20.936,4.044 13.271,3.949 28.916,10.189 42.568,16.078 z M 722.473,607.871 c -14.784,2.415 -6.663,-37.201 2.615,-36.537 9.277,0.663 7.093,34.948 -2.615,36.537 z"
         id="path64"
         inkscape:connector-curvature="0"
         style="fill:#938ec6" /><path
         d="m 725.088,571.334 c -9.278,-0.666 -17.399,38.952 -2.613,36.535 9.706,-1.587 11.89,-35.872 2.613,-36.535 z"
         id="path66"
         inkscape:connector-curvature="0"
         style="fill:#c4b6e7" /><path
         d="m 971.009,264.702 c 3.591,1.559 7.162,3.207 10.707,4.946 -3.547,-1.74 -7.114,-3.387 -10.707,-4.946 z"
         id="path68"
         inkscape:connector-curvature="0"
         style="fill:#c4b6e7" /><path
         d="m 983.173,270.378 c 3.535,1.762 7.052,3.596 10.53,5.538 -3.478,-1.942 -6.995,-3.775 -10.53,-5.538 z"
         id="path70"
         inkscape:connector-curvature="0"
         style="fill:#c4b6e7" /><path
         d="m 994.01,276.084 c 3.49,1.953 6.938,4.023 10.359,6.16 -3.421,-2.138 -6.869,-4.206 -10.359,-6.16 z"
         id="path72"
         inkscape:connector-curvature="0"
         style="fill:#c4b6e7" /><path
         d="m 954.946,950.922 c -1.24,0.303 -2.486,0.614 -3.717,0.894 1.234,-0.28 2.474,-0.589 3.717,-0.894 z"
         id="path74"
         inkscape:connector-curvature="0"
         style="fill:#c4b6e7" /><path
         d="m 972.05,945.982 c -0.984,0.329 -1.958,0.628 -2.937,0.939 0.979,-0.311 1.953,-0.608 2.937,-0.939 z"
         id="path76"
         inkscape:connector-curvature="0"
         style="fill:#c4b6e7" /><path
         d="m 963.426,948.662 c -1.17,0.338 -2.333,0.663 -3.494,0.978 1.161,-0.315 2.326,-0.64 3.494,-0.978 z"
         id="path78"
         inkscape:connector-curvature="0"
         style="fill:#c4b6e7" /><path
         d="m 934.414,251.982 c 3.777,1 7.55,2.1 11.312,3.284 -3.764,-1.185 -7.536,-2.284 -11.312,-3.284 z"
         id="path80"
         inkscape:connector-curvature="0"
         style="fill:#c4b6e7" /><path
         d="m 910.323,246.842 c 7.754,1.267 15.538,2.91 23.311,4.94 -7.775,-2.032 -15.558,-3.674 -23.311,-4.94 z"
         id="path82"
         inkscape:connector-curvature="0"
         style="fill:#c4b6e7" /><path
         d="m 947.074,255.698 c 7.534,2.415 15.028,5.205 22.442,8.369 -7.413,-3.166 -14.905,-5.954 -22.442,-8.369 z"
         id="path84"
         inkscape:connector-curvature="0"
         style="fill:#c4b6e7" /><path
         d="m 1048.734,317.526 c 2.764,2.769 5.471,5.631 8.131,8.565 -2.661,-2.934 -5.368,-5.795 -8.131,-8.565 z"
         id="path86"
         inkscape:connector-curvature="0"
         style="fill:#c4b6e7" /><path
         d="m 1038.924,308.233 c 3.048,2.735 6.056,5.54 8.992,8.457 -2.936,-2.918 -5.944,-5.722 -8.992,-8.457 z"
         id="path88"
         inkscape:connector-curvature="0"
         style="fill:#c4b6e7" /><path
         d="m 1058.386,327.761 c 2.744,3.082 5.426,6.257 8.05,9.518 -2.624,-3.26 -5.306,-6.437 -8.05,-9.518 z"
         id="path90"
         inkscape:connector-curvature="0"
         style="fill:#c4b6e7" /><path
         d="m 1068.036,339.307 c 2.685,3.408 5.325,6.878 7.868,10.48 -2.544,-3.602 -5.185,-7.073 -7.868,-10.48 z"
         id="path92"
         inkscape:connector-curvature="0"
         style="fill:#c4b6e7" /><path
         d="m 892.139,900.228 c 5.281,-61.413 38.88,-125.513 83.941,-170.576 84.772,-89.481 108.691,-221.095 34.527,-334.352 -0.897,-1.37 -1.853,-2.737 -2.874,-4.018 -43.226,-54.249 -131.488,-27.19 -159.586,-88.068 -4.744,-9.491 -4.209,-20.035 -0.153,-29.872 8.018,-19.452 28.743,-30.568 49.654,-28.25 3.853,0.426 7.719,0.959 11.593,1.575 -97.753,-15.524 -190.123,29.136 -184.286,118.143 5.532,84.373 47.389,119.447 81.282,134.06 24.159,10.417 44.28,10.455 44.28,10.455 -14.432,12.026 -22.129,27.11 -25.607,42.921 -7.044,31.994 3.24,66.925 10.349,85.61 3.215,8.451 5.784,13.615 5.784,13.615 -84.22,42.686 -102.126,131.431 -74.55,202.233 26.134,67.103 93.132,118.041 183.302,98.405 -31.49,6.553 -60.423,-19.726 -57.656,-51.881 z"
         id="path94"
         inkscape:connector-curvature="0"
         style="fill:#c4b6e7" /><path
         d="m 1006.224,283.408 c 3.341,2.126 6.651,4.331 9.919,6.636 -3.268,-2.305 -6.578,-4.51 -9.919,-6.636 z"
         id="path96"
         inkscape:connector-curvature="0"
         style="fill:#c4b6e7" /><path
         d="m 1017.452,290.993 c 3.079,2.203 6.122,4.485 9.125,6.848 -3.003,-2.363 -6.046,-4.645 -9.125,-6.848 z"
         id="path98"
         inkscape:connector-curvature="0"
         style="fill:#c4b6e7" /><path
         d="m 1027.797,298.788 c 3.139,2.502 6.226,5.108 9.271,7.79 -3.045,-2.682 -6.132,-5.288 -9.271,-7.79 z"
         id="path100"
         inkscape:connector-curvature="0"
         style="fill:#c4b6e7" /><path
         d="m 1075.905,349.787 c -2.545,-3.602 -5.186,-7.072 -7.868,-10.48 -0.532,-0.676 -1.063,-1.358 -1.601,-2.028 -2.624,-3.261 -5.306,-6.438 -8.05,-9.518 -0.502,-0.564 -1.014,-1.111 -1.521,-1.669 -2.66,-2.933 -5.367,-5.797 -8.131,-8.566 -0.273,-0.275 -0.539,-0.562 -0.815,-0.835 -2.938,-2.918 -5.946,-5.722 -8.992,-8.457 -0.618,-0.555 -1.236,-1.107 -1.858,-1.656 -3.045,-2.681 -6.13,-5.289 -9.271,-7.79 -0.403,-0.322 -0.812,-0.628 -1.218,-0.946 -3.005,-2.363 -6.046,-4.646 -9.125,-6.848 -0.438,-0.314 -0.872,-0.639 -1.312,-0.949 -3.266,-2.304 -6.576,-4.51 -9.919,-6.637 -0.616,-0.392 -1.234,-0.777 -1.853,-1.164 -3.422,-2.137 -6.871,-4.206 -10.359,-6.16 -0.103,-0.057 -0.204,-0.11 -0.307,-0.167 -3.479,-1.942 -6.995,-3.775 -10.53,-5.538 -0.486,-0.242 -0.971,-0.492 -1.457,-0.731 -3.547,-1.738 -7.118,-3.386 -10.707,-4.946 -0.496,-0.216 -0.994,-0.423 -1.492,-0.635 -7.414,-3.165 -14.908,-5.955 -22.442,-8.369 -0.451,-0.145 -0.899,-0.292 -1.349,-0.432 -3.764,-1.183 -7.536,-2.284 -11.313,-3.284 -0.26,-0.069 -0.52,-0.132 -0.781,-0.2 -7.772,-2.031 -15.557,-3.676 -23.311,-4.94 -0.36,-0.059 -0.719,-0.117 -1.079,-0.174 -3.874,-0.614 -7.74,-1.147 -11.593,-1.575 -20.911,-2.317 -41.637,8.799 -49.654,28.25 -4.056,9.837 -4.591,20.381 0.153,29.872 28.096,60.877 116.358,33.82 159.586,88.067 1.02,1.282 1.977,2.649 2.874,4.018 74.162,113.256 50.245,244.87 -34.527,334.354 -45.062,45.062 -78.662,109.161 -83.943,170.576 -2.765,32.153 26.168,58.433 57.656,51.883 0.186,-0.037 0.368,-0.045 0.553,-0.086 0.292,-0.063 0.589,-0.146 0.881,-0.211 1.234,-0.277 2.477,-0.591 3.719,-0.894 1.653,-0.406 3.314,-0.829 4.984,-1.282 1.161,-0.314 2.326,-0.64 3.496,-0.978 1.884,-0.546 3.781,-1.133 5.686,-1.738 0.98,-0.313 1.954,-0.61 2.938,-0.939 2.902,-0.973 5.823,-1.996 8.767,-3.112 206.108,-78.183 206.108,-435.915 95.085,-593.086 z"
         id="path102"
         inkscape:connector-curvature="0"
         style="fill:#b4a3e1" /></g></g></svg>