<?xml version="1.0" encoding="UTF-8" standalone="no"?>
<!-- Generator: Adobe Illustrator 16.0.3, SVG Export Plug-In . SVG Version: 6.00 Build 0)  -->

<svg
   xmlns:dc="http://purl.org/dc/elements/1.1/"
   xmlns:cc="http://creativecommons.org/ns#"
   xmlns:rdf="http://www.w3.org/1999/02/22-rdf-syntax-ns#"
   xmlns:svg="http://www.w3.org/2000/svg"
   xmlns="http://www.w3.org/2000/svg"
   xmlns:sodipodi="http://sodipodi.sourceforge.net/DTD/sodipodi-0.dtd"
   xmlns:inkscape="http://www.inkscape.org/namespaces/inkscape"
   version="1.1"
   id="Layer_1"
   x="0px"
   y="0px"
   width="1099.999"
   height="1079.2042"
   viewBox="0 0 1099.999 1079.2042"
   enable-background="new 0 0 1200 1200"
   xml:space="preserve"
   sodipodi:docname="rgo-humano-de-pulmo-by-Vexels.svg"
   inkscape:version="0.92.1 r15371"><metadata
     id="metadata27"><rdf:RDF><cc:Work
         rdf:about=""><dc:format>image/svg+xml</dc:format><dc:type
           rdf:resource="http://purl.org/dc/dcmitype/StillImage" /><dc:title></dc:title></cc:Work></rdf:RDF></metadata><defs
     id="defs25" /><sodipodi:namedview
     pagecolor="#ffffff"
     bordercolor="#666666"
     borderopacity="1"
     objecttolerance="10"
     gridtolerance="10"
     guidetolerance="10"
     inkscape:pageopacity="0"
     inkscape:pageshadow="2"
     inkscape:window-width="1680"
     inkscape:window-height="987"
     id="namedview23"
     showgrid="false"
     fit-margin-top="0"
     fit-margin-left="0"
     fit-margin-right="0"
     fit-margin-bottom="0"
     inkscape:zoom="0.19666667"
     inkscape:cx="549.99918"
     inkscape:cy="539.6025"
     inkscape:window-x="-8"
     inkscape:window-y="-8"
     inkscape:window-maximized="1"
     inkscape:current-layer="Layer_1" /><g
     id="g20"
     transform="translate(-50.000821,-60.398216)"><g
       id="g18"><path
         d="m 683.57,625.645 c -0.397,-7.868 -1.106,-15.624 -2.008,-23.288 -30.144,-30.235 -43.715,-71.735 -43.715,-118.204 0,-70.59 8.471,-265.418 -14.119,-350.125 -22.588,-84.708 -50.823,-81.884 -83.62,-62.119 -32.798,19.765 -37.794,22.589 0,129.885 37.791,107.296 44.091,273.889 27.15,336.008 -6.779,24.855 -26.22,41.067 -47.099,51.596 -1.748,11.837 -3.104,23.914 -3.727,36.25 -0.973,19.284 1.88,38.014 2.847,56.985 32.775,-13.299 67.907,-29.225 79.038,-40.359 22.587,-22.588 25.41,-16.941 56.471,42.355 8.321,15.889 18.47,28.71 28.866,39.004 -7.917,-33.707 1.58,-65.035 -0.084,-97.988 z M 563.492,134.968 c -53.381,23.504 -35.316,-55.525 0,-50.824 35.316,4.699 14.206,44.568 0,50.824 z"
         id="path2"
         inkscape:connector-curvature="0"
         style="fill:#f47fab" /><path
         d="m 563.492,84.143 c -35.316,-4.7 -53.381,74.33 0,50.823 14.206,-6.254 35.316,-46.123 0,-50.823 z"
         id="path4"
         inkscape:connector-curvature="0"
         style="fill:#f79fc5" /><path
         d="m 79.936,800.458 c -12.404,-0.88 -33.732,6.705 -29.352,71.438 6.104,90.222 12.729,200.132 18.578,245.928 5.847,45.794 33.325,6.104 82.172,0 39.209,-4.902 96.09,-3.93 121.759,-30.183 -1.667,0.244 -3.378,0.496 -5.136,0.76 -55.461,8.318 -165.378,-182.156 -188.021,-287.943 z"
         id="path6"
         inkscape:connector-curvature="0"
         style="fill:#c4b6e7" /><path
         d="M 203.013,842.748 C 119.272,801.637 93.846,736.714 105.439,663.925 86.402,693.193 68.057,738.094 78.774,794.747 c 0.356,1.872 0.748,3.781 1.162,5.711 22.643,105.787 132.561,296.261 188.021,287.943 1.758,-0.266 3.468,-0.518 5.136,-0.76 51.921,-7.55 61.915,-5.241 127.572,-16.185 67.766,-11.294 -11.294,-101.647 0,-144.002 11.296,-42.354 92.527,-120.735 112.619,-193.076 0.029,-0.107 0.045,-0.218 0.072,-0.324 -2.077,6.021 -4.723,12.121 -8.217,18.338 -25.415,45.178 -146.827,166.592 -302.126,90.356 z"
         id="path8"
         inkscape:connector-curvature="0"
         style="fill:#b4a3e1" /><path
         d="m 516.433,625.645 c 0.622,-12.335 1.979,-24.412 3.727,-36.249 11.486,-77.809 40.386,-144.879 -3.727,-201.245 -50.826,-64.943 -203.299,-56.473 -313.419,81.884 -50.739,63.751 -87.668,131.692 -97.574,193.891 -11.593,72.791 13.833,137.714 97.574,178.823 155.298,76.236 276.71,-45.178 302.125,-90.355 3.496,-6.215 6.142,-12.316 8.217,-18.338 6.103,-17.704 6.776,-34.661 5.924,-51.424 -0.969,-18.973 -3.822,-37.702 -2.847,-56.987 z"
         id="path10"
         inkscape:connector-curvature="0"
         style="fill:#c4b6e7" /><path
         d="m 1120.067,800.458 c -22.643,105.787 -132.561,296.261 -188.021,287.943 -1.758,-0.266 -3.469,-0.518 -5.138,-0.76 25.67,26.253 82.552,25.28 121.761,30.181 48.847,6.106 76.325,45.796 82.172,0 5.849,-45.796 12.471,-155.704 18.575,-245.928 4.383,-64.731 -16.947,-72.316 -29.349,-71.436 z"
         id="path12"
         inkscape:connector-curvature="0"
         style="fill:#c4b6e7" /><path
         d="m 1120.067,800.458 c 0.413,-1.93 0.805,-3.839 1.159,-5.711 10.72,-56.653 -7.624,-101.555 -26.663,-130.822 11.594,72.789 -13.833,137.714 -97.574,178.823 -155.298,76.236 -276.712,-45.178 -302.125,-90.355 -3.498,-6.219 -6.144,-12.32 -8.219,-18.344 0.029,0.108 0.045,0.221 0.075,0.33 20.089,72.341 101.322,150.722 112.616,193.076 11.296,42.354 -67.764,132.708 0,144.002 65.657,10.943 75.654,8.635 127.572,16.185 1.669,0.242 3.38,0.494 5.138,0.76 55.46,8.317 165.378,-182.157 188.021,-287.944 z"
         id="path14"
         inkscape:connector-curvature="0"
         style="fill:#b4a3e1" /><path
         d="m 996.987,842.748 c 83.743,-41.109 109.168,-106.034 97.576,-178.823 -9.905,-62.198 -46.835,-130.14 -97.576,-193.892 C 886.868,331.677 734.394,323.207 683.57,388.149 c -46.546,59.473 -11.815,130.86 -2.008,214.205 0.901,7.666 1.61,15.422 2.008,23.288 1.664,32.953 -7.833,64.283 0.085,97.988 0.811,3.447 1.781,6.916 2.99,10.418 2.075,6.021 4.721,12.125 8.219,18.344 25.411,45.178 146.827,166.592 302.123,90.356 z"
         id="path16"
         inkscape:connector-curvature="0"
         style="fill:#c4b6e7" /></g></g></svg>