<?xml version="1.0" encoding="UTF-8" standalone="no"?>
<!-- Generator: Adobe Illustrator 16.0.0, SVG Export Plug-In . SVG Version: 6.00 Build 0)  -->

<svg
   xmlns:dc="http://purl.org/dc/elements/1.1/"
   xmlns:cc="http://creativecommons.org/ns#"
   xmlns:rdf="http://www.w3.org/1999/02/22-rdf-syntax-ns#"
   xmlns:svg="http://www.w3.org/2000/svg"
   xmlns="http://www.w3.org/2000/svg"
   xmlns:sodipodi="http://sodipodi.sourceforge.net/DTD/sodipodi-0.dtd"
   xmlns:inkscape="http://www.inkscape.org/namespaces/inkscape"
   version="1.1"
   id="Layer_1"
   x="0px"
   y="0px"
   width="16.537443"
   height="7.0587082"
   viewBox="0 0 16.537443 7.0587082"
   enable-background="new 0 0 100 100"
   xml:space="preserve"
   sodipodi:docname="01.svg"
   inkscape:version="0.92.1 r15371"><metadata
     id="metadata23"><rdf:RDF><cc:Work
         rdf:about=""><dc:format>image/svg+xml</dc:format><dc:type
           rdf:resource="http://purl.org/dc/dcmitype/StillImage" /><dc:title></dc:title></cc:Work></rdf:RDF></metadata><defs
     id="defs21" /><sodipodi:namedview
     pagecolor="#ffffff"
     bordercolor="#666666"
     borderopacity="1"
     objecttolerance="10"
     gridtolerance="10"
     guidetolerance="10"
     inkscape:pageopacity="0"
     inkscape:pageshadow="2"
     inkscape:window-width="1680"
     inkscape:window-height="987"
     id="namedview19"
     showgrid="false"
     fit-margin-top="0"
     fit-margin-left="0"
     fit-margin-right="0"
     fit-margin-bottom="0"
     inkscape:zoom="18.88"
     inkscape:cx="-14.594216"
     inkscape:cy="-7.4992576"
     inkscape:window-x="-8"
     inkscape:window-y="-8"
     inkscape:window-maximized="1"
     inkscape:current-layer="Layer_1" /><g
     id="g6"
     transform="matrix(0.93720322,0,0,0.92355203,-35.739752,-83.27761)"><path
       stroke-miterlimit="10"
       d="m 55.42,95.37 c 0,1.151 -0.933,2.085 -2.083,2.085 h -3.575 c -1.151,0 -2.084,-0.934 -2.084,-2.085 v -2.754 c 0,-1.151 0.933,-2.084 2.084,-2.084 h 3.575 c 1.15,0 2.083,0.933 2.083,2.084 z"
       id="path2"
       inkscape:connector-curvature="0"
       style="fill:none;stroke:#77cccd;stroke-width:0.2;stroke-miterlimit:10" /><path
       stroke-miterlimit="10"
       d="m 53.337,97.714 h -3.575 c -1.293,0 -2.345,-1.051 -2.345,-2.344 v -2.754 c 0,-1.293 1.052,-2.345 2.345,-2.345 h 3.575 c 1.292,0 2.343,1.052 2.343,2.345 v 2.754 c 0,1.293 -1.051,2.344 -2.343,2.344 z m -3.575,-6.923 c -1.005,0 -1.822,0.819 -1.822,1.825 v 2.754 c 0,1.004 0.817,1.822 1.822,1.822 h 3.575 c 1.004,0 1.821,-0.818 1.821,-1.822 v -2.754 c 0,-1.006 -0.817,-1.825 -1.821,-1.825 z"
       id="path4"
       inkscape:connector-curvature="0"
       style="fill:none;stroke:#77cccd;stroke-width:0.2;stroke-miterlimit:10" /></g><text
     font-size="4.5812"
     id="text8"
     style="font-size:4.26213121px;font-family:ArialRoundedMTBold;fill:#1a6866;stroke-width:0.93035263"
     x="11.239892"
     y="5.0214853"
     transform="scale(1.0073634,0.9926904)">1</text>
<circle
     stroke-miterlimit="10"
     cx="3.2510002"
     cy="3.3477995"
     r="3.1010001"
     id="circle10"
     style="fill:none;stroke:#77cccd;stroke-width:0.30000001;stroke-miterlimit:10" /><ellipse
     cx="2.4899986"
     cy="2.2408054"
     rx="0.176"
     ry="0.435"
     id="ellipse12"
     style="fill:#77cccd" /><ellipse
     cx="3.7829978"
     cy="2.2408054"
     rx="0.176"
     ry="0.435"
     id="ellipse14"
     style="fill:#77cccd" /><path
     stroke-miterlimit="10"
     d="m 5.1179984,3.6688023 c 0,1.028 -0.834,1.862 -1.862,1.862 -1.028,0 -1.862,-0.834 -1.862,-1.862 z"
     id="path16"
     inkscape:connector-curvature="0"
     style="fill:none;stroke:#77cccd;stroke-width:0.30000001;stroke-linecap:round;stroke-miterlimit:10" /></svg>