<?xml version="1.0" encoding="UTF-8" standalone="no"?>
<!-- Generator: Adobe Illustrator 16.0.0, SVG Export Plug-In . SVG Version: 6.00 Build 0)  -->

<svg
   xmlns:dc="http://purl.org/dc/elements/1.1/"
   xmlns:cc="http://creativecommons.org/ns#"
   xmlns:rdf="http://www.w3.org/1999/02/22-rdf-syntax-ns#"
   xmlns:svg="http://www.w3.org/2000/svg"
   xmlns="http://www.w3.org/2000/svg"
   xmlns:sodipodi="http://sodipodi.sourceforge.net/DTD/sodipodi-0.dtd"
   xmlns:inkscape="http://www.inkscape.org/namespaces/inkscape"
   version="1.1"
   id="Layer_1"
   x="0px"
   y="0px"
   width="17.394001"
   height="7.4429998"
   viewBox="0 0 17.394001 7.4429998"
   enable-background="new 0 0 100 100"
   xml:space="preserve"
   sodipodi:docname="04.svg"
   inkscape:version="0.92.1 r15371"><metadata
     id="metadata25"><rdf:RDF><cc:Work
         rdf:about=""><dc:format>image/svg+xml</dc:format><dc:type
           rdf:resource="http://purl.org/dc/dcmitype/StillImage" /><dc:title></dc:title></cc:Work></rdf:RDF></metadata><defs
     id="defs23" /><sodipodi:namedview
     pagecolor="#ffffff"
     bordercolor="#666666"
     borderopacity="1"
     objecttolerance="10"
     gridtolerance="10"
     guidetolerance="10"
     inkscape:pageopacity="0"
     inkscape:pageshadow="2"
     inkscape:window-width="1680"
     inkscape:window-height="987"
     id="namedview21"
     showgrid="false"
     fit-margin-top="0"
     fit-margin-left="0"
     fit-margin-right="0"
     fit-margin-bottom="0"
     inkscape:zoom="9.44"
     inkscape:cx="24.454947"
     inkscape:cy="3.3281255"
     inkscape:window-x="-8"
     inkscape:window-y="-8"
     inkscape:window-maximized="1"
     inkscape:current-layer="Layer_1" /><g
     id="g6"
     style="opacity:0.7"
     transform="translate(-38.285999,-55.61)"><path
       d="m 55.42,60.708 c 0,1.151 -0.933,2.083 -2.083,2.083 h -3.575 c -1.151,0 -2.084,-0.932 -2.084,-2.083 v -2.753 c 0,-1.151 0.933,-2.085 2.084,-2.085 h 3.575 c 1.15,0 2.083,0.934 2.083,2.085 z"
       id="path2"
       inkscape:connector-curvature="0"
       style="fill:#77cccd" /><path
       d="m 53.337,63.053 h -3.575 c -1.293,0 -2.345,-1.053 -2.345,-2.345 v -2.753 c 0,-1.293 1.052,-2.345 2.345,-2.345 h 3.575 c 1.292,0 2.343,1.052 2.343,2.345 v 2.753 c 0,1.292 -1.051,2.345 -2.343,2.345 z m -3.575,-6.921 c -1.005,0 -1.822,0.817 -1.822,1.823 v 2.753 c 0,1.007 0.817,1.823 1.822,1.823 h 3.575 c 1.004,0 1.821,-0.816 1.821,-1.823 v -2.753 c 0,-1.006 -0.817,-1.823 -1.821,-1.823 z"
       id="path4"
       inkscape:connector-curvature="0"
       style="fill:#77cccd" /></g><g
     id="g10"
     transform="translate(-38.285999,-55.61)"><text
       transform="translate(50.2158,61.1582)"
       font-size="4.5812"
       id="text8"
       style="font-size:4.58120012px;font-family:ArialRoundedMTBold;fill:#1a6866">4</text>
</g><circle
     stroke-miterlimit="10"
     cx="3.2510002"
     cy="4.0799985"
     r="3.1010001"
     id="circle12"
     style="fill:none;stroke:#77cccd;stroke-width:0.30000001;stroke-miterlimit:10" /><ellipse
     cx="2.4890029"
     cy="2.9739997"
     rx="0.176"
     ry="0.435"
     id="ellipse14"
     style="fill:#77cccd" /><ellipse
     cx="3.7820022"
     cy="2.9739997"
     rx="0.176"
     ry="0.435"
     id="ellipse16"
     style="fill:#77cccd" /><line
     stroke-miterlimit="10"
     x1="1.8640028"
     y1="5.5480008"
     x2="4.8640027"
     y2="5.5480008"
     id="line18"
     style="fill:none;stroke:#77cccd;stroke-width:0.30000001;stroke-linecap:round;stroke-miterlimit:10" /></svg>