<?xml version="1.0" encoding="UTF-8" standalone="no"?>
<!-- Generator: Adobe Illustrator 16.0.0, SVG Export Plug-In . SVG Version: 6.00 Build 0)  -->

<svg
   xmlns:dc="http://purl.org/dc/elements/1.1/"
   xmlns:cc="http://creativecommons.org/ns#"
   xmlns:rdf="http://www.w3.org/1999/02/22-rdf-syntax-ns#"
   xmlns:svg="http://www.w3.org/2000/svg"
   xmlns="http://www.w3.org/2000/svg"
   xmlns:sodipodi="http://sodipodi.sourceforge.net/DTD/sodipodi-0.dtd"
   xmlns:inkscape="http://www.inkscape.org/namespaces/inkscape"
   version="1.1"
   id="Layer_1"
   x="0px"
   y="0px"
   width="17.394001"
   height="7.4429998"
   viewBox="0 0 17.394001 7.4429998"
   enable-background="new 0 0 100 100"
   xml:space="preserve"
   sodipodi:docname="08.svg"
   inkscape:version="0.91 r13725"><metadata
     id="metadata29"><rdf:RDF><cc:Work
         rdf:about=""><dc:format>image/svg+xml</dc:format><dc:type
           rdf:resource="http://purl.org/dc/dcmitype/StillImage" /><dc:title /></cc:Work></rdf:RDF></metadata><defs
     id="defs27" /><sodipodi:namedview
     pagecolor="#ffffff"
     bordercolor="#666666"
     borderopacity="1"
     objecttolerance="10"
     gridtolerance="10"
     guidetolerance="10"
     inkscape:pageopacity="0"
     inkscape:pageshadow="2"
     inkscape:window-width="1280"
     inkscape:window-height="687"
     id="namedview25"
     showgrid="false"
     fit-margin-top="0"
     fit-margin-left="0"
     fit-margin-right="0"
     fit-margin-bottom="0"
     inkscape:zoom="18.88"
     inkscape:cx="15.342546"
     inkscape:cy="5.0877468"
     inkscape:window-x="0"
     inkscape:window-y="1"
     inkscape:window-maximized="1"
     inkscape:current-layer="g10" /><path
     stroke-miterlimit="10"
     d="m 1.8980013,5.501 c 0.826,-0.793 2.139,-0.767 2.933,0.059"
     id="path12"
     inkscape:connector-curvature="0"
     style="fill:none;stroke:#77cccd;stroke-width:0.30000001;stroke-linecap:round;stroke-miterlimit:10" /><g
     id="g16"
     transform="translate(-38.285999,-21.306)"><path
       d="m 40.706,24.693 c 0.126,0 0.23,-0.255 0.23,-0.57 l -0.783,0.285 c 0,0.316 0.426,0.285 0.553,0.285 z"
       id="path14"
       inkscape:connector-curvature="0"
       style="fill:#77cccd" /></g><g
     id="g20"
     transform="translate(-38.285999,-21.306)"><path
       d="m 42.367,24.693 c -0.126,0 -0.23,-0.255 -0.23,-0.57 l 0.783,0.285 c 0,0.316 -0.426,0.285 -0.553,0.285 z"
       id="path18"
       inkscape:connector-curvature="0"
       style="fill:#77cccd" /></g><circle
     stroke-miterlimit="10"
     cx="3.2510002"
     cy="4.0820003"
     r="3.1010001"
     id="circle22"
     style="fill:none;stroke:#77cccd;stroke-width:0.30000001;stroke-miterlimit:10" /><g
     transform="translate(-38.301,-12.711)"
     style="opacity:0.7"
     id="g6"><path
       style="fill:#c01e61"
       inkscape:connector-curvature="0"
       d="m 55.42,17.829 c 0,1.151 -0.933,2.083 -2.083,2.083 h -3.575 c -1.151,0 -2.084,-0.932 -2.084,-2.083 v -2.754 c 0,-1.151 0.933,-2.083 2.084,-2.083 h 3.575 c 1.15,0 2.083,0.932 2.083,2.083 z"
       id="path2" /><path
       style="fill:#c01e61"
       inkscape:connector-curvature="0"
       d="m 53.337,20.173 h -3.575 c -1.293,0 -2.345,-1.052 -2.345,-2.344 v -2.754 c 0,-1.292 1.052,-2.343 2.345,-2.343 h 3.575 c 1.292,0 2.343,1.051 2.343,2.343 v 2.754 c 0,1.292 -1.051,2.344 -2.343,2.344 z m -3.575,-6.922 c -1.005,0 -1.822,0.818 -1.822,1.823 v 2.754 c 0,1.004 0.817,1.822 1.822,1.822 h 3.575 c 1.004,0 1.821,-0.818 1.821,-1.822 v -2.754 c 0,-1.005 -0.817,-1.823 -1.821,-1.823 z"
       id="path4" /></g><g
     transform="translate(-38.301,-12.711)"
     id="g10"><text
       style="font-size:4.58120012px;font-family:ArialRoundedMTBold;fill:#ffffff"
       transform="translate(50.2158,18.062)"
       font-size="4.5812"
       id="text8">8</text>
</g></svg>