<?xml version="1.0" encoding="UTF-8" standalone="no"?>
<!-- Generator: Adobe Illustrator 16.0.0, SVG Export Plug-In . SVG Version: 6.00 Build 0)  -->

<svg
   xmlns:dc="http://purl.org/dc/elements/1.1/"
   xmlns:cc="http://creativecommons.org/ns#"
   xmlns:rdf="http://www.w3.org/1999/02/22-rdf-syntax-ns#"
   xmlns:svg="http://www.w3.org/2000/svg"
   xmlns="http://www.w3.org/2000/svg"
   xmlns:sodipodi="http://sodipodi.sourceforge.net/DTD/sodipodi-0.dtd"
   xmlns:inkscape="http://www.inkscape.org/namespaces/inkscape"
   version="1.1"
   id="Layer_1"
   x="0px"
   y="0px"
   width="17.394001"
   height="7.4419999"
   viewBox="0 0 17.394001 7.4419999"
   enable-background="new 0 0 100 100"
   xml:space="preserve"
   sodipodi:docname="10 - Copia.svg"
   inkscape:version="0.92.1 r15371"><metadata
     id="metadata25"><rdf:RDF><cc:Work
         rdf:about=""><dc:format>image/svg+xml</dc:format><dc:type
           rdf:resource="http://purl.org/dc/dcmitype/StillImage" /><dc:title /></cc:Work></rdf:RDF></metadata><defs
     id="defs23" /><sodipodi:namedview
     pagecolor="#ffffff"
     bordercolor="#666666"
     borderopacity="1"
     objecttolerance="10"
     gridtolerance="10"
     guidetolerance="10"
     inkscape:pageopacity="0"
     inkscape:pageshadow="2"
     inkscape:window-width="1680"
     inkscape:window-height="987"
     id="namedview21"
     showgrid="false"
     fit-margin-top="0"
     fit-margin-left="0"
     fit-margin-right="0"
     fit-margin-bottom="0"
     inkscape:zoom="26.700352"
     inkscape:cx="0.37726498"
     inkscape:cy="-7.0090027"
     inkscape:window-x="-8"
     inkscape:window-y="-8"
     inkscape:window-maximized="1"
     inkscape:current-layer="Layer_1" /><path
     d="m 4.8300013,5.199 c -0.794,-0.826 -2.106,-0.852 -2.933,-0.059 z"
     id="path12"
     inkscape:connector-curvature="0"
     style="fill:#77cccd" /><circle
     stroke-miterlimit="10"
     cx="3.2510002"
     cy="3.721"
     r="3.1010001"
     id="circle14"
     style="fill:none;stroke:#77cccd;stroke-width:0.30000001;stroke-miterlimit:10" /><text
     font-size="2.0501"
     id="text16"
     style="font-size:2.05010009px;font-family:ArialRoundedMTBold;fill:#77cccd"
     x="1.8673013"
     y="3.3664999">x</text>
<text
     font-size="2.0501"
     id="text18"
     style="font-size:2.05010009px;font-family:ArialRoundedMTBold;fill:#77cccd"
     x="3.8507013"
     y="3.3664999">x</text>
<g
     transform="translate(-38.313,-12.712)"
     style="opacity:0.7"
     id="g6"><path
       style="fill:#c01e61"
       inkscape:connector-curvature="0"
       d="m 55.42,17.829 c 0,1.151 -0.933,2.083 -2.083,2.083 h -3.575 c -1.151,0 -2.084,-0.932 -2.084,-2.083 v -2.754 c 0,-1.151 0.933,-2.083 2.084,-2.083 h 3.575 c 1.15,0 2.083,0.932 2.083,2.083 z"
       id="path2" /><path
       style="fill:#c01e61"
       inkscape:connector-curvature="0"
       d="m 53.337,20.173 h -3.575 c -1.293,0 -2.345,-1.052 -2.345,-2.344 v -2.754 c 0,-1.292 1.052,-2.343 2.345,-2.343 h 3.575 c 1.292,0 2.343,1.051 2.343,2.343 v 2.754 c 0,1.292 -1.051,2.344 -2.343,2.344 z m -3.575,-6.922 c -1.005,0 -1.822,0.818 -1.822,1.823 v 2.754 c 0,1.004 0.817,1.822 1.822,1.822 h 3.575 c 1.004,0 1.821,-0.818 1.821,-1.822 v -2.754 c 0,-1.005 -0.817,-1.823 -1.821,-1.823 z"
       id="path4" /></g><g
     transform="translate(-38.313,-12.712)"
     id="g10"><text
       style="font-size:4.58120012px;font-family:ArialRoundedMTBold;fill:#ffffff"
       transform="translate(50.2158,18.062)"
       font-size="4.5812"
       id="text8">9</text>
</g></svg>