<?xml version="1.0" encoding="UTF-8" standalone="no"?>
<!-- Generator: Adobe Illustrator 16.0.0, SVG Export Plug-In . SVG Version: 6.00 Build 0)  -->

<svg
   xmlns:dc="http://purl.org/dc/elements/1.1/"
   xmlns:cc="http://creativecommons.org/ns#"
   xmlns:rdf="http://www.w3.org/1999/02/22-rdf-syntax-ns#"
   xmlns:svg="http://www.w3.org/2000/svg"
   xmlns="http://www.w3.org/2000/svg"
   xmlns:sodipodi="http://sodipodi.sourceforge.net/DTD/sodipodi-0.dtd"
   xmlns:inkscape="http://www.inkscape.org/namespaces/inkscape"
   version="1.1"
   id="Layer_1"
   x="0px"
   y="0px"
   width="44"
   height="40"
   viewBox="0 0 44 40"
   enable-background="new 0 0 100 100"
   xml:space="preserve"
   sodipodi:docname="enfermagem.svg"
   inkscape:version="0.92.1 r15371"><metadata
     id="metadata37"><rdf:RDF><cc:Work
         rdf:about=""><dc:format>image/svg+xml</dc:format><dc:type
           rdf:resource="http://purl.org/dc/dcmitype/StillImage" /><dc:title></dc:title></cc:Work></rdf:RDF></metadata><defs
     id="defs35" /><sodipodi:namedview
     pagecolor="#ffffff"
     bordercolor="#666666"
     borderopacity="1"
     objecttolerance="10"
     gridtolerance="10"
     guidetolerance="10"
     inkscape:pageopacity="0"
     inkscape:pageshadow="2"
     inkscape:window-width="1680"
     inkscape:window-height="987"
     id="namedview33"
     showgrid="false"
     inkscape:zoom="2.36"
     inkscape:cx="23"
     inkscape:cy="20"
     inkscape:window-x="-8"
     inkscape:window-y="-8"
     inkscape:window-maximized="1"
     inkscape:current-layer="Layer_1"
     fit-margin-top="0"
     fit-margin-left="0"
     fit-margin-right="0"
     fit-margin-bottom="0" /><path
     d="M 44,35.576 C 44,38.02 42.02,40 39.576,40 H 4.423 C 1.98,40 0,38.02 0,35.576 V 4.424 C 0,1.98 1.98,0 4.423,0 H 39.576 C 42.02,0 44,1.98 44,4.424 Z"
     id="path2"
     inkscape:connector-curvature="0"
     style="fill:#d1d2d4" /><text
     font-size="6.0789"
     id="text4"
     style="font-size:6.07889986px;font-family:ArialRoundedMTBold;fill:#808284"
     x="3.4697001"
     y="36.951199"><tspan
       style="font-style:normal;font-variant:normal;font-weight:normal;font-stretch:normal;font-family:'Varela Round';-inkscape-font-specification:'Varela Round'"
       id="tspan4514">Enfermagem</tspan></text>
<g
     id="g30"
     transform="translate(-27,-30)"><g
       id="g10"><g
         id="g8"><path
           d="M 61.961,45.625 C 57.915,42.593 53.098,40.99 48.028,40.99 c -2.574,0 -5.103,0.418 -7.516,1.242 -2.333,0.796 -4.517,1.958 -6.492,3.451 -0.211,0.159 -0.283,0.443 -0.175,0.684 l 4.312,9.555 c 0.062,0.137 0.175,0.242 0.316,0.296 0.064,0.024 0.132,0.036 0.2,0.036 0.08,0 0.159,-0.017 0.233,-0.051 2.874,-1.303 5.943,-1.963 9.123,-1.963 3.148,0 6.19,0.648 9.041,1.927 0.285,0.128 0.619,10e-4 0.747,-0.282 l 4.32,-9.574 c 0.108,-0.243 0.036,-0.528 -0.176,-0.686 z m -4.946,9.285 c -2.847,-1.195 -5.867,-1.801 -8.986,-1.801 -3.151,0 -6.2,0.617 -9.071,1.837 l -3.894,-8.629 c 3.788,-2.746 8.261,-4.195 12.964,-4.195 4.671,0 9.118,1.43 12.889,4.141 z"
           id="path6"
           inkscape:connector-curvature="0"
           style="fill:#808284" /></g></g><g
       id="g16"><g
         id="g14"><path
           d="m 59.412,46.24 c -0.285,-0.128 -0.621,-0.002 -0.748,0.282 l -0.217,0.479 c -0.128,0.284 -0.002,0.619 0.283,0.749 0.076,0.033 0.154,0.05 0.232,0.05 0.215,0 0.421,-0.124 0.516,-0.334 l 0.216,-0.478 c 0.128,-0.285 0.002,-0.62 -0.282,-0.748 z"
           id="path12"
           inkscape:connector-curvature="0"
           style="fill:#808284" /></g></g><g
       id="g22"><g
         id="g20"><path
           d="m 58.34,48.615 c -0.285,-0.128 -0.619,-0.002 -0.748,0.283 l -1.803,3.993 c -0.129,0.285 -0.002,0.62 0.283,0.748 0.076,0.034 0.154,0.051 0.232,0.051 0.215,0 0.421,-0.124 0.516,-0.333 l 1.803,-3.994 c 0.128,-0.285 0.002,-0.619 -0.283,-0.748 z"
           id="path18"
           inkscape:connector-curvature="0"
           style="fill:#808284" /></g></g><g
       id="g28"><g
         id="g26"><path
           d="m 51.922,45.696 h -1.996 v -1.994 c 0,-0.313 -0.253,-0.566 -0.565,-0.566 h -2.74 c -0.312,0 -0.565,0.253 -0.565,0.566 v 1.994 h -1.995 c -0.313,0 -0.565,0.255 -0.565,0.566 v 2.739 c 0,0.312 0.252,0.565 0.565,0.565 h 1.995 v 1.995 c 0,0.313 0.253,0.566 0.565,0.566 h 2.74 c 0.312,0 0.565,-0.253 0.565,-0.566 v -1.995 h 1.996 c 0.312,0 0.564,-0.253 0.564,-0.565 v -2.739 c 0,-0.311 -0.252,-0.566 -0.564,-0.566 z m -0.567,2.741 H 49.36 c -0.312,0 -0.565,0.253 -0.565,0.565 v 1.995 h -1.608 v -1.995 c 0,-0.312 -0.253,-0.565 -0.566,-0.565 h -1.995 v -1.608 h 1.995 c 0.312,0 0.566,-0.253 0.566,-0.565 v -1.995 h 1.608 v 1.995 c 0,0.312 0.253,0.565 0.565,0.565 h 1.995 z"
           id="path24"
           inkscape:connector-curvature="0"
           style="fill:#808284" /></g></g></g></svg>