<?xml version="1.0" encoding="UTF-8" standalone="no"?>
<!-- Generator: Adobe Illustrator 16.0.0, SVG Export Plug-In . SVG Version: 6.00 Build 0)  -->

<svg
   xmlns:dc="http://purl.org/dc/elements/1.1/"
   xmlns:cc="http://creativecommons.org/ns#"
   xmlns:rdf="http://www.w3.org/1999/02/22-rdf-syntax-ns#"
   xmlns:svg="http://www.w3.org/2000/svg"
   xmlns="http://www.w3.org/2000/svg"
   xmlns:sodipodi="http://sodipodi.sourceforge.net/DTD/sodipodi-0.dtd"
   xmlns:inkscape="http://www.inkscape.org/namespaces/inkscape"
   version="1.1"
   id="Layer_1"
   x="0px"
   y="0px"
   width="44"
   height="40"
   viewBox="0 0 44 40"
   enable-background="new 0 0 100 100"
   xml:space="preserve"
   sodipodi:docname="farmacia_ver.svg"
   inkscape:version="0.92.1 r15371"><metadata
     id="metadata53"><rdf:RDF><cc:Work
         rdf:about=""><dc:format>image/svg+xml</dc:format><dc:type
           rdf:resource="http://purl.org/dc/dcmitype/StillImage" /><dc:title></dc:title></cc:Work></rdf:RDF></metadata><defs
     id="defs51" /><sodipodi:namedview
     pagecolor="#ffffff"
     bordercolor="#666666"
     borderopacity="1"
     objecttolerance="10"
     gridtolerance="10"
     guidetolerance="10"
     inkscape:pageopacity="0"
     inkscape:pageshadow="2"
     inkscape:window-width="1680"
     inkscape:window-height="987"
     id="namedview49"
     showgrid="false"
     fit-margin-top="0"
     fit-margin-left="0"
     fit-margin-right="0"
     fit-margin-bottom="0"
     inkscape:zoom="2.36"
     inkscape:cx="22"
     inkscape:cy="20"
     inkscape:window-x="-8"
     inkscape:window-y="-8"
     inkscape:window-maximized="1"
     inkscape:current-layer="Layer_1" /><path
     d="M 44,35.576 C 44,38.02 42.02,40 39.576,40 H 4.423 C 1.98,40 0,38.02 0,35.576 V 4.424 C 0,1.98 1.98,0 4.423,0 H 39.576 C 42.02,0 44,1.98 44,4.424 Z"
     id="path2"
     inkscape:connector-curvature="0"
     style="fill:#77cbcd" /><text
     font-size="6.0789"
     id="text4"
     style="font-size:6.07889986px;font-family:ArialRoundedMTBold;fill:#ffffff"
     x="8.1709003"
     y="36.618198"><tspan
       style="-inkscape-font-specification:'Varela Round';font-family:'Varela Round';font-weight:normal;font-style:normal;font-stretch:normal;font-variant:normal"
       id="tspan4530">Farmácia</tspan></text>
<g
     id="g10"
     transform="translate(-28,-30)"><g
       id="g8"><path
         d="m 53.527,43.736 h -0.922 v -0.339 h 0.32 c 0.488,0 0.885,-0.396 0.885,-0.885 v -2.108 c 0,-0.488 -0.396,-0.885 -0.885,-0.885 H 46.9 c -0.488,0 -0.885,0.396 -0.885,0.885 v 2.108 c 0,0.488 0.397,0.885 0.885,0.885 h 0.32 v 0.339 h -0.923 c -1.484,0 -2.692,1.208 -2.692,2.692 v 6.928 c 0,0.156 0.126,0.282 0.282,0.282 0.156,0 0.283,-0.126 0.283,-0.282 v -6.043 h 8.152 c 0.155,0 0.282,-0.127 0.282,-0.282 0,-0.156 -0.127,-0.283 -0.282,-0.283 H 44.17 v -0.319 c 0,-1.174 0.954,-2.128 2.127,-2.128 h 1.205 c 0.156,0 0.283,-0.126 0.283,-0.282 v -0.621 h 4.255 v 0.621 c 0,0.156 0.127,0.282 0.282,0.282 h 1.204 c 1.174,0 2.129,0.954 2.129,2.128 v 0.319 h -2.129 c -0.155,0 -0.281,0.127 -0.281,0.283 0,0.155 0.126,0.282 0.281,0.282 h 2.129 v 7.869 H 44.171 v -0.621 c 0,-0.156 -0.126,-0.282 -0.283,-0.282 -0.156,0 -0.282,0.126 -0.282,0.282 v 1.506 c 0,1.484 1.208,2.692 2.692,2.692 h 7.229 c 1.484,0 2.693,-1.208 2.693,-2.692 v -9.639 c 10e-4,-1.484 -1.208,-2.692 -2.693,-2.692 z m -6.626,-0.903 c -0.176,0 -0.32,-0.144 -0.32,-0.32 v -2.108 c 0,-0.177 0.144,-0.32 0.32,-0.32 h 6.025 c 0.176,0 0.32,0.144 0.32,0.32 v 2.108 c 0,0.177 -0.145,0.32 -0.32,0.32 z m 8.755,13.234 c 0,1.173 -0.955,2.128 -2.129,2.128 h -7.229 c -1.173,0 -2.127,-0.955 -2.127,-2.128 v -0.32 h 11.485 z"
         id="path6"
         inkscape:connector-curvature="0"
         style="fill:#ffffff" /></g></g><g
     id="g16"
     transform="translate(-28,-30)"><g
       id="g14"><path
         d="m 49.913,40.423 c -0.156,0 -0.282,0.126 -0.282,0.282 v 1.506 c 0,0.156 0.126,0.283 0.282,0.283 0.156,0 0.283,-0.127 0.283,-0.283 v -1.506 c 0,-0.156 -0.127,-0.282 -0.283,-0.282 z"
         id="path12"
         inkscape:connector-curvature="0"
         style="fill:#ffffff" /></g></g><g
     id="g22"
     transform="translate(-28,-30)"><g
       id="g20"><path
         d="m 51.118,40.423 c -0.156,0 -0.282,0.126 -0.282,0.282 v 1.506 c 0,0.156 0.126,0.283 0.282,0.283 0.155,0 0.282,-0.127 0.282,-0.283 v -1.506 c 0,-0.156 -0.127,-0.282 -0.282,-0.282 z"
         id="path18"
         inkscape:connector-curvature="0"
         style="fill:#ffffff" /></g></g><g
     id="g28"
     transform="translate(-28,-30)"><g
       id="g26"><path
         d="m 52.323,40.423 c -0.156,0 -0.282,0.126 -0.282,0.282 v 1.506 c 0,0.156 0.126,0.283 0.282,0.283 0.155,0 0.282,-0.127 0.282,-0.283 v -1.506 c 0,-0.156 -0.126,-0.282 -0.282,-0.282 z"
         id="path24"
         inkscape:connector-curvature="0"
         style="fill:#ffffff" /></g></g><g
     id="g34"
     transform="translate(-28,-30)"><g
       id="g32"><path
         d="m 48.708,40.423 c -0.156,0 -0.283,0.126 -0.283,0.282 v 1.506 c 0,0.156 0.127,0.283 0.283,0.283 0.156,0 0.282,-0.127 0.282,-0.283 v -1.506 c 10e-4,-0.156 -0.126,-0.282 -0.282,-0.282 z"
         id="path30"
         inkscape:connector-curvature="0"
         style="fill:#ffffff" /></g></g><g
     id="g40"
     transform="translate(-28,-30)"><g
       id="g38"><path
         d="m 47.503,40.423 c -0.156,0 -0.282,0.126 -0.282,0.282 v 1.506 c 0,0.156 0.126,0.283 0.282,0.283 0.156,0 0.283,-0.127 0.283,-0.283 v -1.506 c 0,-0.156 -0.126,-0.282 -0.283,-0.282 z"
         id="path36"
         inkscape:connector-curvature="0"
         style="fill:#ffffff" /></g></g><g
     id="g46"
     transform="translate(-28,-30)"><g
       id="g44"><path
         d="M 52.021,50.363 H 50.797 V 49.14 c 0,-0.156 -0.126,-0.282 -0.282,-0.282 H 49.31 c -0.156,0 -0.283,0.126 -0.283,0.282 v 1.224 h -1.224 c -0.156,0 -0.282,0.126 -0.282,0.282 v 1.205 c 0,0.156 0.126,0.282 0.282,0.282 h 1.224 v 1.224 c 0,0.156 0.126,0.282 0.283,0.282 h 1.205 c 0.156,0 0.283,-0.126 0.283,-0.282 v -1.224 h 1.223 c 0.156,0 0.283,-0.126 0.283,-0.282 v -1.205 c 10e-4,-0.157 -0.126,-0.283 -0.283,-0.283 z m -0.282,1.205 h -1.224 c -0.156,0 -0.282,0.126 -0.282,0.282 v 1.224 h -0.64 V 51.85 c 0,-0.156 -0.126,-0.282 -0.282,-0.282 h -1.224 v -0.641 h 1.224 c 0.156,0 0.282,-0.126 0.282,-0.282 v -1.224 h 0.64 v 1.224 c 0,0.156 0.126,0.282 0.282,0.282 h 1.224 z"
         id="path42"
         inkscape:connector-curvature="0"
         style="fill:#ffffff" /></g></g></svg>