<?xml version="1.0" encoding="UTF-8" standalone="no"?>
<!-- Generator: Adobe Illustrator 16.0.0, SVG Export Plug-In . SVG Version: 6.00 Build 0)  -->

<svg
   xmlns:dc="http://purl.org/dc/elements/1.1/"
   xmlns:cc="http://creativecommons.org/ns#"
   xmlns:rdf="http://www.w3.org/1999/02/22-rdf-syntax-ns#"
   xmlns:svg="http://www.w3.org/2000/svg"
   xmlns="http://www.w3.org/2000/svg"
   xmlns:sodipodi="http://sodipodi.sourceforge.net/DTD/sodipodi-0.dtd"
   xmlns:inkscape="http://www.inkscape.org/namespaces/inkscape"
   version="1.1"
   id="Layer_1"
   x="0px"
   y="0px"
   width="44"
   height="40"
   viewBox="0 0 44 40"
   enable-background="new 0 0 100 100"
   xml:space="preserve"
   sodipodi:docname="fisio.svg"
   inkscape:version="0.92.1 r15371"><metadata
     id="metadata21"><rdf:RDF><cc:Work
         rdf:about=""><dc:format>image/svg+xml</dc:format><dc:type
           rdf:resource="http://purl.org/dc/dcmitype/StillImage" /><dc:title /></cc:Work></rdf:RDF></metadata><defs
     id="defs19" /><sodipodi:namedview
     pagecolor="#ffffff"
     bordercolor="#666666"
     borderopacity="1"
     objecttolerance="10"
     gridtolerance="10"
     guidetolerance="10"
     inkscape:pageopacity="0"
     inkscape:pageshadow="2"
     inkscape:window-width="1680"
     inkscape:window-height="987"
     id="namedview17"
     showgrid="false"
     fit-margin-top="0"
     fit-margin-left="0"
     fit-margin-right="0"
     fit-margin-bottom="0"
     inkscape:zoom="6.675088"
     inkscape:cx="48.148888"
     inkscape:cy="2.975527"
     inkscape:window-x="-8"
     inkscape:window-y="-8"
     inkscape:window-maximized="1"
     inkscape:current-layer="Layer_1" /><path
     d="M 44,35.576 C 44,38.02 42.02,40 39.576,40 H 4.423 C 1.98,40 0,38.02 0,35.576 V 4.424 C 0,1.98 1.98,0 4.423,0 H 39.576 C 42.02,0 44,1.98 44,4.424 Z"
     id="path2"
     inkscape:connector-curvature="0"
     style="fill:#77cbcd" /><g
     id="g12"
     transform="translate(-28,-30)"><g
       id="g10"><g
         id="g8"><path
           d="m 59.703,37.215 c -0.176,-0.12 -0.379,-0.182 -0.592,-0.182 -0.35,0 -0.676,0.172 -0.871,0.46 l -0.176,0.257 -0.32,-0.207 c 0.058,-0.185 0.07,-0.383 0.034,-0.576 -0.06,-0.323 -0.239,-0.602 -0.507,-0.787 -0.205,-0.142 -0.446,-0.218 -0.695,-0.218 -0.301,0 -0.588,0.111 -0.808,0.305 l -0.307,-0.198 0.128,-0.187 c 0.326,-0.479 0.201,-1.137 -0.279,-1.465 -0.176,-0.118 -0.381,-0.182 -0.592,-0.182 -0.351,0 -0.676,0.172 -0.873,0.46 l -0.746,1.1 c -0.327,0.479 -0.203,1.137 0.277,1.462 0.176,0.121 0.381,0.185 0.593,0.185 0.349,0 0.675,-0.172 0.872,-0.46 l 0.174,-0.257 0.271,0.174 -3.465,5.009 h -3.646 l -3.464,-5.006 0.274,-0.177 0.174,0.257 c 0.196,0.288 0.522,0.46 0.872,0.46 v 0 c 0.212,0 0.417,-0.063 0.592,-0.185 0.481,-0.325 0.605,-0.983 0.278,-1.462 l -0.748,-1.1 c -0.197,-0.288 -0.523,-0.46 -0.872,-0.46 -0.212,0 -0.417,0.063 -0.593,0.182 -0.48,0.328 -0.604,0.986 -0.277,1.465 l 0.126,0.187 -0.308,0.198 c -0.221,-0.193 -0.507,-0.305 -0.81,-0.305 -0.249,0 -0.489,0.076 -0.694,0.218 -0.448,0.311 -0.625,0.87 -0.473,1.365 l -0.317,0.205 -0.174,-0.257 c -0.197,-0.288 -0.523,-0.462 -0.872,-0.462 -0.212,0 -0.417,0.063 -0.593,0.184 -0.48,0.328 -0.605,0.983 -0.278,1.465 l 0.748,1.097 c 0.197,0.291 0.522,0.463 0.872,0.463 0.212,0 0.417,-0.063 0.593,-0.185 0.48,-0.327 0.605,-0.983 0.277,-1.465 l -0.126,-0.186 0.275,-0.178 4.401,6.362 c 0.045,0.064 0.094,0.123 0.148,0.178 v 14.1 c 0,0.22 0.178,0.396 0.396,0.396 h 4.792 c 0.219,0 0.396,-0.177 0.396,-0.396 v -14.1 c 0.055,-0.055 0.104,-0.113 0.148,-0.178 l 4.402,-6.362 0.276,0.178 -0.126,0.186 c -0.327,0.481 -0.203,1.138 0.277,1.465 0.176,0.121 0.381,0.185 0.593,0.185 0.349,0 0.676,-0.172 0.872,-0.463 L 59.98,38.68 c 0.329,-0.482 0.205,-1.137 -0.277,-1.465 z m -4.769,-1.778 -0.747,1.097 c -0.05,0.073 -0.13,0.115 -0.217,0.115 -0.054,0 -0.104,-0.017 -0.146,-0.045 -0.12,-0.082 -0.151,-0.245 -0.069,-0.363 l 0.748,-1.099 c 0.048,-0.071 0.129,-0.113 0.217,-0.113 0.052,0 0.103,0.014 0.146,0.045 0.118,0.079 0.149,0.244 0.068,0.363 z m -9.799,-0.364 c 0.045,-0.031 0.095,-0.045 0.147,-0.045 0.087,0 0.167,0.042 0.217,0.113 l 0.747,1.099 c 0.082,0.118 0.051,0.281 -0.068,0.363 -0.044,0.028 -0.094,0.045 -0.146,0.045 -0.087,0 -0.168,-0.042 -0.217,-0.115 l -0.748,-1.097 c -0.082,-0.118 -0.05,-0.283 0.068,-0.363 z m -3.35,4.326 c -0.044,0.03 -0.094,0.047 -0.147,0.047 -0.086,0 -0.167,-0.042 -0.216,-0.115 l -0.748,-1.097 c -0.081,-0.121 -0.051,-0.283 0.068,-0.363 0.044,-0.031 0.095,-0.048 0.147,-0.048 0.086,0 0.167,0.045 0.216,0.116 l 0.748,1.097 c 0.082,0.12 0.051,0.283 -0.068,0.363 z M 56.93,37.43 52.287,44.139 c -0.03,0.045 -0.068,0.083 -0.113,0.113 -0.109,0.073 -0.176,0.195 -0.176,0.328 V 58.47 H 50.31 v -7.232 c 0,-0.22 -0.178,-0.396 -0.396,-0.396 -0.219,0 -0.396,0.177 -0.396,0.396 V 58.47 H 48 V 44.58 c 0,-0.133 -0.066,-0.255 -0.176,-0.328 -0.045,-0.03 -0.083,-0.068 -0.115,-0.113 l -4.64,-6.709 c -0.136,-0.196 -0.086,-0.463 0.108,-0.6 0.073,-0.049 0.157,-0.075 0.244,-0.075 0.142,0 0.275,0.068 0.355,0.187 l 3.867,5.589 c 0.074,0.105 0.196,0.169 0.326,0.169 h 4.061 c 0.13,0 0.252,-0.063 0.326,-0.169 l 3.865,-5.589 c 0.081,-0.118 0.215,-0.187 0.355,-0.187 0.088,0 0.172,0.026 0.244,0.075 0.196,0.137 0.244,0.403 0.11,0.6 z m 2.397,0.804 -0.748,1.097 c -0.048,0.073 -0.13,0.115 -0.217,0.115 -0.052,0 -0.103,-0.017 -0.146,-0.045 -0.119,-0.082 -0.151,-0.245 -0.069,-0.365 l 0.748,-1.097 c 0.049,-0.071 0.129,-0.116 0.217,-0.116 0.052,0 0.103,0.017 0.146,0.048 0.119,0.08 0.15,0.242 0.069,0.363 z"
           id="path4"
           inkscape:connector-curvature="0"
           style="fill:#ffffff" /><path
           d="m 49.913,41.194 c 1.397,0 2.536,-1.137 2.536,-2.536 0,-1.398 -1.139,-2.535 -2.536,-2.535 -1.397,0 -2.536,1.137 -2.536,2.535 0,1.4 1.139,2.536 2.536,2.536 z m 0,-4.279 c 0.961,0 1.743,0.783 1.743,1.743 0,0.963 -0.782,1.744 -1.743,1.744 -0.961,0 -1.743,-0.781 -1.743,-1.744 0,-0.96 0.782,-1.743 1.743,-1.743 z"
           id="path6"
           inkscape:connector-curvature="0"
           style="fill:#ffffff" /></g></g></g><text
     font-size="6.0789"
     id="text14"
     style="font-size:6.07889986px;font-family:ArialRoundedMTBold;fill:#ffffff"
     x="4.6405983"
     y="36.285202"><tspan
       style="-inkscape-font-specification:'Varela Round';font-family:'Varela Round';font-weight:normal;font-style:normal;font-stretch:normal;font-variant:normal"
       id="tspan4488">Fisioterapia</tspan></text>
</svg>