<?xml version="1.0" encoding="UTF-8" standalone="no"?>
<!-- Generator: Adobe Illustrator 16.0.0, SVG Export Plug-In . SVG Version: 6.00 Build 0)  -->

<svg
   xmlns:dc="http://purl.org/dc/elements/1.1/"
   xmlns:cc="http://creativecommons.org/ns#"
   xmlns:rdf="http://www.w3.org/1999/02/22-rdf-syntax-ns#"
   xmlns:svg="http://www.w3.org/2000/svg"
   xmlns="http://www.w3.org/2000/svg"
   xmlns:sodipodi="http://sodipodi.sourceforge.net/DTD/sodipodi-0.dtd"
   xmlns:inkscape="http://www.inkscape.org/namespaces/inkscape"
   version="1.1"
   id="Layer_1"
   x="0px"
   y="0px"
   width="44"
   height="40"
   viewBox="0 0 44 40"
   enable-background="new 0 0 100 100"
   xml:space="preserve"
   sodipodi:docname="medico.svg"
   inkscape:version="0.92.1 r15371"><metadata
     id="metadata29"><rdf:RDF><cc:Work
         rdf:about=""><dc:format>image/svg+xml</dc:format><dc:type
           rdf:resource="http://purl.org/dc/dcmitype/StillImage" /><dc:title></dc:title></cc:Work></rdf:RDF></metadata><defs
     id="defs27" /><sodipodi:namedview
     pagecolor="#ffffff"
     bordercolor="#666666"
     borderopacity="1"
     objecttolerance="10"
     gridtolerance="10"
     guidetolerance="10"
     inkscape:pageopacity="0"
     inkscape:pageshadow="2"
     inkscape:window-width="1680"
     inkscape:window-height="987"
     id="namedview25"
     showgrid="false"
     fit-margin-top="0"
     fit-margin-left="0"
     fit-margin-right="0"
     fit-margin-bottom="0"
     inkscape:zoom="2.36"
     inkscape:cx="22"
     inkscape:cy="20"
     inkscape:window-x="-8"
     inkscape:window-y="-8"
     inkscape:window-maximized="1"
     inkscape:current-layer="Layer_1" /><path
     d="M 44,35.576 C 44,38.02 42.02,40 39.576,40 H 4.424 C 1.98,40 0,38.02 0,35.576 V 4.424 C 0,1.98 1.98,0 4.424,0 H 39.576 C 42.02,0 44,1.98 44,4.424 Z"
     id="path2"
     inkscape:connector-curvature="0"
     style="fill:#d1d2d4" /><text
     font-size="6.0789"
     id="text4"
     style="font-size:6.07889986px;font-family:ArialRoundedMTBold;fill:#808284"
     x="11.4814"
     y="36.951199"><tspan
       style="-inkscape-font-specification:'Varela Round';font-family:'Varela Round';font-weight:normal;font-style:normal;font-stretch:normal;font-variant:normal"
       id="tspan4506">Médico</tspan></text>
<g
     id="g22"
     transform="translate(-28,-30)"><g
       id="g20"><g
         id="g18"><path
           d="m 43.015,43.724 h 13.971 c 0.227,0 0.41,-0.185 0.41,-0.412 v -4.108 c 0,-2.246 -1.291,-3.698 -3.287,-3.698 h -7.807 c -2.107,0 -3.697,1.59 -3.697,3.698 v 4.108 c -10e-4,0.227 0.183,0.412 0.41,0.412 z m 0.41,-4.521 c 0,-1.666 1.21,-2.876 2.877,-2.876 h 7.807 c 1.817,0 2.466,1.486 2.466,2.876 v 3.698 h -13.15 z"
           id="path6"
           inkscape:connector-curvature="0"
           style="fill:#808284" /><path
           d="m 55.342,39.614 h -3.288 c -0.014,0 -0.026,0.007 -0.04,0.009 -0.188,-0.94 -1.019,-1.652 -2.014,-1.652 -0.995,0 -1.826,0.712 -2.014,1.652 -0.015,-0.002 -0.026,-0.009 -0.041,-0.009 h -3.287 c -0.227,0 -0.411,0.184 -0.411,0.411 0,0.227 0.185,0.411 0.411,0.411 h 3.287 c 0.015,0 0.026,-0.008 0.041,-0.008 0.188,0.94 1.019,1.65 2.014,1.65 0.995,0 1.826,-0.71 2.014,-1.65 0.014,0 0.026,0.008 0.04,0.008 h 3.288 c 0.227,0 0.411,-0.185 0.411,-0.411 0,-0.227 -0.185,-0.411 -0.411,-0.411 z M 50,41.258 c -0.681,0 -1.233,-0.554 -1.233,-1.232 0,-0.68 0.553,-1.233 1.233,-1.233 0.68,0 1.232,0.554 1.232,1.233 0,0.678 -0.552,1.232 -1.232,1.232 z"
           id="path8"
           inkscape:connector-curvature="0"
           style="fill:#808284" /><path
           d="m 43.498,47.785 c 0.211,0.896 0.91,3.701 1.64,4.795 0.528,0.792 1.766,2.647 4.862,2.647 3.096,0 4.334,-1.855 4.862,-2.647 0.729,-1.094 1.428,-3.898 1.639,-4.795 0.516,-0.147 0.895,-0.624 0.895,-1.187 v -1.643 c 0,-0.227 -0.184,-0.411 -0.41,-0.411 -0.228,0 -0.411,0.185 -0.411,0.411 v 1.643 c 0,0.227 -0.186,0.412 -0.411,0.412 -0.192,0 -0.359,0.133 -0.401,0.321 -0.004,0.02 -0.23,1.029 -0.557,2.148 -0.009,0 -0.016,-0.005 -0.024,-0.005 -0.031,0 -3.069,-0.01 -5.027,-0.792 -0.1,-0.04 -0.208,-0.04 -0.307,0 -1.955,0.781 -4.992,0.792 -5.021,0.792 -0.011,0 -0.02,0.005 -0.03,0.006 -0.325,-1.119 -0.554,-2.13 -0.558,-2.149 -0.042,-0.188 -0.208,-0.321 -0.4,-0.321 -0.227,0 -0.412,-0.186 -0.412,-0.412 v -1.643 c 0,-0.227 -0.183,-0.411 -0.41,-0.411 -0.227,0 -0.41,0.185 -0.41,0.411 v 1.643 c -0.003,0.563 0.375,1.04 0.891,1.187 z M 50,49.505 c 1.795,0.67 4.213,0.773 4.955,0.789 -0.241,0.736 -0.512,1.43 -0.777,1.83 -0.494,0.741 -1.521,2.282 -4.178,2.282 -2.657,0 -3.685,-1.541 -4.178,-2.282 -0.267,-0.4 -0.537,-1.094 -0.777,-1.829 0.733,-0.017 3.155,-0.117 4.955,-0.79 z"
           id="path10"
           inkscape:connector-curvature="0"
           style="fill:#808284" /><path
           d="M 62.307,59.618 61.895,58.386 C 61.392,56.88 60.081,56.06 54.617,56.05 54.281,55.883 53.06,55.272 53.06,55.272 52.914,55.199 52.735,55.22 52.609,55.328 L 50,57.563 47.392,55.327 C 47.266,55.22 47.086,55.197 46.94,55.271 l -1.557,0.778 c -0.375,10e-4 -0.729,0.006 -1.065,0.014 -0.024,-0.004 -0.045,-0.014 -0.07,-0.014 -0.033,0 -0.062,0.012 -0.092,0.019 -4.437,0.127 -5.587,0.932 -6.051,2.317 l -0.41,1.232 c -0.072,0.215 0.044,0.447 0.26,0.52 0.216,0.073 0.448,-0.045 0.52,-0.26 l 0.411,-1.232 c 0.225,-0.674 0.525,-1.569 4.952,-1.744 v 0.029 c -0.707,0.183 -1.232,0.821 -1.232,1.585 0,0.906 0.737,1.643 1.643,1.643 0.906,0 1.644,-0.736 1.644,-1.643 0,-0.764 -0.525,-1.402 -1.232,-1.585 v -0.05 c 0.261,-0.005 0.531,-0.008 0.818,-0.008 h 0.003 c 0.063,0 0.127,-0.015 0.185,-0.044 l 1.399,-0.699 2.525,2.164 v 1.455 c 0,0.228 0.184,0.41 0.411,0.41 0.227,0 0.411,-0.183 0.411,-0.41 v -1.455 l 2.525,-2.164 c 1.024,0.512 1.398,0.695 1.583,0.73 v 0.013 c 6.003,0 6.345,1.025 6.595,1.773 l 0.411,1.232 c 0.059,0.172 0.218,0.28 0.391,0.28 0.042,0 0.086,-0.006 0.13,-0.021 0.213,-0.071 0.33,-0.303 0.259,-0.518 z M 45.069,58.516 c 0,0.453 -0.369,0.821 -0.822,0.821 -0.453,0 -0.822,-0.368 -0.822,-0.821 0,-0.454 0.369,-0.822 0.822,-0.822 0.453,0 0.822,0.368 0.822,0.822 z"
           id="path12"
           inkscape:connector-curvature="0"
           style="fill:#808284" /><path
           d="m 51.232,46.188 c -0.227,0 -0.41,0.184 -0.41,0.41 0,0.226 0.184,0.412 0.41,0.412 h 0.411 c 0,0.227 0.184,0.41 0.41,0.41 0.228,0 0.411,-0.184 0.411,-0.41 h 0.411 c 0.227,0 0.411,-0.186 0.411,-0.412 0,-0.226 -0.185,-0.41 -0.411,-0.41 z"
           id="path14"
           inkscape:connector-curvature="0"
           style="fill:#808284" /><path
           d="m 47.123,46.188 c -0.227,0 -0.41,0.184 -0.41,0.41 0,0.226 0.184,0.412 0.41,0.412 h 0.411 c 0,0.227 0.185,0.41 0.411,0.41 0.226,0 0.411,-0.184 0.411,-0.41 h 0.41 c 0.227,0 0.411,-0.186 0.411,-0.412 0,-0.226 -0.185,-0.41 -0.411,-0.41 z"
           id="path16"
           inkscape:connector-curvature="0"
           style="fill:#808284" /></g></g></g></svg>