<?xml version="1.0" encoding="UTF-8" standalone="no"?>
<!-- Generator: Adobe Illustrator 16.0.0, SVG Export Plug-In . SVG Version: 6.00 Build 0)  -->

<svg
   xmlns:dc="http://purl.org/dc/elements/1.1/"
   xmlns:cc="http://creativecommons.org/ns#"
   xmlns:rdf="http://www.w3.org/1999/02/22-rdf-syntax-ns#"
   xmlns:svg="http://www.w3.org/2000/svg"
   xmlns="http://www.w3.org/2000/svg"
   xmlns:sodipodi="http://sodipodi.sourceforge.net/DTD/sodipodi-0.dtd"
   xmlns:inkscape="http://www.inkscape.org/namespaces/inkscape"
   version="1.1"
   id="Layer_1"
   x="0px"
   y="0px"
   width="44"
   height="40"
   viewBox="0 0 44 40"
   enable-background="new 0 0 100 100"
   xml:space="preserve"
   sodipodi:docname="nutri.svg"
   inkscape:version="0.92.1 r15371"><metadata
     id="metadata31"><rdf:RDF><cc:Work
         rdf:about=""><dc:format>image/svg+xml</dc:format><dc:type
           rdf:resource="http://purl.org/dc/dcmitype/StillImage" /><dc:title></dc:title></cc:Work></rdf:RDF></metadata><defs
     id="defs29" /><sodipodi:namedview
     pagecolor="#ffffff"
     bordercolor="#666666"
     borderopacity="1"
     objecttolerance="10"
     gridtolerance="10"
     guidetolerance="10"
     inkscape:pageopacity="0"
     inkscape:pageshadow="2"
     inkscape:window-width="1680"
     inkscape:window-height="987"
     id="namedview27"
     showgrid="false"
     fit-margin-top="0"
     fit-margin-left="0"
     fit-margin-right="0"
     fit-margin-bottom="0"
     inkscape:zoom="2.36"
     inkscape:cx="22"
     inkscape:cy="20"
     inkscape:window-x="-8"
     inkscape:window-y="-8"
     inkscape:window-maximized="1"
     inkscape:current-layer="Layer_1" /><path
     d="M 44,35.576 C 44,38.02 42.02,40 39.576,40 H 4.424 C 1.98,40 0,38.02 0,35.576 V 4.424 C 0,1.98 1.98,0 4.424,0 H 39.576 C 42.02,0 44,1.98 44,4.424 Z"
     id="path2"
     inkscape:connector-curvature="0"
     style="fill:#d1d2d4" /><text
     font-size="6.0789"
     id="text4"
     style="font-size:6.07889986px;font-family:ArialRoundedMTBold;fill:#808284"
     x="9.8788996"
     y="36.285198"><tspan
       style="-inkscape-font-specification:'Varela Round';font-family:'Varela Round';font-weight:normal;font-style:normal;font-stretch:normal;font-variant:normal"
       id="tspan4508">Nutrição</tspan></text>
<g
     id="g24"
     transform="translate(-28,-30)"><g
       id="g22"><g
         id="g20"><g
           id="g18"><path
             d="m 44.354,48.813 v 0.047 c 0,0.2 0.162,0.362 0.362,0.362 0.2,0 0.362,-0.162 0.362,-0.362 v -0.047 c 0,-0.2 -0.162,-0.362 -0.362,-0.362 -0.2,0 -0.362,0.162 -0.362,0.362 z"
             id="path6"
             inkscape:connector-curvature="0"
             style="fill:#808284" /><path
             d="m 43.69,47.875 c 0,-0.2 -0.163,-0.362 -0.363,-0.362 -0.2,0 -0.362,0.162 -0.362,0.362 v 0.047 c 0,0.2 0.162,0.363 0.362,0.363 0.2,0 0.363,-0.163 0.363,-0.363 z"
             id="path8"
             inkscape:connector-curvature="0"
             style="fill:#808284" /><path
             d="m 47.956,58.397 h -4.397 c -0.821,0 -1.489,-0.68 -1.489,-1.515 V 46.468 c 0,-0.004 0,-0.009 0,-0.013 h 1.686 c 0.229,0 0.459,0.055 0.664,0.159 l 2.922,1.48 c 0.306,0.154 0.648,0.237 0.991,0.237 h 0.55 c 0.2,0 0.362,-0.163 0.362,-0.363 0,-0.2 -0.162,-0.362 -0.362,-0.362 h -0.55 c -0.229,0 -0.458,-0.055 -0.664,-0.159 l -2.921,-1.48 C 44.441,45.813 44.099,45.73 43.756,45.73 H 42.26 c 0.206,-0.373 0.563,-0.652 0.995,-0.744 0.354,-0.074 0.612,-0.395 0.612,-0.76 v -0.158 c 0,-0.429 -0.347,-0.777 -0.771,-0.777 -0.311,0 -0.563,-0.258 -0.563,-0.575 V 40.37 c 0,-0.835 0.668,-1.515 1.489,-1.515 h 1.817 c 0.199,0 0.361,-0.162 0.361,-0.362 0,-0.2 -0.162,-0.362 -0.361,-0.362 h -0.583 v -0.683 h 2.052 v 0.683 h -0.335 c -0.2,0 -0.362,0.162 -0.362,0.362 0,0.2 0.162,0.362 0.362,0.362 h 1.569 c 0.821,0 1.489,0.68 1.489,1.514 v 2.347 c 0,0.315 -0.251,0.573 -0.559,0.575 -0.001,0 -0.003,0 -0.005,0 h -4.336 c -0.199,0 -0.361,0.162 -0.361,0.362 0,0.2 0.162,0.363 0.361,0.363 h 3.566 c -0.001,0.017 -0.002,0.034 -0.002,0.052 v 0.158 c 0,0.365 0.258,0.686 0.613,0.76 0.117,0.025 0.23,0.064 0.339,0.117 0.181,0.088 0.397,0.013 0.485,-0.167 0.088,-0.18 0.013,-0.396 -0.168,-0.485 -0.161,-0.078 -0.332,-0.137 -0.507,-0.174 -0.021,-0.005 -0.038,-0.025 -0.038,-0.051 v -0.158 c 0,-0.028 0.021,-0.052 0.047,-0.052 0.711,0 1.289,-0.584 1.289,-1.301 v -2.346 c 0,-1.235 -0.994,-2.239 -2.215,-2.239 h -0.509 v -0.805 c 0.245,-0.148 0.409,-0.417 0.409,-0.724 v -1.379 c 0,-0.467 -0.38,-0.847 -0.846,-0.847 h -2.629 c -0.467,0 -0.846,0.38 -0.846,0.847 v 1.379 c 0,0.307 0.164,0.575 0.408,0.724 v 0.805 h -0.509 c -1.221,0 -2.214,1.004 -2.214,2.239 v 2.346 c 0,0.717 0.578,1.301 1.288,1.301 0.026,0 0.046,0.023 0.046,0.052 v 0.158 c 0,0.025 -0.016,0.046 -0.037,0.051 -0.865,0.183 -1.53,0.875 -1.711,1.726 -0.003,0.012 -0.006,0.023 -0.008,0.035 -0.027,0.141 -0.041,0.284 -0.041,0.431 v 10.415 c 0,1.235 0.993,2.239 2.214,2.239 h 4.397 c 0.2,0 0.362,-0.162 0.362,-0.362 0,-0.2 -0.158,-0.364 -0.358,-0.364 z M 44.847,35.223 c 0,-0.067 0.055,-0.121 0.121,-0.121 h 2.629 c 0.066,0 0.12,0.054 0.12,0.121 v 1.379 c 0,0.066 -0.054,0.121 -0.12,0.121 h -2.629 c -0.066,0 -0.121,-0.055 -0.121,-0.121 z"
             id="path10"
             inkscape:connector-curvature="0"
             style="fill:#808284" /><path
             d="m 49.013,53.739 c 0,-0.2 -0.162,-0.362 -0.362,-0.362 -0.2,0 -0.362,0.162 -0.362,0.362 0,1.882 1.512,3.412 3.371,3.412 0.2,0 0.362,-0.162 0.362,-0.362 0,-0.2 -0.162,-0.362 -0.362,-0.362 -1.46,0 -2.647,-1.205 -2.647,-2.688 z"
             id="path12"
             inkscape:connector-curvature="0"
             style="fill:#808284" /><path
             d="m 43.327,52.627 c -0.2,0 -0.362,0.162 -0.362,0.362 v 0.047 c 0,0.2 0.162,0.362 0.362,0.362 0.2,0 0.363,-0.162 0.363,-0.362 v -0.047 c 0,-0.2 -0.163,-0.362 -0.363,-0.362 z"
             id="path14"
             inkscape:connector-curvature="0"
             style="fill:#808284" /><path
             d="m 59.608,50.565 c -0.622,-0.831 -1.484,-1.467 -2.449,-1.812 v -0.41 c 0,-0.199 -0.162,-0.362 -0.362,-0.362 -0.2,0 -0.362,0.163 -0.362,0.362 v 0.672 c 0,0.16 0.105,0.302 0.259,0.348 1.919,0.573 3.259,2.392 3.259,4.423 0,2.543 -2.038,4.611 -4.544,4.611 h -3.703 c -2.505,0 -4.544,-2.068 -4.544,-4.611 0,-2.031 1.34,-3.85 3.26,-4.423 0.152,-0.046 0.258,-0.188 0.258,-0.348 v -1.609 c 0,-1.611 1.291,-2.922 2.878,-2.922 1.423,0 2.647,1.076 2.849,2.503 0.027,0.198 0.212,0.336 0.409,0.309 0.198,-0.028 0.337,-0.212 0.309,-0.409 -0.234,-1.661 -1.581,-2.94 -3.204,-3.108 V 43.03 c 0.029,-0.016 0.057,-0.036 0.081,-0.061 l 1.282,-1.3 h 1.557 c 2.065,0 3.746,-1.681 3.746,-3.746 v -1.777 c 0,-0.2 -0.162,-0.362 -0.362,-0.362 h -1.709 c -2.065,0 -3.745,1.68 -3.745,3.745 v 1.629 l -0.85,0.86 V 38.96 c 0,-0.111 -0.051,-0.217 -0.14,-0.285 l -1.203,-0.938 c -0.158,-0.123 -0.386,-0.095 -0.509,0.062 -0.123,0.158 -0.095,0.386 0.062,0.509 l 1.064,0.83 v 4.64 c -1.816,0.185 -3.24,1.741 -3.24,3.628 v 1.348 c -0.965,0.345 -1.827,0.98 -2.449,1.812 -0.699,0.933 -1.068,2.047 -1.068,3.221 0,2.942 2.363,5.336 5.269,5.336 h 3.703 c 2.905,0 5.269,-2.394 5.269,-5.336 -0.002,-1.175 -0.371,-2.289 -1.071,-3.222 z M 55.493,39.529 c 0,-1.665 1.355,-3.021 3.021,-3.021 h 1.346 v 1.415 c 0,1.666 -1.354,3.021 -3.021,3.021 h -0.842 l 2.632,-2.667 c 0.141,-0.143 0.139,-0.372 -0.004,-0.513 -0.143,-0.141 -0.372,-0.139 -0.513,0.004 l -2.619,2.655 v 0 z"
             id="path16"
             inkscape:connector-curvature="0"
             style="fill:#808284" /></g></g></g></g></svg>