<?xml version="1.0" encoding="UTF-8" standalone="no"?>
<!-- Generator: Adobe Illustrator 16.0.0, SVG Export Plug-In . SVG Version: 6.00 Build 0)  -->

<svg
   xmlns:dc="http://purl.org/dc/elements/1.1/"
   xmlns:cc="http://creativecommons.org/ns#"
   xmlns:rdf="http://www.w3.org/1999/02/22-rdf-syntax-ns#"
   xmlns:svg="http://www.w3.org/2000/svg"
   xmlns="http://www.w3.org/2000/svg"
   xmlns:sodipodi="http://sodipodi.sourceforge.net/DTD/sodipodi-0.dtd"
   xmlns:inkscape="http://www.inkscape.org/namespaces/inkscape"
   version="1.1"
   id="Layer_1"
   x="0px"
   y="0px"
   width="44"
   height="40"
   viewBox="0 0 44 40"
   enable-background="new 0 0 100 100"
   xml:space="preserve"
   sodipodi:docname="psico_verde.svg"
   inkscape:version="0.92.1 r15371"><metadata
     id="metadata13"><rdf:RDF><cc:Work
         rdf:about=""><dc:format>image/svg+xml</dc:format><dc:type
           rdf:resource="http://purl.org/dc/dcmitype/StillImage" /><dc:title></dc:title></cc:Work></rdf:RDF></metadata><defs
     id="defs11" /><sodipodi:namedview
     pagecolor="#ffffff"
     bordercolor="#666666"
     borderopacity="1"
     objecttolerance="10"
     gridtolerance="10"
     guidetolerance="10"
     inkscape:pageopacity="0"
     inkscape:pageshadow="2"
     inkscape:window-width="1680"
     inkscape:window-height="987"
     id="namedview9"
     showgrid="false"
     fit-margin-top="0"
     fit-margin-left="0"
     fit-margin-right="0"
     fit-margin-bottom="0"
     inkscape:zoom="2.36"
     inkscape:cx="22"
     inkscape:cy="20"
     inkscape:window-x="-8"
     inkscape:window-y="-8"
     inkscape:window-maximized="1"
     inkscape:current-layer="Layer_1" /><path
     d="M 44,35.576 C 44,38.02 42.02,40 39.576,40 H 4.424 C 1.98,40 0,38.02 0,35.576 V 4.424 C 0,1.98 1.98,0 4.424,0 H 39.576 C 42.02,0 44,1.98 44,4.424 Z"
     id="path2"
     inkscape:connector-curvature="0"
     style="fill:#77cbcd" /><text
     font-size="6.0789"
     id="text4"
     style="font-size:6.07889986px;font-family:ArialRoundedMTBold;fill:#ffffff"
     x="5.4696999"
     y="36.618198"><tspan
       style="font-style:normal;font-variant:normal;font-weight:normal;font-stretch:normal;font-family:'Varela Round';-inkscape-font-specification:'Varela Round'"
       id="tspan4490">Psicossocial</tspan></text>
<path
     d="m 31.48,4.507 c -1.46,0 -2.646,1.187 -2.646,2.646 0,0.457 0.116,0.887 0.32,1.262 l -4.334,4.334 c -0.597,-0.465 -1.345,-0.745 -2.16,-0.745 -0.813,0 -1.562,0.28 -2.158,0.745 L 17.12,9.367 c 0.154,-0.263 0.249,-0.564 0.249,-0.891 0,-0.973 -0.791,-1.764 -1.764,-1.764 -0.973,0 -1.764,0.791 -1.764,1.764 0,0.973 0.791,1.764 1.764,1.764 0.326,0 0.628,-0.095 0.891,-0.25 l 3.382,3.382 c -0.465,0.598 -0.745,1.346 -0.745,2.16 0,0.813 0.28,1.562 0.745,2.159 l -5.585,5.585 c -0.47,-0.427 -1.091,-0.689 -1.774,-0.689 -1.459,0 -2.646,1.187 -2.646,2.646 0,1.459 1.187,2.646 2.646,2.646 1.46,0 2.646,-1.187 2.646,-2.646 0,-0.457 -0.116,-0.887 -0.32,-1.262 l 5.657,-5.657 c 0.487,0.379 1.075,0.634 1.719,0.715 v 4.479 c -1.25,0.211 -2.205,1.297 -2.205,2.606 0,1.459 1.187,2.646 2.646,2.646 1.46,0 2.646,-1.187 2.646,-2.646 0,-1.309 -0.956,-2.395 -2.205,-2.606 v -4.479 c 0.643,-0.081 1.23,-0.336 1.719,-0.715 l 3.382,3.382 c -0.156,0.264 -0.251,0.564 -0.251,0.891 0,0.973 0.791,1.765 1.765,1.765 0.972,0 1.764,-0.792 1.764,-1.765 0,-0.972 -0.792,-1.764 -1.764,-1.764 -0.327,0 -0.629,0.095 -0.891,0.25 l -3.382,-3.382 c 0.464,-0.598 0.745,-1.346 0.745,-2.159 0,-0.814 -0.281,-1.562 -0.745,-2.159 L 29.707,9.11 c 0.47,0.427 1.091,0.689 1.774,0.689 1.459,0 2.646,-1.187 2.646,-2.646 C 34.126,5.693 32.939,4.507 31.48,4.507 Z M 14.724,8.476 c 0,-0.486 0.396,-0.882 0.882,-0.882 0.486,0 0.882,0.396 0.882,0.882 0,0.486 -0.396,0.882 -0.882,0.882 -0.486,0 -0.882,-0.396 -0.882,-0.882 z m -2.205,18.52 c -0.973,0 -1.764,-0.792 -1.764,-1.764 0,-0.973 0.791,-1.765 1.764,-1.765 0.973,0 1.764,0.792 1.764,1.765 -10e-4,0.972 -0.792,1.764 -1.764,1.764 z m 11.906,-0.882 c 0,0.973 -0.791,1.764 -1.765,1.764 -0.972,0 -1.763,-0.791 -1.763,-1.764 0,-0.973 0.791,-1.764 1.763,-1.764 0.974,10e-4 1.765,0.792 1.765,1.764 z M 22.66,18.177 c -1.458,0 -2.645,-1.187 -2.645,-2.646 0,-1.46 1.187,-2.646 2.645,-2.646 1.46,0 2.646,1.187 2.646,2.646 10e-4,1.459 -1.186,2.646 -2.646,2.646 z m 7.939,4.409 c 0,0.487 -0.396,0.882 -0.882,0.882 -0.487,0 -0.883,-0.395 -0.883,-0.882 0,-0.486 0.396,-0.882 0.883,-0.882 0.486,0 0.882,0.396 0.882,0.882 z M 31.48,8.916 c -0.973,0 -1.764,-0.791 -1.764,-1.764 0,-0.973 0.791,-1.764 1.764,-1.764 0.973,0 1.764,0.791 1.764,1.764 0,0.973 -0.791,1.764 -1.764,1.764 z"
     id="path6"
     inkscape:connector-curvature="0"
     style="fill:#ffffff" /></svg>